<?xml version="1.0" encoding="UTF-8"?><svg id="Layer_2" xmlns="http://www.w3.org/2000/svg" xmlns:xlink="http://www.w3.org/1999/xlink" viewBox="0 0 228.95 189.63"><defs><style>.cls-1{fill:none;}.cls-2{fill:#e0e0df;}.cls-3{clip-path:url(#clippath);}</style><clipPath id="clippath"><polygon class="cls-1" points="131.24 189.63 228.95 4.63 20.24 0 0 167.66 131.24 189.63"/></clipPath></defs><g id="Layer_1-2"><g class="cls-3"><path class="cls-2" d="M61.57,23.43c6.28,0,18.5,0,27.67,7.13,6.62,5.09,10.53,13.92,10.53,23.43,0,14.6-9.68,20.54-12.73,22.24,7.47,1.19,11.88,4.41,14.77,7.13,6.79,6.45,8.15,15.28,8.15,21.22,0,6.62-1.87,15.96-9.68,22.92-8.49,7.47-18.84,9.17-28.69,9.17h-38.02V23.43h28.01ZM55.63,70.45h6.28c3.4,0,17.15-.34,17.15-14.77,0-10.35-7.98-14.26-16.98-14.26h-6.45v29.03ZM55.63,118.66h9.5c4.07,0,10.19-.17,15.11-3.05,5.43-3.23,6.95-8.66,6.95-13.07,0-3.57-1.19-9.68-8.32-12.9-4.75-2.21-10.35-2.21-15.11-2.21h-8.15v31.23Z"/><path class="cls-2" d="M147.96,63.15v41.59c0,3.9.34,9.17,4.41,12.9,2.55,2.21,6.62,3.73,10.53,3.73s7.98-1.53,10.52-3.73c4.07-3.74,4.41-9,4.41-12.9v-41.59h20.71v44.99c0,6.62-.85,15.45-9,22.58-6.79,5.94-17.66,8.32-26.65,8.32s-19.86-2.38-26.65-8.32c-8.15-7.13-9-15.96-9-22.58v-44.99h20.71Z"/><path class="cls-2" d="M238.94,80.81v55.85h-20.71v-55.85h-8.15v-17.66h8.15v-25.12h20.71v25.12h14.26v17.66h-14.26Z"/></g></g></svg>