<?xml version="1.0" encoding="UTF-8"?><svg id="Layer_2" xmlns="http://www.w3.org/2000/svg" xmlns:xlink="http://www.w3.org/1999/xlink" viewBox="0 0 151.48 185.01"><defs><style>.cls-1{fill:none;}.cls-2{fill:#e0e0df;}.cls-3{clip-path:url(#clippath);}</style><clipPath id="clippath"><polygon class="cls-1" points="0 185.01 97.71 0 151.48 30.64 147.43 164.2 0 185.01"/></clipPath></defs><g id="Layer_1-2"><g class="cls-3"><path class="cls-2" d="M16.37,58.75v41.59c0,3.9.34,9.17,4.41,12.9,2.55,2.21,6.62,3.73,10.53,3.73s7.98-1.53,10.52-3.73c4.07-3.74,4.41-9,4.41-12.9v-41.59h20.71v44.99c0,6.62-.85,15.45-9,22.58-6.79,5.94-17.66,8.32-26.65,8.32s-19.86-2.38-26.65-8.32c-8.15-7.13-9-15.96-9-22.58v-44.99h20.71Z"/><path class="cls-2" d="M107.35,76.4v55.85h-20.71v-55.85h-8.15v-17.66h8.15v-25.12h20.71v25.12h14.26v17.66h-14.26Z"/></g></g></svg>