<?xml version="1.0" encoding="UTF-8"?><svg id="Layer_2" xmlns="http://www.w3.org/2000/svg" xmlns:xlink="http://www.w3.org/1999/xlink" viewBox="0 0 72.75 62.56"><defs><style>.cls-1{fill:none;}.cls-2{fill:#e0e0df;}.cls-3{clip-path:url(#clippath);}</style><clipPath id="clippath"><rect class="cls-1" width="72.75" height="62.56"/></clipPath></defs><g id="Layer_1-2"><g class="cls-3"><path class="cls-2" d="M3.62,56.8l1.38,5.76c2.09.07,4.17-.53,6.36-1.84,6.21-3.73,5.68-9.18,5.43-10.82l-5.05,2.03c.04,1.94-.85,3.7-2.75,4.84-1.93,1.16-3.61.88-4.59.46-.26-.11-.53-.26-.78-.43M8.47,40.61c-2.08-.72-4.96-.9-8.46,1.13l1.05,4.36c.29-.29.61-.56.96-.77,1.85-1.11,4.52-1.15,6.39,1.03l-6.37,3.82.92,3.82,12.11-7.28-.25-.41c-1.16-1.93-3.09-4.58-6.34-5.71M40.97,42.14l-6.72-11.19c-1.04-1.73-2.27-3.4-4.41-4.18-2.44-.89-5.01.04-6.58.98-2.88,1.73-3.63,4.31-3.78,6.19l-8.7-14.48-5.02,3.02,18.02,29.99,5.02-3.02-5.46-9.09c-.62-1.03-1.34-2.33-1.29-3.93.07-1.56.83-2.63,2.15-3.42.49-.3,1.61-.86,2.89-.5,1.47.4,2.45,1.94,3.05,2.93l5.83,9.71,5.02-3.02ZM49.44,18.96l-2.16-5.09c-.7.14-1.52.36-2.39.87-1.19.72-2.01,1.6-2.49,2.56-.25.43-.87,1.81-.74,3.8l-1.61-2.67-5.02,3.02,10.71,17.81,5.02-3.02-5.14-8.56c-.74-1.23-1.61-2.78-1.39-4.54.25-1.83,1.52-2.87,2.47-3.44,1.03-.62,1.81-.81,2.74-.75M72.75,35.87L70.75,0l-5.68,3.41,1.14,13.09-11.6-6.81-5.84,3.51,17.57,10.05.73,16.03,5.68-3.41Z"/></g></g></svg>