<?xml version="1.0" encoding="UTF-8"?><svg id="Layer_2" xmlns="http://www.w3.org/2000/svg" xmlns:xlink="http://www.w3.org/1999/xlink" viewBox="0 0 159.82 107.99"><defs><style>.cls-1{fill:none;}.cls-2{fill:#e0e0df;}.cls-3{clip-path:url(#clippath);}</style><clipPath id="clippath"><rect class="cls-1" width="159.82" height="107.99"/></clipPath></defs><g id="Layer_1-2"><g class="cls-3"><path class="cls-2" d="M148.23,7.22c-.51,2.04-.64,5.09,1.49,8.63,1.68,2.8,3.89,4.61,6.98,5.27,1.05.24,2.09.31,3.13.22l-1.23-5.12c-.19-.05-.37-.11-.53-.18-1.04-.44-2.02-1.41-2.67-2.48l2.23-1.34-.92-3.82-3.08,1.85c-1.02-2.63.19-4.99,2.05-6.1,0,0,0,0,.01,0L154.7,0c-.41.2-.84.42-1.27.68-2.14,1.29-4.34,3.22-5.2,6.54M14.57,92.68l8.64-5.19-2.77-4.61-8.64,5.19-3.68-6.13,9.22-5.54-2.77-4.61L0,80.55l16.49,27.44,5.35-3.21-7.27-12.1ZM33.94,85.86c-.74-1.23-1.61-2.78-1.39-4.54.25-1.83,1.52-2.87,2.47-3.44,1.03-.62,1.81-.81,2.74-.75l-2.16-5.09c-.7.14-1.52.35-2.39.87-1.19.72-2.01,1.6-2.49,2.56-.25.43-.87,1.81-.74,3.8l-1.61-2.67-5.02,3.02,10.71,17.81,5.02-3.02-5.14-8.56ZM55.35,79.38c-2.88,1.73-6.27.75-7.98-2.09-1.71-2.84-.96-6.26,1.92-7.99,2.88-1.73,6.25-.79,7.95,2.05,1.7,2.84.98,6.3-1.9,8.03M67.14,77.56l-10.71-17.81-5.02,3.02,1.38,2.3c-3.27-1.62-6.09-.26-7.45.56-5.27,3.17-6.32,9.51-3.16,14.78,3.14,5.22,9.33,7.33,14.8,4.04,1.28-.77,3.49-2.49,3.74-6.17l1.38,2.3,5.02-3.02ZM71.39,49.97c-2.88,1.73-3.63,4.31-3.78,6.19l-1.39-2.3-5.02,3.02,10.7,17.82,5.02-3.02-5.46-9.09c-.62-1.03-1.34-2.33-1.29-3.93.07-1.56.83-2.63,2.15-3.42.49-.3,1.61-.86,2.89-.5,1.47.4,2.45,1.94,3.05,2.93l5.83,9.71,5.02-3.02-6.72-11.19c-1.04-1.73-2.27-3.4-4.42-4.18-2.44-.89-5.01.04-6.58.98M112.72,50.17l-15.02-4.58,3.65-12.84-6.5,3.91-2.76,10.51-11.22-18.68-5.02,3.02,18.02,29.99,5.02-3.02-4.28-7.12.24-.81,11.2,3.63,6.67-4.01ZM143.14,12.35l-.2-.33-12.59,7.57,2.77,4.61,7.08-4.25c.73,2.25.51,4.29-.07,5.75-.83,2.07-2.59,3.8-4.4,4.88-2.92,1.76-5.55,1.77-7.5,1.31-1.82-.42-4.69-1.66-6.89-5.32-1.85-3.09-2.24-6.44-1.59-8.9.7-2.66,2.7-4.92,4.88-6.23,1.28-.77,2.89-1.34,4.39-1.46,1.14-.07,3.1.04,5.16,1.32l3.14-5.3c-2.92-1.6-5.85-2.09-8.16-1.93-2.77.15-5.14,1.13-7.2,2.37-5.31,3.19-7.5,7.36-8.3,10.7-.66,2.63-1.09,7.32,2.1,12.63,3.71,6.17,8.91,7.75,10.43,8.13,4.81,1.2,8.77-.23,12.18-2.28,3.42-2.05,6.44-4.93,7.58-9.48,1.54-6.02-1.68-11.93-2.79-13.78"/></g></g></svg>