<?xml version="1.0" encoding="UTF-8"?><svg id="Layer_2" xmlns="http://www.w3.org/2000/svg" xmlns:xlink="http://www.w3.org/1999/xlink" viewBox="0 0 111.39 103.86"><defs><style>.cls-1{fill:none;}.cls-2{fill:#e0e0df;}.cls-3{clip-path:url(#clippath);}</style><clipPath id="clippath"><polygon class="cls-1" points="0 93.13 39.26 0 107.96 21.23 111.39 103.86 0 93.13"/></clipPath></defs><g id="Layer_1-2"><g class="cls-3"><path class="cls-2" d="M-15.69,45.21H11.87v-25.21h12.7v65.16h-12.7v-29.02H-15.69v29.02h-12.7V20.01h12.7v25.21Z"/><path class="cls-2" d="M79.17,73.35c-1.27,3.13-6.06,13.19-20.81,13.19-6.84,0-12.02-1.95-16.22-5.96-4.69-4.4-6.64-9.87-6.64-16.51,0-8.4,3.42-13.58,6.45-16.61,4.98-4.89,10.84-5.96,15.92-5.96,8.6,0,13.58,3.42,16.51,6.94,4.49,5.37,5.08,12.02,5.08,16.61v.98h-31.65c0,2.54.68,5.28,2.05,7.13,1.27,1.76,3.91,4,8.5,4s7.91-2.15,9.87-5.57l10.94,1.76ZM68.23,58.4c-.98-5.76-5.67-8.5-10.06-8.5s-8.99,2.83-9.97,8.5h20.03Z"/></g></g></svg>