<?xml version="1.0" encoding="UTF-8"?><svg id="Layer_2" xmlns="http://www.w3.org/2000/svg" xmlns:xlink="http://www.w3.org/1999/xlink" viewBox="0 0 86.96 129.2"><defs><style>.cls-1{fill:none;}.cls-2{fill:#e0e0df;}.cls-3{clip-path:url(#clippath);}</style><clipPath id="clippath"><polygon class="cls-1" points="21.44 113.98 86.96 0 3.98 3.98 0 129.2 21.44 113.98"/></clipPath></defs><g id="Layer_1-2"><g class="cls-3"><path class="cls-2" d="M36.49,25.15v84.47h-16.46V25.15h16.46Z"/><path class="cls-2" d="M69.16,67.95v41.66h-15.45v-41.66h-5.83v-13.17h5.83v-15.07c0-5.07.38-13.68,7.22-19.38,3.29-2.79,7.85-4.56,13.55-4.56,3.42,0,6.2.63,8.86,1.9v14.06c-2.15-1.65-4.31-2.28-6.96-2.28-2.03,0-4.05.51-5.57,2.79-1.27,2.02-1.65,4.94-1.65,9.5v13.04h14.18v13.17h-14.18Z"/></g></g></svg>