<?xml version="1.0" encoding="UTF-8"?><svg id="Layer_2" xmlns="http://www.w3.org/2000/svg" xmlns:xlink="http://www.w3.org/1999/xlink" viewBox="0 0 166.54 271.61"><defs><style>.cls-1{fill:none;}.cls-2{fill:#e0e0df;}.cls-3{clip-path:url(#clippath);}</style><clipPath id="clippath"><polygon class="cls-1" points="143.24 232 166.54 63.85 8.15 0 0 206.1 78.2 271.61 143.24 232"/></clipPath></defs><g id="Layer_1-2"><g class="cls-3"><path class="cls-2" d="M67.18,63.85v153.9h-29.99V63.85h29.99Z"/><path class="cls-2" d="M98.09,117.83h28.15v12.92c5.31-7.38,14.77-16.15,30.92-16.15,8.77,0,21.69,2.54,29.53,12.23,6.92,8.54,7.85,18.46,7.85,28.15v62.76h-28.15v-54.45c0-5.54-.23-14.31-5.31-19.61-4.38-4.61-10.38-5.08-13.15-5.08-7.38,0-13.15,2.54-17.31,8.77-4.15,6.46-4.38,13.62-4.38,19.38v50.99h-28.15v-99.91Z"/></g></g></svg>