<?xml version="1.0" encoding="UTF-8"?><svg id="Layer_2" xmlns="http://www.w3.org/2000/svg" xmlns:xlink="http://www.w3.org/1999/xlink" viewBox="0 0 155.8 207.77"><defs><style>.cls-1{fill:none;}.cls-2{fill:#e0e0df;}.cls-3{clip-path:url(#clippath);}</style><clipPath id="clippath"><polygon class="cls-1" points="0 168.16 23.3 0 155.8 39.43 132.8 207.77 0 168.16"/></clipPath></defs><g id="Layer_1-2"><g class="cls-3"><path class="cls-2" d="M-45.5,53.99h28.15v12.92c5.31-7.38,14.77-16.15,30.92-16.15,8.77,0,21.69,2.54,29.53,12.23,6.92,8.54,7.85,18.46,7.85,28.15v62.76h-28.15v-54.45c0-5.54-.23-14.31-5.31-19.61-4.38-4.61-10.38-5.08-13.15-5.08-7.38,0-13.15,2.54-17.31,8.77-4.15,6.46-4.38,13.62-4.38,19.38v50.99h-28.15V53.99Z"/></g></g></svg>