<?xml version="1.0" encoding="UTF-8"?><svg id="Layer_2" xmlns="http://www.w3.org/2000/svg" viewBox="0 0 377.68 138.72"><defs><style>.cls-1,.cls-2,.cls-3,.cls-4{font-family:FuturaPT-Demi, 'Futura PT';font-weight:300;}.cls-1,.cls-5{letter-spacing:.03em;}.cls-6{fill:#e6e6e6;font-size:18px;}.cls-7,.cls-8{font-family:FuturaPT-Book, 'Futura PT';}.cls-8{letter-spacing:-.02em;}.cls-9{letter-spacing:-.07em;}.cls-10{letter-spacing:-.02em;}.cls-11{letter-spacing:-.02em;}.cls-12{letter-spacing:-.05em;}.cls-13{letter-spacing:-.01em;}.cls-14{letter-spacing:0em;}.cls-3{letter-spacing:-.03em;}.cls-4{letter-spacing:-.03em;}.cls-15{letter-spacing:.05em;}</style></defs><g id="Layer_1-2"><text class="cls-6" transform="translate(0 15)"><tspan class="cls-3" x="0" y="0">F</tspan><tspan class="cls-2" x="7.79" y="0">ondation Louis </tspan><tspan class="cls-4" x="124.61" y="0">V</tspan><tspan class="cls-2" x="135.64" y="0">ui</tspan><tspan class="cls-1" x="149.58" y="0">t</tspan><tspan class="cls-2" x="154.99" y="0">ton, </tspan><tspan class="cls-8" x="188.53" y="0">P</tspan><tspan class="cls-7" x="196.37" y="0">aris</tspan><tspan class="cls-7"><tspan x="0" y="43.2">One of Geh</tspan><tspan class="cls-5" x="84.31" y="43.2">r</tspan><tspan class="cls-15" x="90.2" y="43.2">y</tspan><tspan class="cls-9" x="99.38" y="43.2">’</tspan><tspan x="102.83" y="43.2">s most abst</tspan><tspan class="cls-11" x="178.63" y="43.2">r</tspan><tspan x="183.58" y="43.2">act s</tspan><tspan class="cls-13" x="215.31" y="43.2">k</tspan><tspan x="222.72" y="43.2">etc</tspan><tspan class="cls-14" x="243.12" y="43.2">h</tspan><tspan x="251.4" y="43.2">es led to one </tspan></tspan><tspan class="cls-7"><tspan x="0" y="64.8">of his most d</tspan><tspan class="cls-11" x="86.29" y="64.8">r</tspan><tspan x="91.24" y="64.8">amatic buil</tspan><tspan class="cls-14" x="167.52" y="64.8">d</tspan><tspan x="176.81" y="64.8">ings in t</tspan><tspan class="cls-14" x="229.26" y="64.8">h</tspan><tspan x="237.54" y="64.8">e Bois de </tspan></tspan><tspan class="cls-7"><tspan x="0" y="86.4">Boulogne, west of t</tspan><tspan class="cls-14" x="132.53" y="86.4">h</tspan><tspan x="140.81" y="86.4">e </tspan><tspan class="cls-11" x="153.66" y="86.4">F</tspan><tspan class="cls-10" x="161.09" y="86.4">r</tspan><tspan x="165.99" y="86.4">ench capital</tspan><tspan class="cls-9" x="251.27" y="86.4">’</tspan><tspan x="254.73" y="86.4">s </tspan></tspan><tspan class="cls-7"><tspan x="0" y="108">urban cente</tspan><tspan class="cls-12" x="82.82" y="108">r</tspan><tspan x="87.28" y="108">.</tspan></tspan></text></g></svg>