<?xml version="1.0" encoding="UTF-8"?><svg id="Layer_2" xmlns="http://www.w3.org/2000/svg" viewBox="0 0 298.61 148.3"><defs><style>.cls-1{fill:#fff;}</style></defs><g id="Layer_1-2"><path class="cls-1" d="M2.27,7.75v5.59h-1.15v-5.59H.42v-1.06h.7v-2.4h1.15v2.4h1.15v1.06h-1.15Z"/><path class="cls-1" d="M4.51,1.67h1.15v5.79c.21-.27.8-.93,1.9-.93.78,0,1.5.32,1.91.91.34.5.38,1.04.38,1.78v4.11h-1.15v-4.08c0-.4-.03-.86-.3-1.22-.22-.29-.58-.48-1.09-.48-.4,0-.83.11-1.17.51-.45.53-.48,1.31-.48,1.79v3.47h-1.15V1.67Z"/><path class="cls-1" d="M17.76,11.64c-.19.37-.48.77-.82,1.07-.61.54-1.36.82-2.21.82-1.6,0-3.28-1.01-3.28-3.47,0-1.99,1.22-3.52,3.22-3.52,1.3,0,2.11.64,2.51,1.22.42.59.66,1.62.62,2.5h-5.17c.02,1.38.96,2.26,2.11,2.26.54,0,.98-.16,1.36-.48.3-.26.54-.59.69-.91l.96.53ZM16.63,9.29c-.19-1.04-.98-1.73-1.95-1.73s-1.78.74-1.95,1.73h3.91Z"/><path class="cls-1" d="M28.5,8.55c-.61-.77-1.49-.99-2.08-.99-1.23,0-2.35.86-2.35,2.48s1.15,2.46,2.34,2.46c.69,0,1.54-.3,2.14-1.04v1.38c-.72.53-1.49.69-2.11.69-2.06,0-3.55-1.47-3.55-3.47s1.5-3.52,3.55-3.52c1.06,0,1.75.42,2.07.64v1.38Z"/><path class="cls-1" d="M30.3,1.67h1.15v5.79c.21-.27.8-.93,1.9-.93.79,0,1.5.32,1.91.91.34.5.38,1.04.38,1.78v4.11h-1.15v-4.08c0-.4-.03-.86-.3-1.22-.22-.29-.58-.48-1.09-.48-.4,0-.83.11-1.17.51-.45.53-.48,1.31-.48,1.79v3.47h-1.15V1.67Z"/><path class="cls-1" d="M37.17,10.04c0-2.02,1.49-3.51,3.52-3.51s3.52,1.49,3.52,3.51-1.5,3.49-3.52,3.49-3.52-1.47-3.52-3.49ZM38.35,10.04c0,1.63,1.15,2.46,2.34,2.46s2.34-.85,2.34-2.46-1.12-2.48-2.34-2.48-2.34.86-2.34,2.48Z"/><path class="cls-1" d="M46.54,3.36c.45,0,.82.37.82.82s-.37.82-.82.82-.82-.37-.82-.82.37-.82.82-.82ZM47.12,6.69v6.64h-1.15v-6.64h1.15Z"/><path class="cls-1" d="M54.5,8.55c-.61-.77-1.49-.99-2.08-.99-1.23,0-2.35.86-2.35,2.48s1.15,2.46,2.34,2.46c.69,0,1.54-.3,2.14-1.04v1.38c-.72.53-1.49.69-2.11.69-2.07,0-3.55-1.47-3.55-3.47s1.5-3.52,3.55-3.52c1.06,0,1.74.42,2.06.64v1.38Z"/><path class="cls-1" d="M62.19,11.64c-.19.37-.48.77-.82,1.07-.61.54-1.36.82-2.21.82-1.6,0-3.28-1.01-3.28-3.47,0-1.99,1.22-3.52,3.22-3.52,1.3,0,2.11.64,2.51,1.22.42.59.66,1.62.62,2.5h-5.17c.02,1.38.96,2.26,2.11,2.26.54,0,.98-.16,1.36-.48.3-.26.54-.59.69-.91l.96.53ZM61.06,9.29c-.19-1.04-.98-1.73-1.95-1.73s-1.78.74-1.95,1.73h3.91Z"/><path class="cls-1" d="M66.74,8.23c-.16-.38-.5-.67-.93-.67s-.8.24-.8.75c0,.48.32.62,1.07.94.96.4,1.41.71,1.67,1.02.29.35.35.71.35,1.07,0,1.39-1.01,2.18-2.29,2.18-.27,0-1.76-.03-2.32-1.7l.99-.42c.13.35.51,1.09,1.34,1.09.75,0,1.09-.56,1.09-1.06,0-.62-.45-.83-1.07-1.1-.8-.35-1.31-.61-1.62-.98-.26-.32-.3-.64-.3-.98,0-1.17.82-1.86,1.94-1.86.35,0,1.3.06,1.83,1.2l-.95.5Z"/><path class="cls-1" d="M78.45,6.69h1.15v6.64h-1.15v-.93c-.38.5-1.1,1.12-2.27,1.12-1.68,0-3.23-1.18-3.23-3.52s1.54-3.47,3.23-3.47c1.28,0,1.97.7,2.27,1.1v-.94ZM74.13,10.01c0,1.42.8,2.5,2.18,2.5s2.21-1.17,2.21-2.48c0-1.71-1.18-2.46-2.21-2.46-1.14,0-2.18.83-2.18,2.45Z"/><path class="cls-1" d="M81.77,6.69h1.15v.72c.11-.18.61-.88,1.5-.88.35,0,.74.13,1.03.27l-.54,1.04c-.26-.18-.5-.22-.67-.22-.46,0-.75.19-.93.42-.19.26-.38.7-.38,1.79v3.51h-1.15v-6.64Z"/><path class="cls-1" d="M92.02,11.64c-.19.37-.48.77-.82,1.07-.61.54-1.36.82-2.21.82-1.6,0-3.28-1.01-3.28-3.47,0-1.99,1.22-3.52,3.22-3.52,1.3,0,2.11.64,2.51,1.22.42.59.66,1.62.62,2.5h-5.17c.02,1.38.96,2.26,2.11,2.26.54,0,.98-.16,1.36-.48.3-.26.54-.59.69-.91l.96.53ZM90.88,9.29c-.19-1.04-.98-1.73-1.95-1.73s-1.78.74-1.95,1.73h3.91Z"/><path class="cls-1" d="M97.55,6.69h1.15v.77c.21-.27.8-.93,1.9-.93.79,0,1.5.32,1.91.91.34.5.38,1.04.38,1.78v4.11h-1.15v-4.08c0-.4-.03-.86-.3-1.22-.22-.29-.58-.48-1.09-.48-.4,0-.83.11-1.17.51-.45.53-.48,1.31-.48,1.79v3.47h-1.15v-6.64Z"/><path class="cls-1" d="M110.96,11.64c-.19.37-.48.77-.82,1.07-.61.54-1.36.82-2.21.82-1.6,0-3.28-1.01-3.28-3.47,0-1.99,1.22-3.52,3.22-3.52,1.3,0,2.11.64,2.51,1.22.42.59.66,1.62.62,2.5h-5.17c.02,1.38.96,2.26,2.11,2.26.54,0,.98-.16,1.36-.48.3-.26.54-.59.69-.91l.96.53ZM109.82,9.29c-.19-1.04-.98-1.73-1.95-1.73s-1.78.74-1.95,1.73h3.91Z"/><path class="cls-1" d="M113.08,6.69l1.99,4.48,1.98-4.48h1.28l-3.26,7.08-3.27-7.08h1.28Z"/><path class="cls-1" d="M125.44,11.64c-.19.37-.48.77-.82,1.07-.61.54-1.36.82-2.21.82-1.6,0-3.28-1.01-3.28-3.47,0-1.99,1.22-3.52,3.22-3.52,1.3,0,2.11.64,2.51,1.22.42.59.66,1.62.62,2.5h-5.17c.02,1.38.96,2.26,2.11,2.26.54,0,.98-.16,1.36-.48.3-.26.54-.59.69-.91l.96.53ZM124.3,9.29c-.19-1.04-.98-1.73-1.95-1.73s-1.78.74-1.95,1.73h3.91Z"/><path class="cls-1" d="M127.25,6.69h1.15v.72c.11-.18.61-.88,1.5-.88.35,0,.74.13,1.02.27l-.54,1.04c-.26-.18-.5-.22-.67-.22-.46,0-.75.19-.93.42-.19.26-.38.7-.38,1.79v3.51h-1.15v-6.64Z"/><path class="cls-1" d="M140.8,6.69h1.15v6.64h-1.15v-.93c-.38.5-1.1,1.12-2.27,1.12-1.68,0-3.23-1.18-3.23-3.52s1.54-3.47,3.23-3.47c1.28,0,1.97.7,2.27,1.1v-.94ZM136.48,10.01c0,1.42.8,2.5,2.18,2.5s2.21-1.17,2.21-2.48c0-1.71-1.18-2.46-2.21-2.46-1.14,0-2.18.83-2.18,2.45Z"/><path class="cls-1" d="M144.12,6.69h1.15v.72c.11-.18.61-.88,1.5-.88.35,0,.74.13,1.02.27l-.54,1.04c-.26-.18-.5-.22-.67-.22-.46,0-.75.19-.93.42-.19.26-.38.7-.38,1.79v3.51h-1.15v-6.64Z"/><path class="cls-1" d="M150.01,13.34h-1.15V1.67h1.15v5.96c.78-.98,1.79-1.09,2.27-1.09,2.08,0,3.23,1.73,3.23,3.52s-1.17,3.47-3.19,3.47c-1.07,0-1.82-.48-2.32-1.12v.93ZM154.33,10.05c0-1.63-1.11-2.5-2.18-2.5s-2.21.88-2.21,2.48c0,1.36.87,2.46,2.23,2.46s2.16-1.12,2.16-2.45Z"/><path class="cls-1" d="M157.85,3.36c.45,0,.82.37.82.82s-.37.82-.82.82-.82-.37-.82-.82.37-.82.82-.82ZM158.43,6.69v6.64h-1.15v-6.64h1.15Z"/><path class="cls-1" d="M161.79,7.75v5.59h-1.15v-5.59h-.7v-1.06h.7v-2.4h1.15v2.4h1.15v1.06h-1.15Z"/><path class="cls-1" d="M164.03,6.69h1.15v.72c.11-.18.61-.88,1.5-.88.35,0,.74.13,1.02.27l-.54,1.04c-.26-.18-.5-.22-.67-.22-.46,0-.75.19-.93.42-.19.26-.38.7-.38,1.79v3.51h-1.15v-6.64Z"/><path class="cls-1" d="M173.52,6.69h1.15v6.64h-1.15v-.93c-.38.5-1.1,1.12-2.27,1.12-1.68,0-3.23-1.18-3.23-3.52s1.54-3.47,3.23-3.47c1.28,0,1.97.7,2.27,1.1v-.94ZM169.2,10.01c0,1.42.8,2.5,2.18,2.5s2.21-1.17,2.21-2.48c0-1.71-1.18-2.46-2.21-2.46-1.14,0-2.18.83-2.18,2.45Z"/><path class="cls-1" d="M176.84,6.69h1.15v.72c.11-.18.61-.88,1.5-.88.35,0,.74.13,1.02.27l-.54,1.04c-.26-.18-.5-.22-.67-.22-.46,0-.75.19-.93.42-.19.26-.38.7-.38,1.79v3.51h-1.15v-6.64Z"/><path class="cls-1" d="M184.17,12.71l-3.06-6.02h1.31l2.35,4.75,2.16-4.75h1.28l-4.88,10.32h-1.28l2.11-4.31Z"/><path class="cls-1" d="M189.82,11.77l1.06.38-1.62,3.62-.75-.3,1.31-3.7ZM190.17,6.53c.43,0,.8.37.8.8s-.37.8-.8.8-.8-.37-.8-.8.37-.8.8-.8Z"/><path class="cls-1" d="M1.09,20.87h1.15v5.79c.21-.27.8-.93,1.9-.93.78,0,1.5.32,1.91.91.34.5.38,1.04.38,1.78v4.11h-1.15v-4.08c0-.4-.03-.86-.3-1.22-.22-.29-.58-.48-1.09-.48-.4,0-.83.11-1.17.51-.45.53-.48,1.31-.48,1.79v3.47h-1.15v-11.67Z"/><path class="cls-1" d="M14.34,30.84c-.19.37-.48.77-.82,1.07-.61.54-1.36.82-2.21.82-1.6,0-3.28-1.01-3.28-3.47,0-1.99,1.22-3.52,3.22-3.52,1.3,0,2.11.64,2.51,1.22.42.59.66,1.62.62,2.5h-5.17c.02,1.38.96,2.26,2.11,2.26.54,0,.98-.16,1.36-.48.3-.26.54-.59.69-.91l.96.53ZM13.2,28.49c-.19-1.04-.98-1.73-1.95-1.73s-1.78.74-1.95,1.73h3.91Z"/><path class="cls-1" d="M24.96,20.87h1.15v11.67h-1.15v-.93c-.38.5-1.1,1.12-2.27,1.12-1.68,0-3.23-1.18-3.23-3.52s1.54-3.47,3.23-3.47c1.28,0,1.97.7,2.27,1.1v-5.97ZM20.64,29.21c0,1.42.8,2.5,2.18,2.5s2.21-1.17,2.21-2.48c0-1.71-1.18-2.46-2.21-2.46-1.14,0-2.18.83-2.18,2.45Z"/><path class="cls-1" d="M27.87,29.24c0-2.02,1.49-3.51,3.52-3.51s3.52,1.49,3.52,3.51-1.5,3.49-3.52,3.49-3.52-1.47-3.52-3.49ZM29.06,29.24c0,1.63,1.15,2.46,2.34,2.46s2.34-.85,2.34-2.46-1.12-2.48-2.34-2.48-2.34.86-2.34,2.48Z"/><path class="cls-1" d="M42.56,30.84c-.19.37-.48.77-.82,1.07-.61.54-1.36.82-2.21.82-1.6,0-3.28-1.01-3.28-3.47,0-1.99,1.22-3.52,3.22-3.52,1.3,0,2.11.64,2.51,1.22.42.59.66,1.62.62,2.5h-5.17c.02,1.38.96,2.26,2.11,2.26.54,0,.98-.16,1.36-.48.3-.26.54-.59.69-.91l.96.53ZM41.42,28.49c-.19-1.04-.98-1.73-1.95-1.73s-1.78.74-1.95,1.73h3.91Z"/><path class="cls-1" d="M47.1,27.43c-.16-.38-.5-.67-.93-.67s-.8.24-.8.75c0,.48.32.62,1.07.94.96.4,1.41.71,1.66,1.02.29.35.35.71.35,1.07,0,1.39-1.01,2.18-2.29,2.18-.27,0-1.76-.03-2.32-1.7l.99-.42c.13.35.51,1.09,1.34,1.09.75,0,1.09-.56,1.09-1.06,0-.62-.45-.83-1.07-1.1-.8-.35-1.31-.61-1.62-.98-.26-.32-.3-.64-.3-.98,0-1.17.82-1.86,1.94-1.86.35,0,1.3.06,1.83,1.2l-.94.5Z"/><path class="cls-1" d="M53.73,25.89h1.15v.77c.21-.27.8-.93,1.9-.93.78,0,1.5.32,1.9.91.34.5.38,1.04.38,1.78v4.11h-1.15v-4.08c0-.4-.03-.86-.3-1.22-.22-.29-.58-.48-1.09-.48-.4,0-.83.11-1.17.51-.45.53-.48,1.31-.48,1.79v3.47h-1.15v-6.64Z"/><path class="cls-1" d="M60.83,29.24c0-2.02,1.49-3.51,3.52-3.51s3.52,1.49,3.52,3.51-1.5,3.49-3.52,3.49-3.52-1.47-3.52-3.49ZM62.01,29.24c0,1.63,1.15,2.46,2.34,2.46s2.34-.85,2.34-2.46-1.12-2.48-2.34-2.48-2.34.86-2.34,2.48Z"/><path class="cls-1" d="M70.82,26.95v5.59h-1.15v-5.59h-.7v-1.06h.7v-2.4h1.15v2.4h1.15v1.06h-1.15Z"/><path class="cls-1" d="M79.52,27.43c-.16-.38-.5-.67-.93-.67s-.8.24-.8.75c0,.48.32.62,1.07.94.96.4,1.41.71,1.67,1.02.29.35.35.71.35,1.07,0,1.39-1.01,2.18-2.29,2.18-.27,0-1.76-.03-2.32-1.7l.99-.42c.13.35.51,1.09,1.34,1.09.75,0,1.09-.56,1.09-1.06,0-.62-.45-.83-1.07-1.1-.8-.35-1.31-.61-1.62-.98-.26-.32-.3-.64-.3-.98,0-1.17.82-1.86,1.94-1.86.35,0,1.3.06,1.83,1.2l-.95.5Z"/><path class="cls-1" d="M88.3,30.84c-.19.37-.48.77-.82,1.07-.61.54-1.36.82-2.21.82-1.6,0-3.28-1.01-3.28-3.47,0-1.99,1.22-3.52,3.22-3.52,1.3,0,2.11.64,2.51,1.22.42.59.66,1.62.62,2.5h-5.17c.02,1.38.96,2.26,2.11,2.26.54,0,.98-.16,1.36-.48.3-.26.54-.59.69-.91l.96.53ZM87.17,28.49c-.19-1.04-.98-1.73-1.95-1.73s-1.78.74-1.95,1.73h3.91Z"/><path class="cls-1" d="M96,30.84c-.19.37-.48.77-.82,1.07-.61.54-1.36.82-2.21.82-1.6,0-3.28-1.01-3.28-3.47,0-1.99,1.22-3.52,3.22-3.52,1.3,0,2.11.64,2.51,1.22.42.59.66,1.62.62,2.5h-5.17c.02,1.38.96,2.26,2.11,2.26.54,0,.98-.16,1.36-.48.3-.26.54-.59.69-.91l.96.53ZM94.86,28.49c-.19-1.04-.98-1.73-1.95-1.73s-1.78.74-1.95,1.73h3.91Z"/><path class="cls-1" d="M98.96,20.87v7.49l2.43-2.46h1.5l-2.85,2.85,3.36,3.79h-1.5l-2.66-3.03-.29.29v2.74h-1.15v-11.67h1.15Z"/><path class="cls-1" d="M108.29,25.89h1.15v.77c.21-.27.8-.93,1.91-.93.78,0,1.5.32,1.9.91.34.5.38,1.04.38,1.78v4.11h-1.15v-4.08c0-.4-.03-.86-.3-1.22-.22-.29-.58-.48-1.09-.48-.4,0-.83.11-1.17.51-.45.53-.48,1.31-.48,1.79v3.47h-1.15v-6.64Z"/><path class="cls-1" d="M115.39,29.24c0-2.02,1.49-3.51,3.52-3.51s3.52,1.49,3.52,3.51-1.5,3.49-3.52,3.49-3.52-1.47-3.52-3.49ZM116.57,29.24c0,1.63,1.15,2.46,2.34,2.46s2.34-.85,2.34-2.46-1.12-2.48-2.34-2.48-2.34.86-2.34,2.48Z"/><path class="cls-1" d="M124.51,25.89l1.98,4.48,1.99-4.48h1.28l-3.27,7.08-3.26-7.08h1.28Z"/><path class="cls-1" d="M136.86,30.84c-.19.37-.48.77-.82,1.07-.61.54-1.36.82-2.21.82-1.6,0-3.28-1.01-3.28-3.47,0-1.99,1.22-3.52,3.22-3.52,1.3,0,2.11.64,2.51,1.22.42.59.66,1.62.62,2.5h-5.17c.02,1.38.96,2.26,2.11,2.26.54,0,.98-.16,1.36-.48.3-.26.54-.59.69-.91l.96.53ZM135.73,28.49c-.19-1.04-.98-1.73-1.95-1.73s-1.78.74-1.95,1.73h3.91Z"/><path class="cls-1" d="M139.82,20.87v11.67h-1.15v-11.67h1.15Z"/><path class="cls-1" d="M143.18,26.95v5.59h-1.15v-5.59h-.7v-1.06h.7v-2.4h1.15v2.4h1.15v1.06h-1.15Z"/><path class="cls-1" d="M148,31.91l-3.06-6.02h1.31l2.35,4.75,2.16-4.75h1.28l-4.88,10.32h-1.28l2.11-4.31Z"/><path class="cls-1" d="M156.57,29.24c0-2.02,1.49-3.51,3.52-3.51s3.52,1.49,3.52,3.51-1.5,3.49-3.52,3.49-3.52-1.47-3.52-3.49ZM157.76,29.24c0,1.63,1.15,2.46,2.34,2.46s2.34-.85,2.34-2.46-1.12-2.48-2.34-2.48-2.34.86-2.34,2.48Z"/><path class="cls-1" d="M165.37,25.89h1.15v.72c.11-.18.61-.88,1.5-.88.35,0,.74.13,1.03.27l-.54,1.04c-.26-.18-.5-.22-.67-.22-.46,0-.75.19-.93.42-.19.26-.38.7-.38,1.79v3.51h-1.15v-6.64Z"/><path class="cls-1" d="M3.83,46.63c-.16-.38-.5-.67-.93-.67s-.8.24-.8.75c0,.48.32.62,1.07.94.96.4,1.41.71,1.67,1.02.29.35.35.71.35,1.07,0,1.39-1.01,2.18-2.29,2.18-.27,0-1.76-.03-2.32-1.7l.99-.42c.13.35.51,1.09,1.34,1.09.75,0,1.09-.56,1.09-1.06,0-.62-.45-.83-1.07-1.1-.8-.35-1.31-.61-1.62-.98-.26-.32-.3-.64-.3-.98,0-1.17.82-1.86,1.94-1.86.35,0,1.3.06,1.83,1.2l-.95.5Z"/><path class="cls-1" d="M7.87,48.97c0,.46,0,1.01.32,1.42.18.22.53.51,1.17.51s.99-.29,1.17-.51c.32-.42.32-.96.32-1.42v-3.87h1.15v4c0,.82-.08,1.42-.61,2-.59.62-1.38.83-2.03.83s-1.44-.21-2.03-.83c-.53-.58-.61-1.18-.61-2v-4h1.15v3.87Z"/><path class="cls-1" d="M15.33,55.42h-1.15v-10.32h1.15v.93c.78-.98,1.79-1.09,2.27-1.09,2.08,0,3.23,1.73,3.23,3.52s-1.17,3.47-3.19,3.47c-1.07,0-1.82-.48-2.32-1.12v4.61ZM19.65,48.45c0-1.63-1.1-2.5-2.18-2.5s-2.21.88-2.21,2.48c0,1.36.86,2.46,2.22,2.46s2.16-1.12,2.16-2.45Z"/><path class="cls-1" d="M28.48,50.04c-.19.37-.48.77-.82,1.07-.61.54-1.36.82-2.21.82-1.6,0-3.28-1.01-3.28-3.47,0-1.99,1.22-3.52,3.22-3.52,1.3,0,2.11.64,2.51,1.22.42.59.66,1.62.62,2.5h-5.17c.02,1.38.96,2.26,2.11,2.26.54,0,.98-.16,1.36-.48.3-.26.54-.59.69-.91l.96.53ZM27.35,47.69c-.19-1.04-.98-1.73-1.95-1.73s-1.78.74-1.95,1.73h3.91Z"/><path class="cls-1" d="M30.29,45.09h1.15v.72c.11-.18.61-.88,1.5-.88.35,0,.74.13,1.03.27l-.54,1.04c-.26-.18-.5-.22-.67-.22-.46,0-.75.19-.93.42-.19.26-.38.7-.38,1.79v3.51h-1.15v-6.64Z"/><path class="cls-1" d="M36.21,46.15v5.59h-1.15v-5.59h-.64v-1.06h.64v-2.5c0-.72.05-1.26.38-1.75.3-.45.94-.98,2.19-.98.56,0,1.63.1,2.19.98.37.59.38,1.23.38,1.75v.27h-1.15v-.27c0-.26-.02-.72-.22-1.04-.19-.29-.56-.51-1.2-.51s-1.01.22-1.2.51c-.21.3-.22.7-.22,1.04v2.5h1.63v1.06h-1.63ZM40.21,45.09v6.64h-1.15v-6.64h1.15Z"/><path class="cls-1" d="M47.58,46.95c-.61-.77-1.49-.99-2.08-.99-1.23,0-2.35.86-2.35,2.48s1.15,2.46,2.34,2.46c.69,0,1.54-.3,2.15-1.04v1.38c-.72.53-1.49.69-2.11.69-2.06,0-3.55-1.47-3.55-3.47s1.5-3.52,3.55-3.52c1.06,0,1.75.42,2.06.64v1.38Z"/><path class="cls-1" d="M49.97,41.76c.45,0,.82.37.82.82s-.37.82-.82.82-.82-.37-.82-.82.37-.82.82-.82ZM50.54,45.09v6.64h-1.15v-6.64h1.15Z"/><path class="cls-1" d="M57.81,45.09h1.15v6.64h-1.15v-.93c-.38.5-1.11,1.12-2.27,1.12-1.68,0-3.23-1.18-3.23-3.52s1.54-3.47,3.23-3.47c1.28,0,1.97.7,2.27,1.1v-.94ZM53.49,48.41c0,1.42.8,2.5,2.18,2.5s2.21-1.17,2.21-2.48c0-1.71-1.18-2.46-2.21-2.46-1.14,0-2.18.83-2.18,2.45Z"/><path class="cls-1" d="M62.29,40.07v11.67h-1.15v-11.67h1.15Z"/><path class="cls-1" d="M74.08,50.04c-.19.37-.48.77-.82,1.07-.61.54-1.36.82-2.21.82-1.6,0-3.28-1.01-3.28-3.47,0-1.99,1.22-3.52,3.22-3.52,1.3,0,2.11.64,2.51,1.22.42.59.66,1.62.62,2.5h-5.17c.02,1.38.96,2.26,2.11,2.26.54,0,.98-.16,1.36-.48.3-.26.54-.59.69-.91l.96.53ZM72.94,47.69c-.19-1.04-.98-1.73-1.95-1.73s-1.78.74-1.95,1.73h3.91Z"/><path class="cls-1" d="M77.07,46.15v5.59h-1.15v-5.59h-.64v-1.06h.64v-2.9c0-.61.05-1.38.64-1.87.32-.27.8-.43,1.33-.43.42,0,.69.1.82.14v1.12c-.24-.1-.51-.14-.75-.14-.26,0-.56.06-.74.35-.14.24-.14.61-.14.96v2.77h1.63v1.06h-1.63Z"/><path class="cls-1" d="M81.23,46.15v5.59h-1.15v-5.59h-.64v-1.06h.64v-2.9c0-.61.05-1.38.64-1.87.32-.27.8-.43,1.33-.43.42,0,.69.1.82.14v1.12c-.24-.1-.51-.14-.75-.14-.26,0-.56.06-.74.35-.14.24-.14.61-.14.96v2.77h1.63v1.06h-1.63Z"/><path class="cls-1" d="M89.78,50.04c-.19.37-.48.77-.82,1.07-.61.54-1.36.82-2.21.82-1.6,0-3.28-1.01-3.28-3.47,0-1.99,1.22-3.52,3.22-3.52,1.3,0,2.11.64,2.51,1.22.42.59.66,1.62.62,2.5h-5.17c.02,1.38.96,2.26,2.11,2.26.54,0,.98-.16,1.36-.48.3-.26.54-.59.69-.91l.96.53ZM88.64,47.69c-.19-1.04-.98-1.73-1.95-1.73s-1.78.74-1.95,1.73h3.91Z"/><path class="cls-1" d="M96.78,46.95c-.61-.77-1.49-.99-2.08-.99-1.23,0-2.35.86-2.35,2.48s1.15,2.46,2.34,2.46c.69,0,1.54-.3,2.15-1.04v1.38c-.72.53-1.49.69-2.11.69-2.06,0-3.55-1.47-3.55-3.47s1.5-3.52,3.55-3.52c1.06,0,1.75.42,2.07.64v1.38Z"/><path class="cls-1" d="M99.77,46.15v5.59h-1.15v-5.59h-.7v-1.06h.7v-2.4h1.15v2.4h1.15v1.06h-1.15Z"/><path class="cls-1" d="M102.75,50.29c.43,0,.8.37.8.8s-.37.8-.8.8-.8-.37-.8-.8.37-.8.8-.8Z"/></g></svg>