<?xml version="1.0" encoding="UTF-8"?><svg id="Layer_2" xmlns="http://www.w3.org/2000/svg" viewBox="0 0 298.6 148.3"><defs><style>.cls-1{letter-spacing:-.02em;}.cls-2{letter-spacing:-.02em;}.cls-3{letter-spacing:0em;}.cls-4{letter-spacing:0em;}.cls-5{fill:#fff;font-family:FuturaPT-Book, 'Futura PT';font-size:16px;}.cls-6{letter-spacing:.03em;}</style></defs><g id="Layer_1-2"><text class="cls-5" transform="translate(0 13.34)"><tspan x="0" y="0">eve</tspan><tspan class="cls-6" x="22.18" y="0">r</tspan><tspan x="27.41" y="0">y case, t</tspan><tspan class="cls-3" x="78.05" y="0">h</tspan><tspan x="85.41" y="0">e buil</tspan><tspan class="cls-3" x="119.36" y="0">d</tspan><tspan x="127.61" y="0">ing is painstakingly </tspan><tspan x="0" y="19.2">p</tspan><tspan class="cls-1" x="8.42" y="19.2">r</tspan><tspan x="12.77" y="19.2">og</tspan><tspan class="cls-2" x="29.57" y="19.2">r</tspan><tspan x="33.97" y="19.2">ammed, and t</tspan><tspan class="cls-3" x="119.29" y="19.2">h</tspan><tspan x="126.65" y="19.2">e p</tspan><tspan class="cls-1" x="146.49" y="19.2">r</tspan><tspan x="150.84" y="19.2">og</tspan><tspan class="cls-2" x="167.64" y="19.2">r</tspan><tspan x="172.04" y="19.2">am is t</tspan><tspan class="cls-3" x="211.26" y="19.2">h</tspan><tspan x="218.62" y="19.2">e gene</tspan><tspan class="cls-2" x="261.37" y="19.2">r</tspan><tspan x="265.77" y="19.2">ato</tspan><tspan class="cls-4" x="285.99" y="19.2">r</tspan><tspan x="290.71" y="19.2">, </tspan><tspan x="0" y="38.4">or at least, t</tspan><tspan class="cls-3" x="71.71" y="38.4">h</tspan><tspan x="79.07" y="38.4">e co-gene</tspan><tspan class="cls-2" x="142.33" y="38.4">r</tspan><tspan x="146.73" y="38.4">ato</tspan><tspan class="cls-4" x="166.95" y="38.4">r</tspan><tspan x="171.67" y="38.4">, of t</tspan><tspan class="cls-3" x="198.43" y="38.4">h</tspan><tspan x="205.79" y="38.4">e solution.</tspan></text></g></svg>