<?xml version="1.0" encoding="UTF-8"?><svg id="Layer_2" xmlns="http://www.w3.org/2000/svg" viewBox="0 0 359.44 405.48"><defs><style>.cls-1{fill:#c5c5c4;font-family:FuturaPT-Book, 'Futura PT';font-size:18px;}.cls-2{letter-spacing:-.02em;}.cls-3{letter-spacing:-.02em;}.cls-4{letter-spacing:-.01em;}.cls-5{letter-spacing:0em;}.cls-6{letter-spacing:.02em;}.cls-7{letter-spacing:.03em;}</style></defs><g id="Layer_1-2"><text class="cls-1" transform="translate(108.31 15)"><tspan x="0" y="0">or </tspan><tspan class="cls-3" x="18.95" y="0">Fr</tspan><tspan x="31.34" y="0">ank Geh</tspan><tspan class="cls-7" x="91.82" y="0">r</tspan><tspan class="cls-3" x="97.7" y="0">y</tspan><tspan x="105.6" y="0">, li</tspan><tspan class="cls-5" x="121.39" y="0">k</tspan><tspan x="128.8" y="0">e most a</tspan><tspan class="cls-2" x="187.27" y="0">r</tspan><tspan x="192.16" y="0">chitects, </tspan><tspan x="-5.82" y="21.6">t</tspan><tspan class="cls-5" x="-1.96" y="21.6">h</tspan><tspan x="6.32" y="21.6">e a</tspan><tspan class="cls-6" x="28.64" y="21.6">r</tspan><tspan x="34.32" y="21.6">t of buil</tspan><tspan class="cls-5" x="85.66" y="21.6">d</tspan><tspan x="94.94" y="21.6">ing is a serious and </tspan><tspan x="-11.63" y="43.2">sea</tspan><tspan class="cls-2" x="12.83" y="43.2">r</tspan><tspan x="17.73" y="43.2">ching business. He pu</tspan><tspan class="cls-4" x="168.58" y="43.2">r</tspan><tspan x="173.71" y="43.2">sues his </tspan><tspan x="-17.45" y="64.8">muse with love and frust</tspan><tspan class="cls-3" x="148.45" y="64.8">r</tspan><tspan x="153.4" y="64.8">ation, with a </tspan><tspan x="-23.26" y="86.4">sense of </tspan><tspan class="cls-5" x="37.32" y="86.4">d</tspan><tspan x="46.61" y="86.4">iscove</tspan><tspan class="cls-7" x="90.3" y="86.4">r</tspan><tspan x="96.18" y="86.4">y in each </tspan><tspan x="-29.08" y="108">unde</tspan><tspan class="cls-6" x="5.9" y="108">r</tspan><tspan x="11.58" y="108">taking, and an exceptional</tspan><tspan x="-34.89" y="129.6">set of skills.</tspan></text></g></svg>