<?xml version="1.0" encoding="UTF-8"?><svg id="Layer_2" xmlns="http://www.w3.org/2000/svg" viewBox="0 0 314.99 150.88"><defs><style>.cls-1{fill:#ccc;}</style></defs><g id="Layer_1-2"><path class="cls-1" d="M7.47,1.67h1.15v5.79c.21-.27.8-.93,1.9-.93.78,0,1.5.32,1.9.91.34.5.38,1.04.38,1.78v4.11h-1.15v-4.08c0-.4-.03-.86-.3-1.22-.22-.29-.58-.48-1.09-.48-.4,0-.83.11-1.17.51-.45.53-.48,1.31-.48,1.79v3.47h-1.15V1.67Z"/><path class="cls-1" d="M20.08,6.69h1.15v6.64h-1.15v-.93c-.38.5-1.1,1.12-2.27,1.12-1.68,0-3.23-1.18-3.23-3.52s1.54-3.47,3.23-3.47c1.28,0,1.97.7,2.27,1.1v-.94ZM15.76,10.01c0,1.42.8,2.5,2.18,2.5s2.21-1.17,2.21-2.48c0-1.71-1.18-2.46-2.21-2.46-1.14,0-2.18.83-2.18,2.45Z"/><path class="cls-1" d="M24.59,7.75v5.59h-1.15v-5.59h-.7v-1.06h.7v-2.4h1.15v2.4h1.15v1.06h-1.15Z"/><path class="cls-1" d="M30.56,6.69h1.15v.7c.37-.54.94-.86,1.65-.86,1.2,0,1.68.85,1.81,1.07.64-1.01,1.55-1.07,2-1.07,1.97,0,2.16,1.65,2.16,2.59v4.21h-1.15v-4.03c0-.75-.1-1.75-1.18-1.75-1.33,0-1.47,1.28-1.47,2.08v3.7h-1.15v-3.94c0-.46.02-1.84-1.2-1.84-1.31,0-1.46,1.36-1.46,2.16v3.62h-1.15v-6.64Z"/><path class="cls-1" d="M46.61,6.69h1.15v6.64h-1.15v-.93c-.38.5-1.1,1.12-2.27,1.12-1.68,0-3.23-1.18-3.23-3.52s1.54-3.47,3.23-3.47c1.28,0,1.97.7,2.27,1.1v-.94ZM42.29,10.01c0,1.42.8,2.5,2.18,2.5s2.21-1.17,2.21-2.48c0-1.71-1.18-2.46-2.21-2.46-1.14,0-2.18.83-2.18,2.45Z"/><path class="cls-1" d="M52.03,12.71l-3.06-6.02h1.31l2.35,4.75,2.16-4.75h1.28l-4.88,10.32h-1.28l2.11-4.31Z"/><path class="cls-1" d="M62.18,1.67v11.67h-1.15V1.67h1.15Z"/><path class="cls-1" d="M63.94,10.04c0-2.02,1.49-3.51,3.52-3.51s3.52,1.49,3.52,3.51-1.5,3.49-3.52,3.49-3.52-1.47-3.52-3.49ZM65.12,10.04c0,1.63,1.15,2.46,2.34,2.46s2.34-.85,2.34-2.46-1.12-2.48-2.34-2.48-2.34.86-2.34,2.48Z"/><path class="cls-1" d="M72.32,10.04c0-2.02,1.49-3.51,3.52-3.51s3.52,1.49,3.52,3.51-1.5,3.49-3.52,3.49-3.52-1.47-3.52-3.49ZM73.5,10.04c0,1.63,1.15,2.46,2.34,2.46s2.34-.85,2.34-2.46-1.12-2.48-2.34-2.48-2.34.86-2.34,2.48Z"/><path class="cls-1" d="M82.27,1.67v7.49l2.43-2.46h1.5l-2.85,2.85,3.36,3.79h-1.5l-2.66-3.03-.29.29v2.74h-1.15V1.67h1.15Z"/><path class="cls-1" d="M92.75,1.67v11.67h-1.15V1.67h1.15Z"/><path class="cls-1" d="M95.5,3.36c.45,0,.82.37.82.82s-.37.82-.82.82-.82-.37-.82-.82.37-.82.82-.82ZM96.08,6.69v6.64h-1.15v-6.64h1.15Z"/><path class="cls-1" d="M99.41,1.67v7.49l2.43-2.46h1.5l-2.85,2.85,3.36,3.79h-1.5l-2.66-3.03-.29.29v2.74h-1.15V1.67h1.15Z"/><path class="cls-1" d="M110.74,11.64c-.19.37-.48.77-.82,1.07-.61.54-1.36.82-2.21.82-1.6,0-3.28-1.01-3.28-3.47,0-1.99,1.22-3.52,3.22-3.52,1.3,0,2.11.64,2.51,1.22.42.59.66,1.62.62,2.5h-5.17c.02,1.38.96,2.26,2.11,2.26.54,0,.98-.16,1.36-.48.3-.26.54-.59.69-.91l.96.53ZM109.6,9.29c-.19-1.04-.98-1.73-1.95-1.73s-1.78.74-1.95,1.73h3.91Z"/><path class="cls-1" d="M121.36,6.69h1.15v6.64h-1.15v-.93c-.38.5-1.1,1.12-2.27,1.12-1.68,0-3.23-1.18-3.23-3.52s1.54-3.47,3.23-3.47c1.28,0,1.97.7,2.27,1.1v-.94ZM117.04,10.01c0,1.42.8,2.5,2.18,2.5s2.21-1.17,2.21-2.48c0-1.71-1.18-2.46-2.21-2.46-1.14,0-2.18.83-2.18,2.45Z"/><path class="cls-1" d="M124.69,6.69h1.15v.72c.11-.18.61-.88,1.5-.88.35,0,.74.13,1.02.27l-.54,1.04c-.26-.18-.5-.22-.67-.22-.46,0-.75.19-.93.42-.19.26-.38.7-.38,1.79v3.51h-1.15v-6.64Z"/><path class="cls-1" d="M130.57,13.34h-1.15V1.67h1.15v5.96c.78-.98,1.79-1.09,2.27-1.09,2.08,0,3.23,1.73,3.23,3.52s-1.17,3.47-3.19,3.47c-1.07,0-1.82-.48-2.32-1.12v.93ZM134.9,10.05c0-1.63-1.1-2.5-2.18-2.5s-2.21.88-2.21,2.48c0,1.36.86,2.46,2.23,2.46s2.16-1.12,2.16-2.45Z"/><path class="cls-1" d="M138.41,3.36c.45,0,.82.37.82.82s-.37.82-.82.82-.82-.37-.82-.82.37-.82.82-.82ZM138.99,6.69v6.64h-1.15v-6.64h1.15Z"/><path class="cls-1" d="M142.35,7.75v5.59h-1.15v-5.59h-.7v-1.06h.7v-2.4h1.15v2.4h1.15v1.06h-1.15Z"/><path class="cls-1" d="M144.59,6.69h1.15v.72c.11-.18.61-.88,1.5-.88.35,0,.74.13,1.02.27l-.54,1.04c-.26-.18-.5-.22-.67-.22-.46,0-.75.19-.93.42-.19.26-.38.7-.38,1.79v3.51h-1.15v-6.64Z"/><path class="cls-1" d="M154.08,6.69h1.15v6.64h-1.15v-.93c-.38.5-1.1,1.12-2.27,1.12-1.68,0-3.23-1.18-3.23-3.52s1.54-3.47,3.23-3.47c1.28,0,1.97.7,2.27,1.1v-.94ZM149.76,10.01c0,1.42.8,2.5,2.18,2.5s2.21-1.17,2.21-2.48c0-1.71-1.18-2.46-2.21-2.46-1.14,0-2.18.83-2.18,2.45Z"/><path class="cls-1" d="M157.41,6.69h1.15v.72c.11-.18.61-.88,1.5-.88.35,0,.74.13,1.02.27l-.54,1.04c-.26-.18-.5-.22-.67-.22-.46,0-.75.19-.93.42-.19.26-.38.7-.38,1.79v3.51h-1.15v-6.64Z"/><path class="cls-1" d="M164.73,12.71l-3.06-6.02h1.31l2.35,4.75,2.16-4.75h1.28l-4.88,10.32h-1.28l2.11-4.31Z"/><path class="cls-1" d="M170.05,11.77l1.06.38-1.62,3.62-.75-.3,1.31-3.7Z"/><path class="cls-1" d="M182.13,6.69h1.15v6.64h-1.15v-.93c-.38.5-1.1,1.12-2.27,1.12-1.68,0-3.23-1.18-3.23-3.52s1.54-3.47,3.23-3.47c1.28,0,1.97.7,2.27,1.1v-.94ZM177.81,10.01c0,1.42.8,2.5,2.18,2.5s2.21-1.17,2.21-2.48c0-1.71-1.18-2.46-2.21-2.46-1.14,0-2.18.83-2.18,2.45Z"/><path class="cls-1" d="M185.45,6.69h1.15v.77c.21-.27.8-.93,1.9-.93.78,0,1.5.32,1.9.91.34.5.38,1.04.38,1.78v4.11h-1.15v-4.08c0-.4-.03-.86-.3-1.22-.22-.29-.58-.48-1.09-.48-.4,0-.83.11-1.17.51-.45.53-.48,1.31-.48,1.79v3.47h-1.15v-6.64Z"/><path class="cls-1" d="M198.06,1.67h1.15v11.67h-1.15v-.93c-.38.5-1.1,1.12-2.27,1.12-1.68,0-3.23-1.18-3.23-3.52s1.54-3.47,3.23-3.47c1.28,0,1.97.7,2.27,1.1V1.67ZM193.74,10.01c0,1.42.8,2.5,2.18,2.5s2.21-1.17,2.21-2.48c0-1.71-1.18-2.46-2.21-2.46-1.14,0-2.18.83-2.18,2.45Z"/><path class="cls-1" d="M206.3,7.75v5.59h-1.15v-5.59h-.7v-1.06h.7v-2.4h1.15v2.4h1.15v1.06h-1.15Z"/><path class="cls-1" d="M208.12,10.04c0-2.02,1.49-3.51,3.52-3.51s3.52,1.49,3.52,3.51-1.5,3.49-3.52,3.49-3.52-1.47-3.52-3.49ZM209.31,10.04c0,1.63,1.15,2.46,2.34,2.46s2.34-.85,2.34-2.46-1.12-2.48-2.34-2.48-2.34.86-2.34,2.48Z"/><path class="cls-1" d="M223.39,8.23c-.16-.38-.5-.67-.93-.67s-.8.24-.8.75c0,.48.32.62,1.07.94.96.4,1.41.71,1.66,1.02.29.35.35.71.35,1.07,0,1.39-1.01,2.18-2.29,2.18-.27,0-1.76-.03-2.32-1.7l.99-.42c.13.35.51,1.09,1.34,1.09.75,0,1.09-.56,1.09-1.06,0-.62-.45-.83-1.07-1.1-.8-.35-1.31-.61-1.62-.98-.26-.32-.3-.64-.3-.98,0-1.17.82-1.86,1.94-1.86.35,0,1.3.06,1.82,1.2l-.94.5Z"/><path class="cls-1" d="M225.87,10.04c0-2.02,1.49-3.51,3.52-3.51s3.52,1.49,3.52,3.51-1.5,3.49-3.52,3.49-3.52-1.47-3.52-3.49ZM227.05,10.04c0,1.63,1.15,2.46,2.34,2.46s2.34-.85,2.34-2.46-1.12-2.48-2.34-2.48-2.34.86-2.34,2.48Z"/><path class="cls-1" d="M234.67,6.69h1.15v.7c.37-.54.94-.86,1.65-.86,1.2,0,1.68.85,1.81,1.07.64-1.01,1.55-1.07,2-1.07,1.97,0,2.16,1.65,2.16,2.59v4.21h-1.15v-4.03c0-.75-.1-1.75-1.18-1.75-1.33,0-1.47,1.28-1.47,2.08v3.7h-1.15v-3.94c0-.46.02-1.84-1.2-1.84-1.31,0-1.46,1.36-1.46,2.16v3.62h-1.15v-6.64Z"/><path class="cls-1" d="M251.52,11.64c-.19.37-.48.77-.82,1.07-.61.54-1.36.82-2.21.82-1.6,0-3.28-1.01-3.28-3.47,0-1.99,1.22-3.52,3.22-3.52,1.3,0,2.11.64,2.51,1.22.42.59.66,1.62.62,2.5h-5.17c.02,1.38.96,2.26,2.11,2.26.54,0,.98-.16,1.36-.48.3-.26.54-.59.69-.91l.96.53ZM250.38,9.29c-.19-1.04-.98-1.73-1.95-1.73s-1.78.74-1.95,1.73h3.91Z"/><path class="cls-1" d="M253.71,11.77l1.06.38-1.62,3.62-.75-.3,1.31-3.7Z"/><path class="cls-1" d="M260.28,10.04c0-2.02,1.49-3.51,3.52-3.51s3.52,1.49,3.52,3.51-1.5,3.49-3.52,3.49-3.52-1.47-3.52-3.49ZM261.47,10.04c0,1.63,1.15,2.46,2.34,2.46s2.34-.85,2.34-2.46-1.12-2.48-2.34-2.48-2.34.86-2.34,2.48Z"/><path class="cls-1" d="M270.27,7.75v5.59h-1.15v-5.59h-.64v-1.06h.64v-2.9c0-.61.05-1.38.64-1.87.32-.27.8-.43,1.33-.43.42,0,.69.1.82.14v1.12c-.24-.1-.51-.14-.75-.14-.26,0-.56.06-.74.35-.14.24-.14.61-.14.96v2.77h1.63v1.06h-1.63Z"/><path class="cls-1" d="M274.43,7.75v5.59h-1.15v-5.59h-.64v-1.06h.64v-2.9c0-.61.05-1.38.64-1.87.32-.27.8-.43,1.33-.43.42,0,.69.1.82.14v1.12c-.24-.1-.51-.14-.75-.14-.26,0-.56.06-.74.35-.14.24-.14.61-.14.96v2.77h1.63v1.06h-1.63Z"/><path class="cls-1" d="M276.79,9.33h3.52v1.18h-3.52v-1.18Z"/><path class="cls-1" d="M283.35,17.02h-1.15V6.69h1.15v.93c.78-.98,1.79-1.09,2.27-1.09,2.08,0,3.23,1.73,3.23,3.52s-1.17,3.47-3.19,3.47c-1.07,0-1.82-.48-2.32-1.12v4.61ZM287.68,10.05c0-1.63-1.1-2.5-2.18-2.5s-2.21.88-2.21,2.48c0,1.36.86,2.46,2.23,2.46s2.16-1.12,2.16-2.45Z"/><path class="cls-1" d="M291.77,10.57c0,.46,0,1.01.32,1.42.18.22.53.51,1.17.51s.99-.29,1.17-.51c.32-.42.32-.96.32-1.42v-3.87h1.15v4c0,.82-.08,1.42-.61,2-.59.62-1.38.83-2.03.83s-1.44-.21-2.03-.83c-.53-.58-.61-1.18-.61-2v-4h1.15v3.87Z"/><path class="cls-1" d="M299.26,7.75v5.59h-1.15v-5.59h-.7v-1.06h.7v-2.4h1.15v2.4h1.15v1.06h-1.15Z"/><path class="cls-1" d="M301.21,9.33h3.52v1.18h-3.52v-1.18Z"/><path class="cls-1" d="M19.17,26.95v5.59h-1.15v-5.59h-.7v-1.06h.7v-2.4h1.15v2.4h1.15v1.06h-1.15Z"/><path class="cls-1" d="M21.99,22.56c.45,0,.82.37.82.82s-.37.82-.82.82-.82-.37-.82-.82.37-.82.82-.82ZM22.56,25.89v6.64h-1.15v-6.64h1.15Z"/><path class="cls-1" d="M24.74,25.89h1.15v.77c.21-.27.8-.93,1.9-.93.78,0,1.5.32,1.9.91.34.5.38,1.04.38,1.78v4.11h-1.15v-4.08c0-.4-.03-.86-.3-1.22-.22-.29-.58-.48-1.09-.48-.4,0-.83.11-1.17.51-.45.53-.48,1.31-.48,1.79v3.47h-1.15v-6.64Z"/><path class="cls-1" d="M37.35,25.89h1.15v6.48c0,.72,0,1.75-.64,2.61-.5.67-1.41,1.23-2.66,1.23-1.14,0-1.92-.45-2.37-.9s-.86-1.17-.86-2.14h1.14c0,.56.22,1.06.51,1.38.48.53,1.09.64,1.6.64.82,0,1.38-.29,1.76-.93.34-.54.37-1.14.37-1.7v-.96c-.38.5-1.1,1.12-2.27,1.12-.98,0-1.76-.38-2.27-.9-.45-.45-.96-1.28-.96-2.62s.48-2.1.96-2.58c.56-.54,1.38-.9,2.27-.9.98,0,1.74.42,2.27,1.1v-.94ZM33.7,27.38c-.56.58-.67,1.28-.67,1.83,0,.58.11,1.36.75,1.95.37.34.82.54,1.42.54s1.09-.19,1.46-.56c.45-.43.75-1.14.75-1.92s-.29-1.47-.7-1.87c-.37-.37-.91-.59-1.5-.59-.7,0-1.18.3-1.5.62Z"/><path class="cls-1" d="M41.06,30.97l1.06.38-1.62,3.62-.75-.3,1.31-3.7Z"/><path class="cls-1" d="M53.14,25.89h1.15v6.64h-1.15v-.93c-.38.5-1.1,1.12-2.27,1.12-1.68,0-3.23-1.18-3.23-3.52s1.54-3.47,3.23-3.47c1.28,0,1.97.7,2.27,1.1v-.94ZM48.82,29.21c0,1.42.8,2.5,2.18,2.5s2.21-1.17,2.21-2.48c0-1.71-1.18-2.46-2.21-2.46-1.14,0-2.18.83-2.18,2.45Z"/><path class="cls-1" d="M57.62,32.54h-1.15v-11.67h1.15v5.96c.78-.98,1.79-1.09,2.27-1.09,2.08,0,3.23,1.73,3.23,3.52s-1.17,3.47-3.19,3.47c-1.07,0-1.82-.48-2.32-1.12v.93ZM61.94,29.25c0-1.63-1.1-2.5-2.18-2.5s-2.21.88-2.21,2.48c0,1.36.86,2.46,2.23,2.46s2.16-1.12,2.16-2.45Z"/><path class="cls-1" d="M67.62,27.43c-.16-.38-.5-.67-.93-.67s-.8.24-.8.75c0,.48.32.62,1.07.94.96.4,1.41.71,1.66,1.02.29.35.35.71.35,1.07,0,1.39-1.01,2.18-2.29,2.18-.27,0-1.76-.03-2.32-1.7l.99-.42c.13.35.51,1.09,1.34,1.09.75,0,1.09-.56,1.09-1.06,0-.62-.45-.83-1.07-1.1-.8-.35-1.31-.61-1.62-.98-.26-.32-.3-.64-.3-.98,0-1.17.82-1.86,1.94-1.86.35,0,1.3.06,1.82,1.2l-.94.5Z"/><path class="cls-1" d="M71.7,26.95v5.59h-1.15v-5.59h-.7v-1.06h.7v-2.4h1.15v2.4h1.15v1.06h-1.15Z"/><path class="cls-1" d="M73.94,25.89h1.15v.72c.11-.18.61-.88,1.5-.88.35,0,.74.13,1.02.27l-.54,1.04c-.26-.18-.5-.22-.67-.22-.46,0-.75.19-.93.42-.19.26-.38.7-.38,1.79v3.51h-1.15v-6.64Z"/><path class="cls-1" d="M83.43,25.89h1.15v6.64h-1.15v-.93c-.38.5-1.1,1.12-2.27,1.12-1.68,0-3.23-1.18-3.23-3.52s1.54-3.47,3.23-3.47c1.28,0,1.97.7,2.27,1.1v-.94ZM79.11,29.21c0,1.42.8,2.5,2.18,2.5s2.21-1.17,2.21-2.48c0-1.71-1.18-2.46-2.21-2.46-1.14,0-2.18.83-2.18,2.45Z"/><path class="cls-1" d="M91.96,27.75c-.61-.77-1.49-.99-2.08-.99-1.23,0-2.35.86-2.35,2.48s1.15,2.46,2.34,2.46c.69,0,1.54-.3,2.14-1.04v1.38c-.72.53-1.49.69-2.11.69-2.06,0-3.55-1.47-3.55-3.47s1.5-3.52,3.55-3.52c1.06,0,1.74.42,2.06.64v1.38Z"/><path class="cls-1" d="M94.95,26.95v5.59h-1.15v-5.59h-.7v-1.06h.7v-2.4h1.15v2.4h1.15v1.06h-1.15Z"/><path class="cls-1" d="M106,25.89h1.15v6.48c0,.72,0,1.75-.64,2.61-.5.67-1.41,1.23-2.66,1.23-1.14,0-1.92-.45-2.37-.9s-.86-1.17-.86-2.14h1.14c0,.56.22,1.06.51,1.38.48.53,1.09.64,1.6.64.82,0,1.38-.29,1.76-.93.34-.54.37-1.14.37-1.7v-.96c-.38.5-1.1,1.12-2.27,1.12-.98,0-1.76-.38-2.27-.9-.45-.45-.96-1.28-.96-2.62s.48-2.1.96-2.58c.56-.54,1.38-.9,2.27-.9.98,0,1.74.42,2.27,1.1v-.94ZM102.35,27.38c-.56.58-.67,1.28-.67,1.83,0,.58.11,1.36.75,1.95.37.34.82.54,1.42.54s1.09-.19,1.46-.56c.45-.43.75-1.14.75-1.92s-.29-1.47-.7-1.87c-.37-.37-.91-.59-1.5-.59-.7,0-1.18.3-1.5.62Z"/><path class="cls-1" d="M115.22,30.84c-.19.37-.48.77-.82,1.07-.61.54-1.36.82-2.21.82-1.6,0-3.28-1.01-3.28-3.47,0-1.99,1.22-3.52,3.22-3.52,1.3,0,2.11.64,2.51,1.22.42.59.66,1.62.62,2.5h-5.17c.02,1.38.96,2.26,2.11,2.26.54,0,.98-.16,1.36-.48.3-.26.54-.59.69-.91l.96.53ZM114.08,28.49c-.19-1.04-.98-1.73-1.95-1.73s-1.78.74-1.95,1.73h3.91Z"/><path class="cls-1" d="M116.61,29.24c0-2.02,1.49-3.51,3.52-3.51s3.52,1.49,3.52,3.51-1.5,3.49-3.52,3.49-3.52-1.47-3.52-3.49ZM117.79,29.24c0,1.63,1.15,2.46,2.34,2.46s2.34-.85,2.34-2.46-1.12-2.48-2.34-2.48-2.34.86-2.34,2.48Z"/><path class="cls-1" d="M125.41,25.89h1.15v.7c.37-.54.94-.86,1.65-.86,1.2,0,1.68.85,1.81,1.07.64-1.01,1.55-1.07,2-1.07,1.97,0,2.16,1.65,2.16,2.59v4.21h-1.15v-4.03c0-.75-.1-1.75-1.18-1.75-1.33,0-1.47,1.28-1.47,2.08v3.7h-1.15v-3.94c0-.46.02-1.84-1.2-1.84-1.31,0-1.46,1.36-1.46,2.16v3.62h-1.15v-6.64Z"/><path class="cls-1" d="M142.26,30.84c-.19.37-.48.77-.82,1.07-.61.54-1.36.82-2.21.82-1.6,0-3.28-1.01-3.28-3.47,0-1.99,1.22-3.52,3.22-3.52,1.3,0,2.11.64,2.51,1.22.42.59.66,1.62.62,2.5h-5.17c.02,1.38.96,2.26,2.11,2.26.54,0,.98-.16,1.36-.48.3-.26.54-.59.69-.91l.96.53ZM141.12,28.49c-.19-1.04-.98-1.73-1.95-1.73s-1.78.74-1.95,1.73h3.91Z"/><path class="cls-1" d="M145.25,26.95v5.59h-1.15v-5.59h-.7v-1.06h.7v-2.4h1.15v2.4h1.15v1.06h-1.15Z"/><path class="cls-1" d="M147.49,25.89h1.15v.72c.11-.18.61-.88,1.5-.88.35,0,.74.13,1.02.27l-.54,1.04c-.26-.18-.5-.22-.67-.22-.46,0-.75.19-.93.42-.19.26-.38.7-.38,1.79v3.51h-1.15v-6.64Z"/><path class="cls-1" d="M154.82,31.91l-3.06-6.02h1.31l2.35,4.75,2.16-4.75h1.28l-4.88,10.32h-1.28l2.11-4.31Z"/><path class="cls-1" d="M163.39,29.24c0-2.02,1.49-3.51,3.52-3.51s3.52,1.49,3.52,3.51-1.5,3.49-3.52,3.49-3.52-1.47-3.52-3.49ZM164.58,29.24c0,1.63,1.15,2.46,2.34,2.46s2.34-.85,2.34-2.46-1.12-2.48-2.34-2.48-2.34.86-2.34,2.48Z"/><path class="cls-1" d="M173.34,29.77c0,.46,0,1.01.32,1.42.18.22.53.51,1.17.51s.99-.29,1.17-.51c.32-.42.32-.96.32-1.42v-3.87h1.15v4c0,.82-.08,1.42-.61,2-.59.62-1.38.83-2.03.83s-1.44-.21-2.03-.83c-.53-.58-.61-1.18-.61-2v-4h1.15v3.87Z"/><path class="cls-1" d="M180.83,26.95v5.59h-1.15v-5.59h-.7v-1.06h.7v-2.4h1.15v2.4h1.15v1.06h-1.15Z"/><path class="cls-1" d="M185.81,27.43c-.16-.38-.5-.67-.93-.67s-.8.24-.8.75c0,.48.32.62,1.07.94.96.4,1.41.71,1.66,1.02.29.35.35.71.35,1.07,0,1.39-1.01,2.18-2.29,2.18-.27,0-1.76-.03-2.32-1.7l.99-.42c.13.35.51,1.09,1.34,1.09.75,0,1.09-.56,1.09-1.06,0-.62-.45-.83-1.07-1.1-.8-.35-1.31-.61-1.62-.98-.26-.32-.3-.64-.3-.98,0-1.17.82-1.86,1.94-1.86.35,0,1.3.06,1.82,1.2l-.94.5Z"/><path class="cls-1" d="M189.28,22.56c.45,0,.82.37.82.82s-.37.82-.82.82-.82-.37-.82-.82.37-.82.82-.82ZM189.86,25.89v6.64h-1.15v-6.64h1.15Z"/><path class="cls-1" d="M197.12,20.87h1.15v11.67h-1.15v-.93c-.38.5-1.1,1.12-2.27,1.12-1.68,0-3.23-1.18-3.23-3.52s1.54-3.47,3.23-3.47c1.28,0,1.97.7,2.27,1.1v-5.97ZM192.8,29.21c0,1.42.8,2.5,2.18,2.5s2.21-1.17,2.21-2.48c0-1.71-1.18-2.46-2.21-2.46-1.14,0-2.18.83-2.18,2.45Z"/><path class="cls-1" d="M206.34,30.84c-.19.37-.48.77-.82,1.07-.61.54-1.36.82-2.21.82-1.6,0-3.28-1.01-3.28-3.47,0-1.99,1.22-3.52,3.22-3.52,1.3,0,2.11.64,2.51,1.22.42.59.66,1.62.62,2.5h-5.17c.02,1.38.96,2.26,2.11,2.26.54,0,.98-.16,1.36-.48.3-.26.54-.59.69-.91l.96.53ZM205.2,28.49c-.19-1.04-.98-1.73-1.95-1.73s-1.78.74-1.95,1.73h3.91Z"/><path class="cls-1" d="M211.87,25.89h1.15v.72c.11-.18.61-.88,1.5-.88.35,0,.74.13,1.02.27l-.54,1.04c-.26-.18-.5-.22-.67-.22-.46,0-.75.19-.93.42-.19.26-.38.7-.38,1.79v3.51h-1.15v-6.64Z"/><path class="cls-1" d="M222.11,30.84c-.19.37-.48.77-.82,1.07-.61.54-1.36.82-2.21.82-1.6,0-3.28-1.01-3.28-3.47,0-1.99,1.22-3.52,3.22-3.52,1.3,0,2.11.64,2.51,1.22.42.59.66,1.62.62,2.5h-5.17c.02,1.38.96,2.26,2.11,2.26.54,0,.98-.16,1.36-.48.3-.26.54-.59.69-.91l.96.53ZM220.98,28.49c-.19-1.04-.98-1.73-1.95-1.73s-1.78.74-1.95,1.73h3.91Z"/><path class="cls-1" d="M224.24,25.89l1.98,4.48,1.98-4.48h1.28l-3.27,7.08-3.27-7.08h1.28Z"/><path class="cls-1" d="M236.59,30.84c-.19.37-.48.77-.82,1.07-.61.54-1.36.82-2.21.82-1.6,0-3.28-1.01-3.28-3.47,0-1.99,1.22-3.52,3.22-3.52,1.3,0,2.11.64,2.51,1.22.42.59.66,1.62.62,2.5h-5.17c.02,1.38.96,2.26,2.11,2.26.54,0,.98-.16,1.36-.48.3-.26.54-.59.69-.91l.96.53ZM235.46,28.49c-.19-1.04-.98-1.73-1.95-1.73s-1.78.74-1.95,1.73h3.91Z"/><path class="cls-1" d="M243.49,25.89h1.15v6.64h-1.15v-.93c-.38.5-1.1,1.12-2.27,1.12-1.68,0-3.23-1.18-3.23-3.52s1.54-3.47,3.23-3.47c1.28,0,1.97.7,2.27,1.1v-.94ZM239.17,29.21c0,1.42.8,2.5,2.18,2.5s2.21-1.17,2.21-2.48c0-1.71-1.18-2.46-2.21-2.46-1.14,0-2.18.83-2.18,2.45Z"/><path class="cls-1" d="M247.97,20.87v11.67h-1.15v-11.67h1.15Z"/><path class="cls-1" d="M252.88,27.43c-.16-.38-.5-.67-.93-.67s-.8.24-.8.75c0,.48.32.62,1.07.94.96.4,1.41.71,1.66,1.02.29.35.35.71.35,1.07,0,1.39-1.01,2.18-2.29,2.18-.27,0-1.76-.03-2.32-1.7l.99-.42c.13.35.51,1.09,1.34,1.09.75,0,1.09-.56,1.09-1.06,0-.62-.45-.83-1.07-1.1-.8-.35-1.31-.61-1.62-.98-.26-.32-.3-.64-.3-.98,0-1.17.82-1.86,1.94-1.86.35,0,1.3.06,1.82,1.2l-.94.5Z"/><path class="cls-1" d="M260.08,22.56c.45,0,.82.37.82.82s-.37.82-.82.82-.82-.37-.82-.82.37-.82.82-.82ZM260.65,25.89v6.64h-1.15v-6.64h1.15Z"/><path class="cls-1" d="M264.01,26.95v5.59h-1.15v-5.59h-.7v-1.06h.7v-2.4h1.15v2.4h1.15v1.06h-1.15Z"/><path class="cls-1" d="M268.99,27.43c-.16-.38-.5-.67-.93-.67s-.8.24-.8.75c0,.48.32.62,1.07.94.96.4,1.41.71,1.66,1.02.29.35.35.71.35,1.07,0,1.39-1.01,2.18-2.29,2.18-.27,0-1.76-.03-2.32-1.7l.99-.42c.13.35.51,1.09,1.34,1.09.75,0,1.09-.56,1.09-1.06,0-.62-.45-.83-1.07-1.1-.8-.35-1.31-.61-1.62-.98-.26-.32-.3-.64-.3-.98,0-1.17.82-1.86,1.94-1.86.35,0,1.3.06,1.82,1.2l-.94.5Z"/><path class="cls-1" d="M277.78,30.84c-.19.37-.48.77-.82,1.07-.61.54-1.36.82-2.21.82-1.6,0-3.28-1.01-3.28-3.47,0-1.99,1.22-3.52,3.22-3.52,1.3,0,2.11.64,2.51,1.22.42.59.66,1.62.62,2.5h-5.17c.02,1.38.96,2.26,2.11,2.26.54,0,.98-.16,1.36-.48.3-.26.54-.59.69-.91l.96.53ZM276.64,28.49c-.19-1.04-.98-1.73-1.95-1.73s-1.78.74-1.95,1.73h3.91Z"/><path class="cls-1" d="M280.73,20.87v11.67h-1.15v-11.67h1.15Z"/><path class="cls-1" d="M284.09,26.95v5.59h-1.15v-5.59h-.64v-1.06h.64v-2.9c0-.61.05-1.38.64-1.87.32-.27.8-.43,1.33-.43.42,0,.69.1.82.14v1.12c-.24-.1-.51-.14-.75-.14-.26,0-.56.06-.74.35-.14.24-.14.61-.14.96v2.77h1.63v1.06h-1.63Z"/><path class="cls-1" d="M29.08,41.76c.45,0,.82.37.82.82s-.37.82-.82.82-.82-.37-.82-.82.37-.82.82-.82ZM29.65,45.09v6.64h-1.15v-6.64h1.15Z"/><path class="cls-1" d="M31.83,45.09h1.15v.77c.21-.27.8-.93,1.9-.93.78,0,1.5.32,1.9.91.34.5.38,1.04.38,1.78v4.11h-1.15v-4.08c0-.4-.03-.86-.3-1.22-.22-.29-.58-.48-1.09-.48-.4,0-.83.11-1.17.51-.45.53-.48,1.31-.48,1.79v3.47h-1.15v-6.64Z"/><path class="cls-1" d="M42.09,46.63c-.16-.38-.5-.67-.93-.67s-.8.24-.8.75c0,.48.32.62,1.07.94.96.4,1.41.71,1.66,1.02.29.35.35.71.35,1.07,0,1.39-1.01,2.18-2.29,2.18-.27,0-1.76-.03-2.32-1.7l.99-.42c.13.35.51,1.09,1.34,1.09.75,0,1.09-.56,1.09-1.06,0-.62-.45-.83-1.07-1.1-.8-.35-1.31-.61-1.62-.98-.26-.32-.3-.64-.3-.98,0-1.17.82-1.86,1.94-1.86.35,0,1.3.06,1.82,1.2l-.94.5Z"/><path class="cls-1" d="M45.56,41.76c.45,0,.82.37.82.82s-.37.82-.82.82-.82-.37-.82-.82.37-.82.82-.82ZM46.13,45.09v6.64h-1.15v-6.64h1.15Z"/><path class="cls-1" d="M53.4,40.07h1.15v11.67h-1.15v-.93c-.38.5-1.1,1.12-2.27,1.12-1.68,0-3.23-1.18-3.23-3.52s1.54-3.47,3.23-3.47c1.28,0,1.97.7,2.27,1.1v-5.97ZM49.08,48.41c0,1.42.8,2.5,2.18,2.5s2.21-1.17,2.21-2.48c0-1.71-1.18-2.46-2.21-2.46-1.14,0-2.18.83-2.18,2.45Z"/><path class="cls-1" d="M62.62,50.04c-.19.37-.48.77-.82,1.07-.61.54-1.36.82-2.21.82-1.6,0-3.28-1.01-3.28-3.47,0-1.99,1.22-3.52,3.22-3.52,1.3,0,2.11.64,2.51,1.22.42.59.66,1.62.62,2.5h-5.17c.02,1.38.96,2.26,2.11,2.26.54,0,.98-.16,1.36-.48.3-.26.54-.59.69-.91l.96.53ZM61.48,47.69c-.19-1.04-.98-1.73-1.95-1.73s-1.78.74-1.95,1.73h3.91Z"/><path class="cls-1" d="M73.24,45.09h1.15v6.64h-1.15v-.93c-.38.5-1.1,1.12-2.27,1.12-1.68,0-3.23-1.18-3.23-3.52s1.54-3.47,3.23-3.47c1.28,0,1.97.7,2.27,1.1v-.94ZM68.92,48.41c0,1.42.8,2.5,2.18,2.5s2.21-1.17,2.21-2.48c0-1.71-1.18-2.46-2.21-2.46-1.14,0-2.18.83-2.18,2.45Z"/><path class="cls-1" d="M79.3,46.63c-.16-.38-.5-.67-.93-.67s-.8.24-.8.75c0,.48.32.62,1.07.94.96.4,1.41.71,1.66,1.02.29.35.35.71.35,1.07,0,1.39-1.01,2.18-2.29,2.18-.27,0-1.76-.03-2.32-1.7l.99-.42c.13.35.51,1.09,1.34,1.09.75,0,1.09-.56,1.09-1.06,0-.62-.45-.83-1.07-1.1-.8-.35-1.31-.61-1.62-.98-.26-.32-.3-.64-.3-.98,0-1.17.82-1.86,1.94-1.86.35,0,1.3.06,1.82,1.2l-.94.5Z"/><path class="cls-1" d="M91.01,45.09h1.15v6.64h-1.15v-.93c-.38.5-1.1,1.12-2.27,1.12-1.68,0-3.23-1.18-3.23-3.52s1.54-3.47,3.23-3.47c1.28,0,1.97.7,2.27,1.1v-.94ZM86.69,48.41c0,1.42.8,2.5,2.18,2.5s2.21-1.17,2.21-2.48c0-1.71-1.18-2.46-2.21-2.46-1.14,0-2.18.83-2.18,2.45Z"/><path class="cls-1" d="M100.8,46.63c-.16-.38-.5-.67-.93-.67s-.8.24-.8.75c0,.48.32.62,1.07.94.96.4,1.41.71,1.66,1.02.29.35.35.71.35,1.07,0,1.39-1.01,2.18-2.29,2.18-.27,0-1.76-.03-2.32-1.7l.99-.42c.13.35.51,1.09,1.34,1.09.75,0,1.09-.56,1.09-1.06,0-.62-.45-.83-1.07-1.1-.8-.35-1.31-.61-1.62-.98-.26-.32-.3-.64-.3-.98,0-1.17.82-1.86,1.94-1.86.35,0,1.3.06,1.82,1.2l-.94.5Z"/><path class="cls-1" d="M109.59,50.04c-.19.37-.48.77-.82,1.07-.61.54-1.36.82-2.21.82-1.6,0-3.28-1.01-3.28-3.47,0-1.99,1.22-3.52,3.22-3.52,1.3,0,2.11.64,2.51,1.22.42.59.66,1.62.62,2.5h-5.17c.02,1.38.96,2.26,2.11,2.26.54,0,.98-.16,1.36-.48.3-.26.54-.59.69-.91l.96.53ZM108.45,47.69c-.19-1.04-.98-1.73-1.95-1.73s-1.78.74-1.95,1.73h3.91Z"/><path class="cls-1" d="M111.39,45.09h1.15v.72c.11-.18.61-.88,1.5-.88.35,0,.74.13,1.02.27l-.54,1.04c-.26-.18-.5-.22-.67-.22-.46,0-.75.19-.93.42-.19.26-.38.7-.38,1.79v3.51h-1.15v-6.64Z"/><path class="cls-1" d="M116.71,41.76c.45,0,.82.37.82.82s-.37.82-.82.82-.82-.37-.82-.82.37-.82.82-.82ZM117.28,45.09v6.64h-1.15v-6.64h1.15Z"/><path class="cls-1" d="M125.35,50.04c-.19.37-.48.77-.82,1.07-.61.54-1.36.82-2.21.82-1.6,0-3.28-1.01-3.28-3.47,0-1.99,1.22-3.52,3.22-3.52,1.3,0,2.11.64,2.51,1.22.42.59.66,1.62.62,2.5h-5.17c.02,1.38.96,2.26,2.11,2.26.54,0,.98-.16,1.36-.48.3-.26.54-.59.69-.91l.96.53ZM124.21,47.69c-.19-1.04-.98-1.73-1.95-1.73s-1.78.74-1.95,1.73h3.91Z"/><path class="cls-1" d="M129.89,46.63c-.16-.38-.5-.67-.93-.67s-.8.24-.8.75c0,.48.32.62,1.07.94.96.4,1.41.71,1.66,1.02.29.35.35.71.35,1.07,0,1.39-1.01,2.18-2.29,2.18-.27,0-1.76-.03-2.32-1.7l.99-.42c.13.35.51,1.09,1.34,1.09.75,0,1.09-.56,1.09-1.06,0-.62-.45-.83-1.07-1.1-.8-.35-1.31-.61-1.62-.98-.26-.32-.3-.64-.3-.98,0-1.17.82-1.86,1.94-1.86.35,0,1.3.06,1.82,1.2l-.94.5Z"/><path class="cls-1" d="M136.1,48.44c0-2.02,1.49-3.51,3.52-3.51s3.52,1.49,3.52,3.51-1.5,3.49-3.52,3.49-3.52-1.47-3.52-3.49ZM137.28,48.44c0,1.63,1.15,2.46,2.34,2.46s2.34-.85,2.34-2.46-1.12-2.48-2.34-2.48-2.34.86-2.34,2.48Z"/><path class="cls-1" d="M146.08,46.15v5.59h-1.15v-5.59h-.64v-1.06h.64v-2.9c0-.61.05-1.38.64-1.87.32-.27.8-.43,1.33-.43.42,0,.69.1.82.14v1.12c-.24-.1-.51-.14-.75-.14-.26,0-.56.06-.74.35-.14.24-.14.61-.14.96v2.77h1.63v1.06h-1.63Z"/><path class="cls-1" d="M153.62,48.97c0,.46,0,1.01.32,1.42.18.22.53.51,1.17.51s.99-.29,1.17-.51c.32-.42.32-.96.32-1.42v-3.87h1.15v4c0,.82-.08,1.42-.61,2-.59.62-1.38.83-2.03.83s-1.44-.21-2.03-.83c-.53-.58-.61-1.18-.61-2v-4h1.15v3.87Z"/><path class="cls-1" d="M159.92,45.09h1.15v.77c.21-.27.8-.93,1.9-.93.78,0,1.5.32,1.9.91.34.5.38,1.04.38,1.78v4.11h-1.15v-4.08c0-.4-.03-.86-.3-1.22-.22-.29-.58-.48-1.09-.48-.4,0-.83.11-1.17.51-.45.53-.48,1.31-.48,1.79v3.47h-1.15v-6.64Z"/><path class="cls-1" d="M168.59,48.97c0,.46,0,1.01.32,1.42.18.22.53.51,1.17.51s.99-.29,1.17-.51c.32-.42.32-.96.32-1.42v-3.87h1.15v4c0,.82-.08,1.42-.61,2-.59.62-1.38.83-2.03.83s-1.44-.21-2.03-.83c-.53-.58-.61-1.18-.61-2v-4h1.15v3.87Z"/><path class="cls-1" d="M177.63,46.63c-.16-.38-.5-.67-.93-.67s-.8.24-.8.75c0,.48.32.62,1.07.94.96.4,1.41.71,1.66,1.02.29.35.35.71.35,1.07,0,1.39-1.01,2.18-2.29,2.18-.27,0-1.76-.03-2.32-1.7l.99-.42c.13.35.51,1.09,1.34,1.09.75,0,1.09-.56,1.09-1.06,0-.62-.45-.83-1.07-1.1-.8-.35-1.31-.61-1.62-.98-.26-.32-.3-.64-.3-.98,0-1.17.82-1.86,1.94-1.86.35,0,1.3.06,1.82,1.2l-.94.5Z"/><path class="cls-1" d="M181.68,48.97c0,.46,0,1.01.32,1.42.18.22.53.51,1.17.51s.99-.29,1.17-.51c.32-.42.32-.96.32-1.42v-3.87h1.15v4c0,.82-.08,1.42-.61,2-.59.62-1.38.83-2.03.83s-1.44-.21-2.03-.83c-.53-.58-.61-1.18-.61-2v-4h1.15v3.87Z"/><path class="cls-1" d="M193.08,45.09h1.15v6.64h-1.15v-.93c-.38.5-1.1,1.12-2.27,1.12-1.68,0-3.23-1.18-3.23-3.52s1.54-3.47,3.23-3.47c1.28,0,1.97.7,2.27,1.1v-.94ZM188.75,48.41c0,1.42.8,2.5,2.18,2.5s2.21-1.17,2.21-2.48c0-1.71-1.18-2.46-2.21-2.46-1.14,0-2.18.83-2.18,2.45Z"/><path class="cls-1" d="M197.55,40.07v11.67h-1.15v-11.67h1.15Z"/><path class="cls-1" d="M208.55,45.09h1.15v6.64h-1.15v-.93c-.38.5-1.1,1.12-2.27,1.12-1.68,0-3.23-1.18-3.23-3.52s1.54-3.47,3.23-3.47c1.28,0,1.97.7,2.27,1.1v-.94ZM204.23,48.41c0,1.42.8,2.5,2.18,2.5s2.21-1.17,2.21-2.48c0-1.71-1.18-2.46-2.21-2.46-1.14,0-2.18.83-2.18,2.45Z"/><path class="cls-1" d="M211.87,45.09h1.15v.77c.21-.27.8-.93,1.9-.93.78,0,1.5.32,1.9.91.34.5.38,1.04.38,1.78v4.11h-1.15v-4.08c0-.4-.03-.86-.3-1.22-.22-.29-.58-.48-1.09-.48-.4,0-.83.11-1.17.51-.45.53-.48,1.31-.48,1.79v3.47h-1.15v-6.64Z"/><path class="cls-1" d="M224.48,40.07h1.15v11.67h-1.15v-.93c-.38.5-1.1,1.12-2.27,1.12-1.68,0-3.23-1.18-3.23-3.52s1.54-3.47,3.23-3.47c1.28,0,1.97.7,2.27,1.1v-5.97ZM220.16,48.41c0,1.42.8,2.5,2.18,2.5s2.21-1.17,2.21-2.48c0-1.71-1.18-2.46-2.21-2.46-1.14,0-2.18.83-2.18,2.45Z"/><path class="cls-1" d="M232.11,41.76c.45,0,.82.37.82.82s-.37.82-.82.82-.82-.37-.82-.82.37-.82.82-.82ZM232.69,45.09v6.64h-1.15v-6.64h1.15Z"/><path class="cls-1" d="M234.86,45.09h1.15v.77c.21-.27.8-.93,1.9-.93.78,0,1.5.32,1.9.91.34.5.38,1.04.38,1.78v4.11h-1.15v-4.08c0-.4-.03-.86-.3-1.22-.22-.29-.58-.48-1.09-.48-.4,0-.83.11-1.17.51-.45.53-.48,1.31-.48,1.79v3.47h-1.15v-6.64Z"/><path class="cls-1" d="M242.7,45.09l1.98,4.48,1.98-4.48h1.28l-3.27,7.08-3.27-7.08h1.28Z"/><path class="cls-1" d="M249.74,41.76c.45,0,.82.37.82.82s-.37.82-.82.82-.82-.37-.82-.82.37-.82.82-.82ZM250.32,45.09v6.64h-1.15v-6.64h1.15Z"/><path class="cls-1" d="M253.68,46.15v5.59h-1.15v-5.59h-.7v-1.06h.7v-2.4h1.15v2.4h1.15v1.06h-1.15Z"/><path class="cls-1" d="M256.5,41.76c.45,0,.82.37.82.82s-.37.82-.82.82-.82-.37-.82-.82.37-.82.82-.82ZM257.07,45.09v6.64h-1.15v-6.64h1.15Z"/><path class="cls-1" d="M259.25,45.09h1.15v.77c.21-.27.8-.93,1.9-.93.78,0,1.5.32,1.9.91.34.5.38,1.04.38,1.78v4.11h-1.15v-4.08c0-.4-.03-.86-.3-1.22-.22-.29-.58-.48-1.09-.48-.4,0-.83.11-1.17.51-.45.53-.48,1.31-.48,1.79v3.47h-1.15v-6.64Z"/><path class="cls-1" d="M271.86,45.09h1.15v6.48c0,.72,0,1.75-.64,2.61-.5.67-1.41,1.23-2.66,1.23-1.14,0-1.92-.45-2.37-.9s-.86-1.17-.86-2.14h1.14c0,.56.22,1.06.51,1.38.48.53,1.09.64,1.6.64.82,0,1.38-.29,1.76-.93.34-.54.37-1.14.37-1.7v-.96c-.38.5-1.1,1.12-2.27,1.12-.98,0-1.76-.38-2.27-.9-.45-.45-.96-1.28-.96-2.62s.48-2.1.96-2.58c.56-.54,1.38-.9,2.27-.9.98,0,1.74.42,2.27,1.1v-.94ZM268.21,46.58c-.56.58-.67,1.28-.67,1.83,0,.58.11,1.36.75,1.95.37.34.82.54,1.42.54s1.09-.19,1.46-.56c.45-.43.75-1.14.75-1.92s-.29-1.47-.7-1.87c-.37-.37-.91-.59-1.5-.59-.7,0-1.18.3-1.5.62Z"/><path class="cls-1" d="M278.91,45.09h1.15v.72c.11-.18.61-.88,1.5-.88.35,0,.74.13,1.02.27l-.54,1.04c-.26-.18-.5-.22-.67-.22-.46,0-.75.19-.93.42-.19.26-.38.7-.38,1.79v3.51h-1.15v-6.64Z"/><path class="cls-1" d="M289.15,50.04c-.19.37-.48.77-.82,1.07-.61.54-1.36.82-2.21.82-1.6,0-3.28-1.01-3.28-3.47,0-1.99,1.22-3.52,3.22-3.52,1.3,0,2.11.64,2.51,1.22.42.59.66,1.62.62,2.5h-5.17c.02,1.38.96,2.26,2.11,2.26.54,0,.98-.16,1.36-.48.3-.26.54-.59.69-.91l.96.53ZM288.02,47.69c-.19-1.04-.98-1.73-1.95-1.73s-1.78.74-1.95,1.73h3.91Z"/><path class="cls-1" d="M292.11,40.07v11.67h-1.15v-11.67h1.15Z"/><path class="cls-1" d="M299.38,45.09h1.15v6.64h-1.15v-.93c-.38.5-1.1,1.12-2.27,1.12-1.68,0-3.23-1.18-3.23-3.52s1.54-3.47,3.23-3.47c1.28,0,1.97.7,2.27,1.1v-.94ZM295.06,48.41c0,1.42.8,2.5,2.18,2.5s2.21-1.17,2.21-2.48c0-1.71-1.18-2.46-2.21-2.46-1.14,0-2.18.83-2.18,2.45Z"/><path class="cls-1" d="M302.41,47.73h3.52v1.18h-3.52v-1.18Z"/><path class="cls-1" d="M40.2,65.35v5.59h-1.15v-5.59h-.7v-1.06h.7v-2.4h1.15v2.4h1.15v1.06h-1.15Z"/><path class="cls-1" d="M43.01,60.96c.45,0,.82.37.82.82s-.37.82-.82.82-.82-.37-.82-.82.37-.82.82-.82ZM43.59,64.29v6.64h-1.15v-6.64h1.15Z"/><path class="cls-1" d="M45.35,67.64c0-2.02,1.49-3.51,3.52-3.51s3.52,1.49,3.52,3.51-1.5,3.49-3.52,3.49-3.52-1.47-3.52-3.49ZM46.53,67.64c0,1.63,1.15,2.46,2.34,2.46s2.34-.85,2.34-2.46-1.12-2.48-2.34-2.48-2.34.86-2.34,2.48Z"/><path class="cls-1" d="M54.15,64.29h1.15v.77c.21-.27.8-.93,1.9-.93.78,0,1.5.32,1.9.91.34.5.38,1.04.38,1.78v4.11h-1.15v-4.08c0-.4-.03-.86-.3-1.22-.22-.29-.58-.48-1.09-.48-.4,0-.83.11-1.17.51-.45.53-.48,1.31-.48,1.79v3.47h-1.15v-6.64Z"/><path class="cls-1" d="M64.41,65.83c-.16-.38-.5-.67-.93-.67s-.8.24-.8.75c0,.48.32.62,1.07.94.96.4,1.41.71,1.66,1.02.29.35.35.71.35,1.07,0,1.39-1.01,2.18-2.29,2.18-.27,0-1.76-.03-2.32-1.7l.99-.42c.13.35.51,1.09,1.34,1.09.75,0,1.09-.56,1.09-1.06,0-.62-.45-.83-1.07-1.1-.8-.35-1.31-.61-1.62-.98-.26-.32-.3-.64-.3-.98,0-1.17.82-1.86,1.94-1.86.35,0,1.3.06,1.82,1.2l-.94.5Z"/><path class="cls-1" d="M67.3,59.27h1.15v5.79c.21-.27.8-.93,1.9-.93.78,0,1.5.32,1.9.91.34.5.38,1.04.38,1.78v4.11h-1.15v-4.08c0-.4-.03-.86-.3-1.22-.22-.29-.58-.48-1.09-.48-.4,0-.83.11-1.17.51-.45.53-.48,1.31-.48,1.79v3.47h-1.15v-11.67Z"/><path class="cls-1" d="M75.4,60.96c.45,0,.82.37.82.82s-.37.82-.82.82-.82-.37-.82-.82.37-.82.82-.82ZM75.97,64.29v6.64h-1.15v-6.64h1.15Z"/><path class="cls-1" d="M79.3,74.62h-1.15v-10.32h1.15v.93c.78-.98,1.79-1.09,2.27-1.09,2.08,0,3.23,1.73,3.23,3.52s-1.17,3.47-3.19,3.47c-1.07,0-1.82-.48-2.32-1.12v4.61ZM83.62,67.65c0-1.63-1.1-2.5-2.18-2.5s-2.21.88-2.21,2.48c0,1.36.86,2.46,2.23,2.46s2.16-1.12,2.16-2.45Z"/><path class="cls-1" d="M89.3,65.83c-.16-.38-.5-.67-.93-.67s-.8.24-.8.75c0,.48.32.62,1.07.94.96.4,1.41.71,1.66,1.02.29.35.35.71.35,1.07,0,1.39-1.01,2.18-2.29,2.18-.27,0-1.76-.03-2.32-1.7l.99-.42c.13.35.51,1.09,1.34,1.09.75,0,1.09-.56,1.09-1.06,0-.62-.45-.83-1.07-1.1-.8-.35-1.31-.61-1.62-.98-.26-.32-.3-.64-.3-.98,0-1.17.82-1.86,1.94-1.86.35,0,1.3.06,1.82,1.2l-.94.5Z"/><path class="cls-1" d="M101.01,64.29h1.15v6.64h-1.15v-.93c-.38.5-1.1,1.12-2.27,1.12-1.68,0-3.23-1.18-3.23-3.52s1.54-3.47,3.23-3.47c1.28,0,1.97.7,2.27,1.1v-.94ZM96.69,67.61c0,1.42.8,2.5,2.18,2.5s2.21-1.17,2.21-2.48c0-1.71-1.18-2.46-2.21-2.46-1.14,0-2.18.83-2.18,2.45Z"/><path class="cls-1" d="M109.54,66.15c-.61-.77-1.49-.99-2.08-.99-1.23,0-2.35.86-2.35,2.48s1.15,2.46,2.34,2.46c.69,0,1.54-.3,2.14-1.04v1.38c-.72.53-1.49.69-2.11.69-2.06,0-3.55-1.47-3.55-3.47s1.5-3.52,3.55-3.52c1.06,0,1.74.42,2.06.64v1.38Z"/><path class="cls-1" d="M111.35,59.27h1.15v5.79c.21-.27.8-.93,1.9-.93.78,0,1.5.32,1.9.91.34.5.38,1.04.38,1.78v4.11h-1.15v-4.08c0-.4-.03-.86-.3-1.22-.22-.29-.58-.48-1.09-.48-.4,0-.83.11-1.17.51-.45.53-.48,1.31-.48,1.79v3.47h-1.15v-11.67Z"/><path class="cls-1" d="M119.44,60.96c.45,0,.82.37.82.82s-.37.82-.82.82-.82-.37-.82-.82.37-.82.82-.82ZM120.02,64.29v6.64h-1.15v-6.64h1.15Z"/><path class="cls-1" d="M128.09,69.24c-.19.37-.48.77-.82,1.07-.61.54-1.36.82-2.21.82-1.6,0-3.28-1.01-3.28-3.47,0-1.99,1.22-3.52,3.22-3.52,1.3,0,2.11.64,2.51,1.22.42.59.66,1.62.62,2.5h-5.17c.02,1.38.96,2.26,2.11,2.26.54,0,.98-.16,1.36-.48.3-.26.54-.59.69-.91l.96.53ZM126.95,66.89c-.19-1.04-.98-1.73-1.95-1.73s-1.78.74-1.95,1.73h3.91Z"/><path class="cls-1" d="M130.21,64.29l1.98,4.48,1.98-4.48h1.28l-3.27,7.08-3.27-7.08h1.28Z"/><path class="cls-1" d="M142.57,69.24c-.19.37-.48.77-.82,1.07-.61.54-1.36.82-2.21.82-1.6,0-3.28-1.01-3.28-3.47,0-1.99,1.22-3.52,3.22-3.52,1.3,0,2.11.64,2.51,1.22.42.59.66,1.62.62,2.5h-5.17c.02,1.38.96,2.26,2.11,2.26.54,0,.98-.16,1.36-.48.3-.26.54-.59.69-.91l.96.53ZM141.43,66.89c-.19-1.04-.98-1.73-1.95-1.73s-1.78.74-1.95,1.73h3.91Z"/><path class="cls-1" d="M149.46,59.27h1.15v11.67h-1.15v-.93c-.38.5-1.1,1.12-2.27,1.12-1.68,0-3.23-1.18-3.23-3.52s1.54-3.47,3.23-3.47c1.28,0,1.97.7,2.27,1.1v-5.97ZM145.14,67.61c0,1.42.8,2.5,2.18,2.5s2.21-1.17,2.21-2.48c0-1.71-1.18-2.46-2.21-2.46-1.14,0-2.18.83-2.18,2.45Z"/><path class="cls-1" d="M157.7,65.35v5.59h-1.15v-5.59h-.7v-1.06h.7v-2.4h1.15v2.4h1.15v1.06h-1.15Z"/><path class="cls-1" d="M159.94,59.27h1.15v5.79c.21-.27.8-.93,1.9-.93.78,0,1.5.32,1.9.91.34.5.38,1.04.38,1.78v4.11h-1.15v-4.08c0-.4-.03-.86-.3-1.22-.22-.29-.58-.48-1.09-.48-.4,0-.83.11-1.17.51-.45.53-.48,1.31-.48,1.79v3.47h-1.15v-11.67Z"/><path class="cls-1" d="M167.46,64.29h1.15v.72c.11-.18.61-.88,1.5-.88.35,0,.74.13,1.02.27l-.54,1.04c-.26-.18-.5-.22-.67-.22-.46,0-.75.19-.93.42-.19.26-.38.7-.38,1.79v3.51h-1.15v-6.64Z"/><path class="cls-1" d="M171.39,67.64c0-2.02,1.49-3.51,3.52-3.51s3.52,1.49,3.52,3.51-1.5,3.49-3.52,3.49-3.52-1.47-3.52-3.49ZM172.58,67.64c0,1.63,1.15,2.46,2.34,2.46s2.34-.85,2.34-2.46-1.12-2.48-2.34-2.48-2.34.86-2.34,2.48Z"/><path class="cls-1" d="M181.35,68.17c0,.46,0,1.01.32,1.42.18.22.53.51,1.17.51s.99-.29,1.17-.51c.32-.42.32-.96.32-1.42v-3.87h1.15v4c0,.82-.08,1.42-.61,2-.59.62-1.38.83-2.03.83s-1.44-.21-2.03-.83c-.53-.58-.61-1.18-.61-2v-4h1.15v3.87Z"/><path class="cls-1" d="M192.74,64.29h1.15v6.48c0,.72,0,1.75-.64,2.61-.5.67-1.41,1.23-2.66,1.23-1.14,0-1.92-.45-2.37-.9s-.86-1.17-.86-2.14h1.14c0,.56.22,1.06.51,1.38.48.53,1.09.64,1.6.64.82,0,1.38-.29,1.76-.93.34-.54.37-1.14.37-1.7v-.96c-.38.5-1.1,1.12-2.27,1.12-.98,0-1.76-.38-2.27-.9-.45-.45-.96-1.28-.96-2.62s.48-2.1.96-2.58c.56-.54,1.38-.9,2.27-.9.98,0,1.74.42,2.27,1.1v-.94ZM189.09,65.78c-.56.58-.67,1.28-.67,1.83,0,.58.11,1.36.75,1.95.37.34.82.54,1.42.54s1.09-.19,1.46-.56c.45-.43.75-1.14.75-1.92s-.29-1.47-.7-1.87c-.37-.37-.91-.59-1.5-.59-.7,0-1.18.3-1.5.62Z"/><path class="cls-1" d="M196.07,59.27h1.15v5.79c.21-.27.8-.93,1.9-.93.78,0,1.5.32,1.9.91.34.5.38,1.04.38,1.78v4.11h-1.15v-4.08c0-.4-.03-.86-.3-1.22-.22-.29-.58-.48-1.09-.48-.4,0-.83.11-1.17.51-.45.53-.48,1.31-.48,1.79v3.47h-1.15v-11.67Z"/><path class="cls-1" d="M212.4,64.29h1.15v6.64h-1.15v-.93c-.38.5-1.1,1.12-2.27,1.12-1.68,0-3.23-1.18-3.23-3.52s1.54-3.47,3.23-3.47c1.28,0,1.97.7,2.27,1.1v-.94ZM208.08,67.61c0,1.42.8,2.5,2.18,2.5s2.21-1.17,2.21-2.48c0-1.71-1.18-2.46-2.21-2.46-1.14,0-2.18.83-2.18,2.45Z"/><path class="cls-1" d="M220.64,65.35v5.59h-1.15v-5.59h-.7v-1.06h.7v-2.4h1.15v2.4h1.15v1.06h-1.15Z"/><path class="cls-1" d="M222.88,59.27h1.15v5.79c.21-.27.8-.93,1.9-.93.78,0,1.5.32,1.9.91.34.5.38,1.04.38,1.78v4.11h-1.15v-4.08c0-.4-.03-.86-.3-1.22-.22-.29-.58-.48-1.09-.48-.4,0-.83.11-1.17.51-.45.53-.48,1.31-.48,1.79v3.47h-1.15v-11.67Z"/><path class="cls-1" d="M229.74,67.64c0-2.02,1.49-3.51,3.52-3.51s3.52,1.49,3.52,3.51-1.5,3.49-3.52,3.49-3.52-1.47-3.52-3.49ZM230.93,67.64c0,1.63,1.15,2.46,2.34,2.46s2.34-.85,2.34-2.46-1.12-2.48-2.34-2.48-2.34.86-2.34,2.48Z"/><path class="cls-1" d="M239.7,68.17c0,.46,0,1.01.32,1.42.18.22.53.51,1.17.51s.99-.29,1.17-.51c.32-.42.32-.96.32-1.42v-3.87h1.15v4c0,.82-.08,1.42-.61,2-.59.62-1.38.83-2.03.83s-1.44-.21-2.03-.83c-.53-.58-.61-1.18-.61-2v-4h1.15v3.87Z"/><path class="cls-1" d="M251.09,64.29h1.15v6.48c0,.72,0,1.75-.64,2.61-.5.67-1.41,1.23-2.66,1.23-1.14,0-1.92-.45-2.37-.9s-.86-1.17-.86-2.14h1.14c0,.56.22,1.06.51,1.38.48.53,1.09.64,1.6.64.82,0,1.38-.29,1.76-.93.34-.54.37-1.14.37-1.7v-.96c-.38.5-1.1,1.12-2.27,1.12-.98,0-1.76-.38-2.27-.9-.45-.45-.96-1.28-.96-2.62s.48-2.1.96-2.58c.56-.54,1.38-.9,2.27-.9.98,0,1.74.42,2.27,1.1v-.94ZM247.44,65.78c-.56.58-.67,1.28-.67,1.83,0,.58.11,1.36.75,1.95.37.34.82.54,1.42.54s1.09-.19,1.46-.56c.45-.43.75-1.14.75-1.92s-.29-1.47-.7-1.87c-.37-.37-.91-.59-1.5-.59-.7,0-1.18.3-1.5.62Z"/><path class="cls-1" d="M254.41,59.27h1.15v5.79c.21-.27.8-.93,1.9-.93.78,0,1.5.32,1.9.91.34.5.38,1.04.38,1.78v4.11h-1.15v-4.08c0-.4-.03-.86-.3-1.22-.22-.29-.58-.48-1.09-.48-.4,0-.83.11-1.17.51-.45.53-.48,1.31-.48,1.79v3.47h-1.15v-11.67Z"/><path class="cls-1" d="M263.12,65.35v5.59h-1.15v-5.59h-.7v-1.06h.7v-2.4h1.15v2.4h1.15v1.06h-1.15Z"/><path class="cls-1" d="M266.7,65.35v5.59h-1.15v-5.59h-.64v-1.06h.64v-2.9c0-.61.05-1.38.64-1.87.32-.27.8-.43,1.33-.43.42,0,.69.1.82.14v1.12c-.24-.1-.51-.14-.75-.14-.26,0-.56.06-.74.35-.14.24-.14.61-.14.96v2.77h1.63v1.06h-1.63Z"/><path class="cls-1" d="M270.51,68.17c0,.46,0,1.01.32,1.42.18.22.53.51,1.17.51s.99-.29,1.17-.51c.32-.42.32-.96.32-1.42v-3.87h1.15v4c0,.82-.08,1.42-.61,2-.59.62-1.38.83-2.03.83s-1.44-.21-2.03-.83c-.53-.58-.61-1.18-.61-2v-4h1.15v3.87Z"/><path class="cls-1" d="M277.97,59.27v11.67h-1.15v-11.67h1.15Z"/><path class="cls-1" d="M54.62,83.49h1.15v6.64h-1.15v-.93c-.38.5-1.1,1.12-2.27,1.12-1.68,0-3.23-1.18-3.23-3.52s1.54-3.47,3.23-3.47c1.28,0,1.97.7,2.27,1.1v-.94ZM50.3,86.81c0,1.42.8,2.5,2.18,2.5s2.21-1.17,2.21-2.48c0-1.71-1.18-2.46-2.21-2.46-1.14,0-2.18.83-2.18,2.45Z"/><path class="cls-1" d="M57.95,83.49h1.15v.77c.21-.27.8-.93,1.9-.93.78,0,1.5.32,1.9.91.34.5.38,1.04.38,1.78v4.11h-1.15v-4.08c0-.4-.03-.86-.3-1.22-.22-.29-.58-.48-1.09-.48-.4,0-.83.11-1.17.51-.45.53-.48,1.31-.48,1.79v3.47h-1.15v-6.64Z"/><path class="cls-1" d="M70.55,83.49h1.15v6.64h-1.15v-.93c-.38.5-1.1,1.12-2.27,1.12-1.68,0-3.23-1.18-3.23-3.52s1.54-3.47,3.23-3.47c1.28,0,1.97.7,2.27,1.1v-.94ZM66.23,86.81c0,1.42.8,2.5,2.18,2.5s2.21-1.17,2.21-2.48c0-1.71-1.18-2.46-2.21-2.46-1.14,0-2.18.83-2.18,2.45Z"/><path class="cls-1" d="M75.03,78.47v11.67h-1.15v-11.67h1.15Z"/><path class="cls-1" d="M79.31,89.51l-3.06-6.02h1.31l2.35,4.75,2.16-4.75h1.28l-4.88,10.32h-1.28l2.11-4.31Z"/><path class="cls-1" d="M87.15,85.03c-.16-.38-.5-.67-.93-.67s-.8.24-.8.75c0,.48.32.62,1.07.94.96.4,1.41.71,1.66,1.02.29.35.35.71.35,1.07,0,1.39-1.01,2.18-2.29,2.18-.27,0-1.76-.03-2.32-1.7l.99-.42c.13.35.51,1.09,1.34,1.09.75,0,1.09-.56,1.09-1.06,0-.62-.45-.83-1.07-1.1-.8-.35-1.31-.61-1.62-.98-.26-.32-.3-.64-.3-.98,0-1.17.82-1.86,1.94-1.86.35,0,1.3.06,1.82,1.2l-.94.5Z"/><path class="cls-1" d="M90.62,80.16c.45,0,.82.37.82.82s-.37.82-.82.82-.82-.37-.82-.82.37-.82.82-.82ZM91.19,83.49v6.64h-1.15v-6.64h1.15Z"/><path class="cls-1" d="M96.11,85.03c-.16-.38-.5-.67-.93-.67s-.8.24-.8.75c0,.48.32.62,1.07.94.96.4,1.41.71,1.66,1.02.29.35.35.71.35,1.07,0,1.39-1.01,2.18-2.29,2.18-.27,0-1.76-.03-2.32-1.7l.99-.42c.13.35.51,1.09,1.34,1.09.75,0,1.09-.56,1.09-1.06,0-.62-.45-.83-1.07-1.1-.8-.35-1.31-.61-1.62-.98-.26-.32-.3-.64-.3-.98,0-1.17.82-1.86,1.94-1.86.35,0,1.3.06,1.82,1.2l-.94.5Z"/><path class="cls-1" d="M102.31,86.84c0-2.02,1.49-3.51,3.52-3.51s3.52,1.49,3.52,3.51-1.5,3.49-3.52,3.49-3.52-1.47-3.52-3.49ZM103.5,86.84c0,1.63,1.15,2.46,2.34,2.46s2.34-.85,2.34-2.46-1.12-2.48-2.34-2.48-2.34.86-2.34,2.48Z"/><path class="cls-1" d="M112.3,84.55v5.59h-1.15v-5.59h-.64v-1.06h.64v-2.9c0-.61.05-1.38.64-1.87.32-.27.8-.43,1.33-.43.42,0,.69.1.82.14v1.12c-.24-.1-.51-.14-.75-.14-.26,0-.56.06-.74.35-.14.24-.14.61-.14.96v2.77h1.63v1.06h-1.63Z"/><path class="cls-1" d="M119.86,84.55v5.59h-1.15v-5.59h-.7v-1.06h.7v-2.4h1.15v2.4h1.15v1.06h-1.15Z"/><path class="cls-1" d="M122.1,78.47h1.15v5.79c.21-.27.8-.93,1.9-.93.78,0,1.5.32,1.9.91.34.5.38,1.04.38,1.78v4.11h-1.15v-4.08c0-.4-.03-.86-.3-1.22-.22-.29-.58-.48-1.09-.48-.4,0-.83.11-1.17.51-.45.53-.48,1.31-.48,1.79v3.47h-1.15v-11.67Z"/><path class="cls-1" d="M135.35,88.44c-.19.37-.48.77-.82,1.07-.61.54-1.36.82-2.21.82-1.6,0-3.28-1.01-3.28-3.47,0-1.99,1.22-3.52,3.22-3.52,1.3,0,2.11.64,2.51,1.22.42.59.66,1.62.62,2.5h-5.17c.02,1.38.96,2.26,2.11,2.26.54,0,.98-.16,1.36-.48.3-.26.54-.59.69-.91l.96.53ZM134.22,86.09c-.19-1.04-.98-1.73-1.95-1.73s-1.78.74-1.95,1.73h3.91Z"/><path class="cls-1" d="M142.04,93.82h-1.15v-10.32h1.15v.93c.78-.98,1.79-1.09,2.27-1.09,2.08,0,3.23,1.73,3.23,3.52s-1.17,3.47-3.19,3.47c-1.07,0-1.82-.48-2.32-1.12v4.61ZM146.36,86.85c0-1.63-1.1-2.5-2.18-2.5s-2.21.88-2.21,2.48c0,1.36.86,2.46,2.23,2.46s2.16-1.12,2.16-2.45Z"/><path class="cls-1" d="M149.3,83.49h1.15v.72c.11-.18.61-.88,1.5-.88.35,0,.74.13,1.02.27l-.54,1.04c-.26-.18-.5-.22-.67-.22-.46,0-.75.19-.93.42-.19.26-.38.7-.38,1.79v3.51h-1.15v-6.64Z"/><path class="cls-1" d="M153.24,86.84c0-2.02,1.49-3.51,3.52-3.51s3.52,1.49,3.52,3.51-1.5,3.49-3.52,3.49-3.52-1.47-3.52-3.49ZM154.42,86.84c0,1.63,1.15,2.46,2.34,2.46s2.34-.85,2.34-2.46-1.12-2.48-2.34-2.48-2.34.86-2.34,2.48Z"/><path class="cls-1" d="M167.13,83.49h1.15v6.48c0,.72,0,1.75-.64,2.61-.5.67-1.41,1.23-2.66,1.23-1.14,0-1.92-.45-2.37-.9s-.86-1.17-.86-2.14h1.14c0,.56.22,1.06.51,1.38.48.53,1.09.64,1.6.64.82,0,1.38-.29,1.76-.93.34-.54.37-1.14.37-1.7v-.96c-.38.5-1.1,1.12-2.27,1.12-.98,0-1.76-.38-2.27-.9-.45-.45-.96-1.28-.96-2.62s.48-2.1.96-2.58c.56-.54,1.38-.9,2.27-.9.98,0,1.74.42,2.27,1.1v-.94ZM163.48,84.98c-.56.58-.67,1.28-.67,1.83,0,.58.11,1.36.75,1.95.37.34.82.54,1.42.54s1.09-.19,1.46-.56c.45-.43.75-1.14.75-1.92s-.29-1.47-.7-1.87c-.37-.37-.91-.59-1.5-.59-.7,0-1.18.3-1.5.62Z"/><path class="cls-1" d="M170.45,83.49h1.15v.72c.11-.18.61-.88,1.5-.88.35,0,.74.13,1.02.27l-.54,1.04c-.26-.18-.5-.22-.67-.22-.46,0-.75.19-.93.42-.19.26-.38.7-.38,1.79v3.51h-1.15v-6.64Z"/><path class="cls-1" d="M179.94,83.49h1.15v6.64h-1.15v-.93c-.38.5-1.1,1.12-2.27,1.12-1.68,0-3.23-1.18-3.23-3.52s1.54-3.47,3.23-3.47c1.28,0,1.97.7,2.27,1.1v-.94ZM175.62,86.81c0,1.42.8,2.5,2.18,2.5s2.21-1.17,2.21-2.48c0-1.71-1.18-2.46-2.21-2.46-1.14,0-2.18.83-2.18,2.45Z"/><path class="cls-1" d="M183.27,83.49h1.15v.7c.37-.54.94-.86,1.65-.86,1.2,0,1.68.85,1.81,1.07.64-1.01,1.55-1.07,2-1.07,1.97,0,2.16,1.65,2.16,2.59v4.21h-1.15v-4.03c0-.75-.1-1.75-1.18-1.75-1.33,0-1.47,1.28-1.47,2.08v3.7h-1.15v-3.94c0-.46.02-1.84-1.2-1.84-1.31,0-1.46,1.36-1.46,2.16v3.62h-1.15v-6.64Z"/><path class="cls-1" d="M198.53,80.16c.45,0,.82.37.82.82s-.37.82-.82.82-.82-.37-.82-.82.37-.82.82-.82ZM199.11,83.49v6.64h-1.15v-6.64h1.15Z"/><path class="cls-1" d="M201.28,83.49h1.15v.77c.21-.27.8-.93,1.9-.93.78,0,1.5.32,1.9.91.34.5.38,1.04.38,1.78v4.11h-1.15v-4.08c0-.4-.03-.86-.3-1.22-.22-.29-.58-.48-1.09-.48-.4,0-.83.11-1.17.51-.45.53-.48,1.31-.48,1.79v3.47h-1.15v-6.64Z"/><path class="cls-1" d="M213.72,84.55v5.59h-1.15v-5.59h-.7v-1.06h.7v-2.4h1.15v2.4h1.15v1.06h-1.15Z"/><path class="cls-1" d="M221.85,88.44c-.19.37-.48.77-.82,1.07-.61.54-1.36.82-2.21.82-1.6,0-3.28-1.01-3.28-3.47,0-1.99,1.22-3.52,3.22-3.52,1.3,0,2.11.64,2.51,1.22.42.59.66,1.62.62,2.5h-5.17c.02,1.38.96,2.26,2.11,2.26.54,0,.98-.16,1.36-.48.3-.26.54-.59.69-.91l.96.53ZM220.71,86.09c-.19-1.04-.98-1.73-1.95-1.73s-1.78.74-1.95,1.73h3.91Z"/><path class="cls-1" d="M223.65,83.49h1.15v.72c.11-.18.61-.88,1.5-.88.35,0,.74.13,1.02.27l-.54,1.04c-.26-.18-.5-.22-.67-.22-.46,0-.75.19-.93.42-.19.26-.38.7-.38,1.79v3.51h-1.15v-6.64Z"/><path class="cls-1" d="M228.39,83.49h1.15v.7c.37-.54.94-.86,1.65-.86,1.2,0,1.68.85,1.81,1.07.64-1.01,1.55-1.07,2-1.07,1.97,0,2.16,1.65,2.16,2.59v4.21h-1.15v-4.03c0-.75-.1-1.75-1.18-1.75-1.33,0-1.47,1.28-1.47,2.08v3.7h-1.15v-3.94c0-.46.02-1.84-1.2-1.84-1.31,0-1.46,1.36-1.46,2.16v3.62h-1.15v-6.64Z"/><path class="cls-1" d="M242.08,85.03c-.16-.38-.5-.67-.93-.67s-.8.24-.8.75c0,.48.32.62,1.07.94.96.4,1.41.71,1.66,1.02.29.35.35.71.35,1.07,0,1.39-1.01,2.18-2.29,2.18-.27,0-1.76-.03-2.32-1.7l.99-.42c.13.35.51,1.09,1.34,1.09.75,0,1.09-.56,1.09-1.06,0-.62-.45-.83-1.07-1.1-.8-.35-1.31-.61-1.62-.98-.26-.32-.3-.64-.3-.98,0-1.17.82-1.86,1.94-1.86.35,0,1.3.06,1.82,1.2l-.94.5Z"/><path class="cls-1" d="M248.29,86.84c0-2.02,1.49-3.51,3.52-3.51s3.52,1.49,3.52,3.51-1.5,3.49-3.52,3.49-3.52-1.47-3.52-3.49ZM249.47,86.84c0,1.63,1.15,2.46,2.34,2.46s2.34-.85,2.34-2.46-1.12-2.48-2.34-2.48-2.34.86-2.34,2.48Z"/><path class="cls-1" d="M258.27,84.55v5.59h-1.15v-5.59h-.64v-1.06h.64v-2.9c0-.61.05-1.38.64-1.87.32-.27.8-.43,1.33-.43.42,0,.69.1.82.14v1.12c-.24-.1-.51-.14-.75-.14-.26,0-.56.06-.74.35-.14.24-.14.61-.14.96v2.77h1.63v1.06h-1.63Z"/><path class="cls-1" d="M269.75,83.49h1.15v6.64h-1.15v-.93c-.38.5-1.1,1.12-2.27,1.12-1.68,0-3.23-1.18-3.23-3.52s1.54-3.47,3.23-3.47c1.28,0,1.97.7,2.27,1.1v-.94ZM265.43,86.81c0,1.42.8,2.5,2.18,2.5s2.21-1.17,2.21-2.48c0-1.71-1.18-2.46-2.21-2.46-1.14,0-2.18.83-2.18,2.45Z"/><path class="cls-1" d="M276.8,83.49h1.15v.7c.37-.54.94-.86,1.65-.86,1.2,0,1.68.85,1.81,1.07.64-1.01,1.55-1.07,2-1.07,1.97,0,2.16,1.65,2.16,2.59v4.21h-1.15v-4.03c0-.75-.1-1.75-1.18-1.75-1.33,0-1.47,1.28-1.47,2.08v3.7h-1.15v-3.94c0-.46.02-1.84-1.2-1.84-1.31,0-1.46,1.36-1.46,2.16v3.62h-1.15v-6.64Z"/><path class="cls-1" d="M288.91,87.37c0,.46,0,1.01.32,1.42.18.22.53.51,1.17.51s.99-.29,1.17-.51c.32-.42.32-.96.32-1.42v-3.87h1.15v4c0,.82-.08,1.42-.61,2-.59.62-1.38.83-2.03.83s-1.44-.21-2.03-.83c-.53-.58-.61-1.18-.61-2v-4h1.15v3.87Z"/><path class="cls-1" d="M296.37,78.47v11.67h-1.15v-11.67h1.15Z"/><path class="cls-1" d="M299.73,84.55v5.59h-1.15v-5.59h-.7v-1.06h.7v-2.4h1.15v2.4h1.15v1.06h-1.15Z"/><path class="cls-1" d="M302.55,80.16c.45,0,.82.37.82.82s-.37.82-.82.82-.82-.37-.82-.82.37-.82.82-.82ZM303.12,83.49v6.64h-1.15v-6.64h1.15Z"/><path class="cls-1" d="M305.01,86.13h3.52v1.18h-3.52v-1.18Z"/><path class="cls-1" d="M65.13,97.67h1.15v11.67h-1.15v-.93c-.38.5-1.1,1.12-2.27,1.12-1.68,0-3.23-1.18-3.23-3.52s1.54-3.47,3.23-3.47c1.28,0,1.97.7,2.27,1.1v-5.97ZM60.81,106.01c0,1.42.8,2.5,2.18,2.5s2.21-1.17,2.21-2.48c0-1.71-1.18-2.46-2.21-2.46-1.14,0-2.18.83-2.18,2.45Z"/><path class="cls-1" d="M68.88,99.36c.45,0,.82.37.82.82s-.37.82-.82.82-.82-.37-.82-.82.37-.82.82-.82ZM69.45,102.69v6.64h-1.15v-6.64h1.15Z"/><path class="cls-1" d="M71.63,102.69h1.15v.7c.37-.54.94-.86,1.65-.86,1.2,0,1.68.85,1.81,1.07.64-1.01,1.55-1.07,2-1.07,1.97,0,2.16,1.65,2.16,2.59v4.21h-1.15v-4.03c0-.75-.1-1.75-1.18-1.75-1.33,0-1.47,1.28-1.47,2.08v3.7h-1.15v-3.94c0-.46.02-1.84-1.2-1.84-1.31,0-1.46,1.36-1.46,2.16v3.62h-1.15v-6.64Z"/><path class="cls-1" d="M88.48,107.64c-.19.37-.48.77-.82,1.07-.61.54-1.36.82-2.21.82-1.6,0-3.28-1.01-3.28-3.47,0-1.99,1.22-3.52,3.22-3.52,1.3,0,2.11.64,2.51,1.22.42.59.66,1.62.62,2.5h-5.17c.02,1.38.96,2.26,2.11,2.26.54,0,.98-.16,1.36-.48.3-.26.54-.59.69-.91l.96.53ZM87.34,105.29c-.19-1.04-.98-1.73-1.95-1.73s-1.78.74-1.95,1.73h3.91Z"/><path class="cls-1" d="M90.28,102.69h1.15v.77c.21-.27.8-.93,1.9-.93.78,0,1.5.32,1.9.91.34.5.38,1.04.38,1.78v4.11h-1.15v-4.08c0-.4-.03-.86-.3-1.22-.22-.29-.58-.48-1.09-.48-.4,0-.83.11-1.17.51-.45.53-.48,1.31-.48,1.79v3.47h-1.15v-6.64Z"/><path class="cls-1" d="M100.54,104.23c-.16-.38-.5-.67-.93-.67s-.8.24-.8.75c0,.48.32.62,1.07.94.96.4,1.41.71,1.66,1.02.29.35.35.71.35,1.07,0,1.39-1.01,2.18-2.29,2.18-.27,0-1.76-.03-2.32-1.7l.99-.42c.13.35.51,1.09,1.34,1.09.75,0,1.09-.56,1.09-1.06,0-.62-.45-.83-1.07-1.1-.8-.35-1.31-.61-1.62-.98-.26-.32-.3-.64-.3-.98,0-1.17.82-1.86,1.94-1.86.35,0,1.3.06,1.82,1.2l-.94.5Z"/><path class="cls-1" d="M104.01,99.36c.45,0,.82.37.82.82s-.37.82-.82.82-.82-.37-.82-.82.37-.82.82-.82ZM104.59,102.69v6.64h-1.15v-6.64h1.15Z"/><path class="cls-1" d="M106.35,106.04c0-2.02,1.49-3.51,3.52-3.51s3.52,1.49,3.52,3.51-1.5,3.49-3.52,3.49-3.52-1.47-3.52-3.49ZM107.53,106.04c0,1.63,1.15,2.46,2.34,2.46s2.34-.85,2.34-2.46-1.12-2.48-2.34-2.48-2.34.86-2.34,2.48Z"/><path class="cls-1" d="M115.15,102.69h1.15v.77c.21-.27.8-.93,1.9-.93.78,0,1.5.32,1.9.91.34.5.38,1.04.38,1.78v4.11h-1.15v-4.08c0-.4-.03-.86-.3-1.22-.22-.29-.58-.48-1.09-.48-.4,0-.83.11-1.17.51-.45.53-.48,1.31-.48,1.79v3.47h-1.15v-6.64Z"/><path class="cls-1" d="M127.76,102.69h1.15v6.64h-1.15v-.93c-.38.5-1.1,1.12-2.27,1.12-1.68,0-3.23-1.18-3.23-3.52s1.54-3.47,3.23-3.47c1.28,0,1.97.7,2.27,1.1v-.94ZM123.44,106.01c0,1.42.8,2.5,2.18,2.5s2.21-1.17,2.21-2.48c0-1.71-1.18-2.46-2.21-2.46-1.14,0-2.18.83-2.18,2.45Z"/><path class="cls-1" d="M132.24,97.67v11.67h-1.15v-11.67h1.15Z"/><path class="cls-1" d="M143.34,104.55c-.61-.77-1.49-.99-2.08-.99-1.23,0-2.35.86-2.35,2.48s1.15,2.46,2.34,2.46c.69,0,1.54-.3,2.14-1.04v1.38c-.72.53-1.49.69-2.11.69-2.06,0-3.55-1.47-3.55-3.47s1.5-3.52,3.55-3.52c1.06,0,1.74.42,2.06.64v1.38Z"/><path class="cls-1" d="M144.73,106.04c0-2.02,1.49-3.51,3.52-3.51s3.52,1.49,3.52,3.51-1.5,3.49-3.52,3.49-3.52-1.47-3.52-3.49ZM145.91,106.04c0,1.63,1.15,2.46,2.34,2.46s2.34-.85,2.34-2.46-1.12-2.48-2.34-2.48-2.34.86-2.34,2.48Z"/><path class="cls-1" d="M153.53,102.69h1.15v.77c.21-.27.8-.93,1.9-.93.78,0,1.5.32,1.9.91.34.5.38,1.04.38,1.78v4.11h-1.15v-4.08c0-.4-.03-.86-.3-1.22-.22-.29-.58-.48-1.09-.48-.4,0-.83.11-1.17.51-.45.53-.48,1.31-.48,1.79v3.47h-1.15v-6.64Z"/><path class="cls-1" d="M166.25,104.55c-.61-.77-1.49-.99-2.08-.99-1.23,0-2.35.86-2.35,2.48s1.15,2.46,2.34,2.46c.69,0,1.54-.3,2.14-1.04v1.38c-.72.53-1.49.69-2.11.69-2.06,0-3.55-1.47-3.55-3.47s1.5-3.52,3.55-3.52c1.06,0,1.74.42,2.06.64v1.38Z"/><path class="cls-1" d="M173.95,107.64c-.19.37-.48.77-.82,1.07-.61.54-1.36.82-2.21.82-1.6,0-3.28-1.01-3.28-3.47,0-1.99,1.22-3.52,3.22-3.52,1.3,0,2.11.64,2.51,1.22.42.59.66,1.62.62,2.5h-5.17c.02,1.38.96,2.26,2.11,2.26.54,0,.98-.16,1.36-.48.3-.26.54-.59.69-.91l.96.53ZM172.81,105.29c-.19-1.04-.98-1.73-1.95-1.73s-1.78.74-1.95,1.73h3.91Z"/><path class="cls-1" d="M176.91,113.02h-1.15v-10.32h1.15v.93c.78-.98,1.79-1.09,2.27-1.09,2.08,0,3.23,1.73,3.23,3.52s-1.17,3.47-3.19,3.47c-1.07,0-1.82-.48-2.32-1.12v4.61ZM181.23,106.05c0-1.63-1.1-2.5-2.18-2.5s-2.21.88-2.21,2.48c0,1.36.86,2.46,2.23,2.46s2.16-1.12,2.16-2.45Z"/><path class="cls-1" d="M185.35,103.75v5.59h-1.15v-5.59h-.7v-1.06h.7v-2.4h1.15v2.4h1.15v1.06h-1.15Z"/><path class="cls-1" d="M190.9,106.04c0-2.02,1.49-3.51,3.52-3.51s3.52,1.49,3.52,3.51-1.5,3.49-3.52,3.49-3.52-1.47-3.52-3.49ZM192.09,106.04c0,1.63,1.15,2.46,2.34,2.46s2.34-.85,2.34-2.46-1.12-2.48-2.34-2.48-2.34.86-2.34,2.48Z"/><path class="cls-1" d="M200.89,103.75v5.59h-1.15v-5.59h-.64v-1.06h.64v-2.9c0-.61.05-1.38.64-1.87.32-.27.8-.43,1.33-.43.42,0,.69.1.82.14v1.12c-.24-.1-.51-.14-.75-.14-.26,0-.56.06-.74.35-.14.24-.14.61-.14.96v2.77h1.63v1.06h-1.63Z"/><path class="cls-1" d="M210.01,104.23c-.16-.38-.5-.67-.93-.67s-.8.24-.8.75c0,.48.32.62,1.07.94.96.4,1.41.71,1.66,1.02.29.35.35.71.35,1.07,0,1.39-1.01,2.18-2.29,2.18-.27,0-1.76-.03-2.32-1.7l.99-.42c.13.35.51,1.09,1.34,1.09.75,0,1.09-.56,1.09-1.06,0-.62-.45-.83-1.07-1.1-.8-.35-1.31-.61-1.62-.98-.26-.32-.3-.64-.3-.98,0-1.17.82-1.86,1.94-1.86.35,0,1.3.06,1.82,1.2l-.94.5Z"/><path class="cls-1" d="M218.79,107.64c-.19.37-.48.77-.82,1.07-.61.54-1.36.82-2.21.82-1.6,0-3.28-1.01-3.28-3.47,0-1.99,1.22-3.52,3.22-3.52,1.3,0,2.11.64,2.51,1.22.42.59.66,1.62.62,2.5h-5.17c.02,1.38.96,2.26,2.11,2.26.54,0,.98-.16,1.36-.48.3-.26.54-.59.69-.91l.96.53ZM217.66,105.29c-.19-1.04-.98-1.73-1.95-1.73s-1.78.74-1.95,1.73h3.91Z"/><path class="cls-1" d="M220.6,102.69h1.15v.77c.21-.27.8-.93,1.9-.93.78,0,1.5.32,1.9.91.34.5.38,1.04.38,1.78v4.11h-1.15v-4.08c0-.4-.03-.86-.3-1.22-.22-.29-.58-.48-1.09-.48-.4,0-.83.11-1.17.51-.45.53-.48,1.31-.48,1.79v3.47h-1.15v-6.64Z"/><path class="cls-1" d="M230.86,104.23c-.16-.38-.5-.67-.93-.67s-.8.24-.8.75c0,.48.32.62,1.07.94.96.4,1.41.71,1.66,1.02.29.35.35.71.35,1.07,0,1.39-1.01,2.18-2.29,2.18-.27,0-1.76-.03-2.32-1.7l.99-.42c.13.35.51,1.09,1.34,1.09.75,0,1.09-.56,1.09-1.06,0-.62-.45-.83-1.07-1.1-.8-.35-1.31-.61-1.62-.98-.26-.32-.3-.64-.3-.98,0-1.17.82-1.86,1.94-1.86.35,0,1.3.06,1.82,1.2l-.94.5Z"/><path class="cls-1" d="M234.9,106.57c0,.46,0,1.01.32,1.42.18.22.53.51,1.17.51s.99-.29,1.17-.51c.32-.42.32-.96.32-1.42v-3.87h1.15v4c0,.82-.08,1.42-.61,2-.59.62-1.38.83-2.03.83s-1.44-.21-2.03-.83c-.53-.58-.61-1.18-.61-2v-4h1.15v3.87Z"/><path class="cls-1" d="M240.79,106.04c0-2.02,1.49-3.51,3.52-3.51s3.52,1.49,3.52,3.51-1.5,3.49-3.52,3.49-3.52-1.47-3.52-3.49ZM241.98,106.04c0,1.63,1.15,2.46,2.34,2.46s2.34-.85,2.34-2.46-1.12-2.48-2.34-2.48-2.34.86-2.34,2.48Z"/><path class="cls-1" d="M250.74,106.57c0,.46,0,1.01.32,1.42.18.22.53.51,1.17.51s.99-.29,1.17-.51c.32-.42.32-.96.32-1.42v-3.87h1.15v4c0,.82-.08,1.42-.61,2-.59.62-1.38.83-2.03.83s-1.44-.21-2.03-.83c-.53-.58-.61-1.18-.61-2v-4h1.15v3.87Z"/><path class="cls-1" d="M259.78,104.23c-.16-.38-.5-.67-.93-.67s-.8.24-.8.75c0,.48.32.62,1.07.94.96.4,1.41.71,1.66,1.02.29.35.35.71.35,1.07,0,1.39-1.01,2.18-2.29,2.18-.27,0-1.76-.03-2.32-1.7l.99-.42c.13.35.51,1.09,1.34,1.09.75,0,1.09-.56,1.09-1.06,0-.62-.45-.83-1.07-1.1-.8-.35-1.31-.61-1.62-.98-.26-.32-.3-.64-.3-.98,0-1.17.82-1.86,1.94-1.86.35,0,1.3.06,1.82,1.2l-.94.5Z"/><path class="cls-1" d="M263.83,97.67v11.67h-1.15v-11.67h1.15Z"/><path class="cls-1" d="M268.1,108.71l-3.06-6.02h1.31l2.35,4.75,2.16-4.75h1.28l-4.88,10.32h-1.28l2.11-4.31Z"/><path class="cls-1" d="M70.14,125.24c0-2.02,1.49-3.51,3.52-3.51s3.52,1.49,3.52,3.51-1.5,3.49-3.52,3.49-3.52-1.47-3.52-3.49ZM71.33,125.24c0,1.63,1.15,2.46,2.34,2.46s2.34-.85,2.34-2.46-1.12-2.48-2.34-2.48-2.34.86-2.34,2.48Z"/><path class="cls-1" d="M78.94,121.89h1.15v.72c.11-.18.61-.88,1.5-.88.35,0,.74.13,1.02.27l-.54,1.04c-.26-.18-.5-.22-.67-.22-.46,0-.75.19-.93.42-.19.26-.38.7-.38,1.79v3.51h-1.15v-6.64Z"/><path class="cls-1" d="M88.5,123.75c-.61-.77-1.49-.99-2.08-.99-1.23,0-2.35.86-2.35,2.48s1.15,2.46,2.34,2.46c.69,0,1.54-.3,2.14-1.04v1.38c-.72.53-1.49.69-2.11.69-2.06,0-3.55-1.47-3.55-3.47s1.5-3.52,3.55-3.52c1.06,0,1.74.42,2.06.64v1.38Z"/><path class="cls-1" d="M90.3,116.87h1.15v5.79c.21-.27.8-.93,1.9-.93.78,0,1.5.32,1.9.91.34.5.38,1.04.38,1.78v4.11h-1.15v-4.08c0-.4-.03-.86-.3-1.22-.22-.29-.58-.48-1.09-.48-.4,0-.83.11-1.17.51-.45.53-.48,1.31-.48,1.79v3.47h-1.15v-11.67Z"/><path class="cls-1" d="M103.55,126.84c-.19.37-.48.77-.82,1.07-.61.54-1.36.82-2.21.82-1.6,0-3.28-1.01-3.28-3.47,0-1.99,1.22-3.52,3.22-3.52,1.3,0,2.11.64,2.51,1.22.42.59.66,1.62.62,2.5h-5.17c.02,1.38.96,2.26,2.11,2.26.54,0,.98-.16,1.36-.48.3-.26.54-.59.69-.91l.96.53ZM102.41,124.49c-.19-1.04-.98-1.73-1.95-1.73s-1.78.74-1.95,1.73h3.91Z"/><path class="cls-1" d="M108.09,123.43c-.16-.38-.5-.67-.93-.67s-.8.24-.8.75c0,.48.32.62,1.07.94.96.4,1.41.71,1.66,1.02.29.35.35.71.35,1.07,0,1.39-1.01,2.18-2.29,2.18-.27,0-1.76-.03-2.32-1.7l.99-.42c.13.35.51,1.09,1.34,1.09.75,0,1.09-.56,1.09-1.06,0-.62-.45-.83-1.07-1.1-.8-.35-1.31-.61-1.62-.98-.26-.32-.3-.64-.3-.98,0-1.17.82-1.86,1.94-1.86.35,0,1.3.06,1.82,1.2l-.94.5Z"/><path class="cls-1" d="M112.17,122.95v5.59h-1.15v-5.59h-.7v-1.06h.7v-2.4h1.15v2.4h1.15v1.06h-1.15Z"/><path class="cls-1" d="M114.41,121.89h1.15v.72c.11-.18.61-.88,1.5-.88.35,0,.74.13,1.02.27l-.54,1.04c-.26-.18-.5-.22-.67-.22-.46,0-.75.19-.93.42-.19.26-.38.7-.38,1.79v3.51h-1.15v-6.64Z"/><path class="cls-1" d="M123.9,121.89h1.15v6.64h-1.15v-.93c-.38.5-1.1,1.12-2.27,1.12-1.68,0-3.23-1.18-3.23-3.52s1.54-3.47,3.23-3.47c1.28,0,1.97.7,2.27,1.1v-.94ZM119.58,125.21c0,1.42.8,2.5,2.18,2.5s2.21-1.17,2.21-2.48c0-1.71-1.18-2.46-2.21-2.46-1.14,0-2.18.83-2.18,2.45Z"/><path class="cls-1" d="M128.41,122.95v5.59h-1.15v-5.59h-.7v-1.06h.7v-2.4h1.15v2.4h1.15v1.06h-1.15Z"/><path class="cls-1" d="M136.54,126.84c-.19.37-.48.77-.82,1.07-.61.54-1.36.82-2.21.82-1.6,0-3.28-1.01-3.28-3.47,0-1.99,1.22-3.52,3.22-3.52,1.3,0,2.11.64,2.51,1.22.42.59.66,1.62.62,2.5h-5.17c.02,1.38.96,2.26,2.11,2.26.54,0,.98-.16,1.36-.48.3-.26.54-.59.69-.91l.96.53ZM135.41,124.49c-.19-1.04-.98-1.73-1.95-1.73s-1.78.74-1.95,1.73h3.91Z"/><path class="cls-1" d="M143.44,116.87h1.15v11.67h-1.15v-.93c-.38.5-1.1,1.12-2.27,1.12-1.68,0-3.23-1.18-3.23-3.52s1.54-3.47,3.23-3.47c1.28,0,1.97.7,2.27,1.1v-5.97ZM139.12,125.21c0,1.42.8,2.5,2.18,2.5s2.21-1.17,2.21-2.48c0-1.71-1.18-2.46-2.21-2.46-1.14,0-2.18.83-2.18,2.45Z"/><path class="cls-1" d="M153.23,123.43c-.16-.38-.5-.67-.93-.67s-.8.24-.8.75c0,.48.32.62,1.07.94.96.4,1.41.71,1.66,1.02.29.35.35.71.35,1.07,0,1.39-1.01,2.18-2.29,2.18-.27,0-1.76-.03-2.32-1.7l.99-.42c.13.35.51,1.09,1.34,1.09.75,0,1.09-.56,1.09-1.06,0-.62-.45-.83-1.07-1.1-.8-.35-1.31-.61-1.62-.98-.26-.32-.3-.64-.3-.98,0-1.17.82-1.86,1.94-1.86.35,0,1.3.06,1.82,1.2l-.94.5Z"/><path class="cls-1" d="M157.28,132.22h-1.15v-10.32h1.15v.93c.78-.98,1.79-1.09,2.27-1.09,2.08,0,3.23,1.73,3.23,3.52s-1.17,3.47-3.19,3.47c-1.07,0-1.82-.48-2.32-1.12v4.61ZM161.6,125.25c0-1.63-1.1-2.5-2.18-2.5s-2.21.88-2.21,2.48c0,1.36.86,2.46,2.23,2.46s2.16-1.12,2.16-2.45Z"/><path class="cls-1" d="M169.63,121.89h1.15v6.64h-1.15v-.93c-.38.5-1.1,1.12-2.27,1.12-1.68,0-3.23-1.18-3.23-3.52s1.54-3.47,3.23-3.47c1.28,0,1.97.7,2.27,1.1v-.94ZM165.31,125.21c0,1.42.8,2.5,2.18,2.5s2.21-1.17,2.21-2.48c0-1.71-1.18-2.46-2.21-2.46-1.14,0-2.18.83-2.18,2.45Z"/><path class="cls-1" d="M178.16,123.75c-.61-.77-1.49-.99-2.08-.99-1.23,0-2.35.86-2.35,2.48s1.15,2.46,2.34,2.46c.69,0,1.54-.3,2.14-1.04v1.38c-.72.53-1.49.69-2.11.69-2.06,0-3.55-1.47-3.55-3.47s1.5-3.52,3.55-3.52c1.06,0,1.74.42,2.06.64v1.38Z"/><path class="cls-1" d="M185.85,126.84c-.19.37-.48.77-.82,1.07-.61.54-1.36.82-2.21.82-1.6,0-3.28-1.01-3.28-3.47,0-1.99,1.22-3.52,3.22-3.52,1.3,0,2.11.64,2.51,1.22.42.59.66,1.62.62,2.5h-5.17c.02,1.38.96,2.26,2.11,2.26.54,0,.98-.16,1.36-.48.3-.26.54-.59.69-.91l.96.53ZM184.72,124.49c-.19-1.04-.98-1.73-1.95-1.73s-1.78.74-1.95,1.73h3.91Z"/><path class="cls-1" d="M188.4,127.1c.43,0,.8.37.8.8s-.37.8-.8.8-.8-.37-.8-.8.37-.8.8-.8Z"/></g></svg>