<?xml version="1.0" encoding="UTF-8"?><svg id="Layer_2" xmlns="http://www.w3.org/2000/svg" viewBox="0 0 320.22 266.37"><defs><style>.cls-1{fill:#c7c7c7;}</style></defs><g id="Layer_1-2"><path class="cls-1" d="M.76,11.29c0-2.27,1.67-3.94,3.96-3.94s3.96,1.67,3.96,3.94-1.69,3.92-3.96,3.92-3.96-1.66-3.96-3.92ZM2.09,11.29c0,1.84,1.3,2.77,2.63,2.77s2.63-.95,2.63-2.77-1.26-2.79-2.63-2.79-2.63.97-2.63,2.79Z"/><path class="cls-1" d="M10.66,7.53h1.3v.81c.13-.2.68-.99,1.69-.99.4,0,.83.14,1.15.31l-.61,1.17c-.29-.2-.56-.25-.76-.25-.52,0-.85.22-1.04.47-.22.29-.43.79-.43,2.02v3.94h-1.3v-7.47Z"/><path class="cls-1" d="M21.51,8.72v6.28h-1.3v-6.28h-.79v-1.19h.79v-2.7h1.3v2.7h1.3v1.19h-1.3Z"/><path class="cls-1" d="M24.03,1.88h1.3v6.52c.23-.31.9-1.04,2.14-1.04.88,0,1.69.36,2.14,1.03.38.56.43,1.17.43,2v4.63h-1.3v-4.59c0-.45-.04-.97-.34-1.37-.25-.32-.65-.54-1.22-.54-.45,0-.94.13-1.31.58-.5.59-.54,1.48-.54,2.02v3.91h-1.3V1.88Z"/><path class="cls-1" d="M31.75,11.29c0-2.27,1.67-3.94,3.96-3.94s3.96,1.67,3.96,3.94-1.69,3.92-3.96,3.92-3.96-1.66-3.96-3.92ZM33.08,11.29c0,1.84,1.3,2.77,2.63,2.77s2.63-.95,2.63-2.77-1.26-2.79-2.63-2.79-2.63.97-2.63,2.79Z"/><path class="cls-1" d="M44.73,9.26c-.18-.43-.56-.76-1.04-.76s-.9.27-.9.85c0,.54.36.7,1.21,1.06,1.08.45,1.58.79,1.87,1.15.32.4.4.79.4,1.21,0,1.57-1.13,2.45-2.57,2.45-.31,0-1.98-.04-2.61-1.91l1.12-.47c.14.4.58,1.22,1.51,1.22.85,0,1.22-.63,1.22-1.19,0-.7-.5-.94-1.21-1.24-.9-.4-1.48-.68-1.82-1.1-.29-.36-.34-.72-.34-1.1,0-1.31.92-2.09,2.18-2.09.4,0,1.46.07,2.05,1.35l-1.06.56Z"/><path class="cls-1" d="M54.61,13.09c-.22.41-.54.86-.92,1.21-.68.61-1.53.92-2.48.92-1.8,0-3.69-1.13-3.69-3.91,0-2.23,1.37-3.96,3.62-3.96,1.46,0,2.38.72,2.83,1.37.47.67.74,1.82.7,2.81h-5.82c.02,1.55,1.08,2.54,2.38,2.54.61,0,1.1-.18,1.53-.54.34-.29.61-.67.77-1.03l1.08.59ZM53.33,10.45c-.22-1.17-1.1-1.94-2.2-1.94s-2,.83-2.2,1.94h4.39Z"/><path class="cls-1" d="M62.17,8.72v6.28h-1.3v-6.28h-.79v-1.19h.79v-2.7h1.3v2.7h1.3v1.19h-1.3Z"/><path class="cls-1" d="M64.69,1.88h1.3v6.52c.23-.31.9-1.04,2.14-1.04.88,0,1.69.36,2.14,1.03.38.56.43,1.17.43,2v4.63h-1.3v-4.59c0-.45-.04-.97-.34-1.37-.25-.32-.65-.54-1.22-.54-.45,0-.94.13-1.31.58-.5.59-.54,1.48-.54,2.02v3.91h-1.3V1.88Z"/><path class="cls-1" d="M78.88,7.53h1.3v7.47h-1.3v-1.04c-.43.56-1.24,1.26-2.56,1.26-1.89,0-3.64-1.33-3.64-3.96s1.73-3.91,3.64-3.91c1.44,0,2.21.79,2.56,1.24v-1.06ZM74.01,11.26c0,1.6.9,2.81,2.45,2.81s2.48-1.31,2.48-2.79c0-1.93-1.33-2.77-2.48-2.77-1.28,0-2.45.94-2.45,2.75Z"/><path class="cls-1" d="M83.95,8.72v6.28h-1.3v-6.28h-.79v-1.19h.79v-2.7h1.3v2.7h1.3v1.19h-1.3Z"/><path class="cls-1" d="M91.02,7.53l2.21,5.08,2.34-5.65,2.32,5.65,2.23-5.08h1.44l-3.71,8-2.3-5.58-2.3,5.58-3.67-8h1.44Z"/><path class="cls-1" d="M102.47,11.29c0-2.27,1.67-3.94,3.96-3.94s3.96,1.67,3.96,3.94-1.69,3.92-3.96,3.92-3.96-1.66-3.96-3.92ZM103.8,11.29c0,1.84,1.3,2.77,2.63,2.77s2.63-.95,2.63-2.77-1.26-2.79-2.63-2.79-2.63.97-2.63,2.79Z"/><path class="cls-1" d="M112.37,7.53h1.3v.81c.13-.2.68-.99,1.69-.99.4,0,.83.14,1.15.31l-.61,1.17c-.29-.2-.56-.25-.76-.25-.52,0-.85.22-1.04.47-.22.29-.43.79-.43,2.02v3.94h-1.3v-7.47Z"/><path class="cls-1" d="M118.99,1.88v8.43l2.74-2.77h1.69l-3.21,3.21,3.78,4.27h-1.69l-2.99-3.4-.32.32v3.08h-1.3V1.88h1.3Z"/><path class="cls-1" d="M130.82,8.72v6.28h-1.3v-6.28h-.79v-1.19h.79v-2.7h1.3v2.7h1.3v1.19h-1.3Z"/><path class="cls-1" d="M133.34,1.88h1.3v6.52c.23-.31.9-1.04,2.14-1.04.88,0,1.69.36,2.14,1.03.38.56.43,1.17.43,2v4.63h-1.3v-4.59c0-.45-.04-.97-.34-1.37-.25-.32-.65-.54-1.22-.54-.45,0-.94.13-1.31.58-.5.59-.54,1.48-.54,2.02v3.91h-1.3V1.88Z"/><path class="cls-1" d="M142.45,3.79c.5,0,.92.41.92.92s-.41.92-.92.92-.92-.41-.92-.92.41-.92.92-.92ZM143.1,7.53v7.47h-1.3v-7.47h1.3Z"/><path class="cls-1" d="M148.62,9.26c-.18-.43-.56-.76-1.04-.76s-.9.27-.9.85c0,.54.36.7,1.21,1.06,1.08.45,1.58.79,1.87,1.15.32.4.4.79.4,1.21,0,1.57-1.13,2.45-2.58,2.45-.31,0-1.98-.04-2.61-1.91l1.12-.47c.14.4.58,1.22,1.51,1.22.85,0,1.22-.63,1.22-1.19,0-.7-.5-.94-1.21-1.24-.9-.4-1.48-.68-1.82-1.1-.29-.36-.34-.72-.34-1.1,0-1.31.92-2.09,2.18-2.09.4,0,1.46.07,2.05,1.35l-1.06.56Z"/><path class="cls-1" d="M156.43,7.53l2.21,5.08,2.34-5.65,2.32,5.65,2.23-5.08h1.44l-3.71,8-2.3-5.58-2.3,5.58-3.67-8h1.44Z"/><path class="cls-1" d="M174.08,7.53h1.3v7.47h-1.3v-1.04c-.43.56-1.24,1.26-2.56,1.26-1.89,0-3.64-1.33-3.64-3.96s1.73-3.91,3.64-3.91c1.44,0,2.21.79,2.56,1.24v-1.06ZM169.21,11.26c0,1.6.9,2.81,2.45,2.81s2.48-1.31,2.48-2.79c0-1.93-1.33-2.77-2.48-2.77-1.28,0-2.45.94-2.45,2.75Z"/><path class="cls-1" d="M180.18,14.3l-3.44-6.77h1.48l2.65,5.35,2.43-5.35h1.44l-5.49,11.61h-1.44l2.38-4.84Z"/><path class="cls-1" d="M186.69,10.59h11.88v1.15h-11.88v-1.15Z"/><path class="cls-1" d="M207.68,13.09c-.22.41-.54.86-.92,1.21-.68.61-1.53.92-2.48.92-1.8,0-3.69-1.13-3.69-3.91,0-2.23,1.37-3.96,3.62-3.96,1.46,0,2.38.72,2.83,1.37.47.67.74,1.82.7,2.81h-5.82c.02,1.55,1.08,2.54,2.38,2.54.61,0,1.1-.18,1.53-.54.34-.29.61-.67.77-1.03l1.08.59ZM206.4,10.45c-.22-1.17-1.1-1.94-2.2-1.94s-2,.83-2.2,1.94h4.39Z"/><path class="cls-1" d="M211.82,11.01l-2.72-3.48h1.58l1.93,2.54,1.96-2.54h1.58l-2.74,3.49,3.1,3.98h-1.58l-2.36-3.04-2.36,3.04h-1.58l3.19-4Z"/><path class="cls-1" d="M219.18,19.14h-1.3V7.53h1.3v1.04c.88-1.1,2.02-1.22,2.56-1.22,2.34,0,3.64,1.94,3.64,3.96s-1.31,3.91-3.58,3.91c-1.21,0-2.05-.54-2.61-1.26v5.19ZM224.04,11.31c0-1.84-1.24-2.81-2.45-2.81s-2.48.99-2.48,2.79c0,1.53.97,2.77,2.5,2.77s2.43-1.26,2.43-2.75Z"/><path class="cls-1" d="M228.65,1.88v13.13h-1.3V1.88h1.3Z"/><path class="cls-1" d="M230.63,11.29c0-2.27,1.67-3.94,3.96-3.94s3.96,1.67,3.96,3.94-1.69,3.92-3.96,3.92-3.96-1.66-3.96-3.92ZM231.96,11.29c0,1.84,1.3,2.77,2.63,2.77s2.63-.95,2.63-2.77-1.26-2.79-2.63-2.79-2.63.97-2.63,2.79Z"/><path class="cls-1" d="M240.53,7.53h1.3v.81c.13-.2.68-.99,1.69-.99.4,0,.83.14,1.15.31l-.61,1.17c-.29-.2-.56-.25-.76-.25-.52,0-.85.22-1.04.47-.22.29-.43.79-.43,2.02v3.94h-1.3v-7.47Z"/><path class="cls-1" d="M246.5,3.79c.5,0,.92.41.92.92s-.41.92-.92.92-.92-.41-.92-.92.41-.92.92-.92ZM247.15,7.53v7.47h-1.3v-7.47h1.3Z"/><path class="cls-1" d="M249.6,7.53h1.3v.86c.23-.31.9-1.04,2.14-1.04.88,0,1.69.36,2.14,1.03.38.56.43,1.17.43,2v4.63h-1.3v-4.59c0-.45-.04-.97-.34-1.37-.25-.32-.65-.54-1.22-.54-.45,0-.94.13-1.31.58-.5.59-.54,1.48-.54,2.02v3.91h-1.3v-7.47Z"/><path class="cls-1" d="M263.78,7.53h1.3v7.29c0,.81,0,1.96-.72,2.93-.56.76-1.58,1.39-2.99,1.39-1.28,0-2.16-.5-2.66-1.01s-.97-1.31-.97-2.41h1.28c0,.63.25,1.19.58,1.55.54.59,1.22.72,1.8.72.92,0,1.55-.32,1.98-1.04.38-.61.41-1.28.41-1.91v-1.08c-.43.56-1.24,1.26-2.56,1.26-1.1,0-1.98-.43-2.56-1.01-.5-.5-1.08-1.44-1.08-2.95s.54-2.36,1.08-2.9c.63-.61,1.55-1.01,2.56-1.01,1.1,0,1.96.47,2.56,1.24v-1.06ZM259.68,9.21c-.63.65-.76,1.44-.76,2.05,0,.65.13,1.53.85,2.2.41.38.92.61,1.6.61s1.22-.22,1.64-.63c.5-.49.85-1.28.85-2.16s-.32-1.66-.79-2.11c-.41-.41-1.03-.67-1.69-.67-.79,0-1.33.34-1.69.7Z"/><path class="cls-1" d="M273.02,1.88v13.13h-1.3V1.88h1.3Z"/><path class="cls-1" d="M282.09,13.09c-.22.41-.54.86-.92,1.21-.68.61-1.53.92-2.48.92-1.8,0-3.69-1.13-3.69-3.91,0-2.23,1.37-3.96,3.62-3.96,1.46,0,2.38.72,2.83,1.37.47.67.74,1.82.7,2.81h-5.82c.02,1.55,1.08,2.54,2.38,2.54.61,0,1.1-.18,1.53-.54.34-.29.61-.67.77-1.03l1.08.59ZM280.81,10.45c-.22-1.17-1.1-1.94-2.2-1.94s-2,.83-2.2,1.94h4.39Z"/><path class="cls-1" d="M284.48,7.53l2.23,5.04,2.23-5.04h1.44l-3.67,7.96-3.67-7.96h1.44Z"/><path class="cls-1" d="M298.38,13.09c-.22.41-.54.86-.92,1.21-.68.61-1.53.92-2.48.92-1.8,0-3.69-1.13-3.69-3.91,0-2.23,1.37-3.96,3.62-3.96,1.46,0,2.38.72,2.83,1.37.47.67.74,1.82.7,2.81h-5.82c.02,1.55,1.08,2.54,2.38,2.54.61,0,1.1-.18,1.53-.54.34-.29.61-.67.77-1.03l1.08.59ZM297.1,10.45c-.22-1.17-1.1-1.94-2.2-1.94s-2,.83-2.2,1.94h4.39Z"/><path class="cls-1" d="M301.71,1.88v13.13h-1.3V1.88h1.3Z"/><path class="cls-1" d="M307.23,9.26c-.18-.43-.56-.76-1.04-.76s-.9.27-.9.85c0,.54.36.7,1.21,1.06,1.08.45,1.58.79,1.87,1.15.32.4.4.79.4,1.21,0,1.57-1.13,2.45-2.58,2.45-.31,0-1.98-.04-2.61-1.91l1.12-.47c.14.4.58,1.22,1.51,1.22.85,0,1.22-.63,1.22-1.19,0-.7-.5-.94-1.21-1.24-.9-.4-1.48-.68-1.82-1.1-.29-.36-.34-.72-.34-1.1,0-1.31.92-2.09,2.18-2.09.4,0,1.46.07,2.05,1.35l-1.06.56Z"/><path class="cls-1" d="M.76,32.89c0-2.27,1.67-3.94,3.96-3.94s3.96,1.67,3.96,3.94-1.69,3.92-3.96,3.92-3.96-1.66-3.96-3.92ZM2.09,32.89c0,1.84,1.3,2.77,2.63,2.77s2.63-.95,2.63-2.77-1.26-2.79-2.63-2.79-2.63.97-2.63,2.79Z"/><path class="cls-1" d="M11.99,30.32v6.28h-1.3v-6.28h-.72v-1.19h.72v-3.26c0-.68.05-1.55.72-2.11.36-.31.9-.49,1.49-.49.47,0,.77.11.92.16v1.26c-.27-.11-.58-.16-.85-.16-.29,0-.63.07-.83.4-.16.27-.16.68-.16,1.08v3.11h1.84v1.19h-1.84Z"/><path class="cls-1" d="M20.47,40.74h-1.3v-11.61h1.3v1.04c.88-1.1,2.02-1.22,2.56-1.22,2.34,0,3.64,1.94,3.64,3.96s-1.31,3.91-3.58,3.91c-1.21,0-2.05-.54-2.61-1.26v5.19ZM25.33,32.91c0-1.84-1.24-2.81-2.45-2.81s-2.48.99-2.48,2.79c0,1.53.97,2.77,2.5,2.77s2.43-1.26,2.43-2.75Z"/><path class="cls-1" d="M28.64,23.48h1.3v6.52c.23-.31.9-1.04,2.14-1.04.88,0,1.69.36,2.14,1.03.38.56.43,1.17.43,2v4.63h-1.3v-4.59c0-.45-.04-.97-.34-1.37-.25-.32-.65-.54-1.22-.54-.45,0-.94.13-1.31.58-.5.59-.54,1.48-.54,2.02v3.91h-1.3v-13.13Z"/><path class="cls-1" d="M37.75,25.38c.5,0,.92.41.92.92s-.41.92-.92.92-.92-.41-.92-.92.41-.92.92-.92ZM38.39,29.13v7.47h-1.3v-7.47h1.3Z"/><path class="cls-1" d="M42.14,23.48v13.13h-1.3v-13.13h1.3Z"/><path class="cls-1" d="M44.12,32.89c0-2.27,1.67-3.94,3.96-3.94s3.96,1.67,3.96,3.94-1.69,3.92-3.96,3.92-3.96-1.66-3.96-3.92ZM45.45,32.89c0,1.84,1.3,2.77,2.63,2.77s2.63-.95,2.63-2.77-1.26-2.79-2.63-2.79-2.63.97-2.63,2.79Z"/><path class="cls-1" d="M57.1,30.86c-.18-.43-.56-.76-1.04-.76s-.9.27-.9.85c0,.54.36.7,1.21,1.06,1.08.45,1.58.79,1.87,1.15.32.4.4.79.4,1.21,0,1.57-1.13,2.45-2.57,2.45-.31,0-1.98-.04-2.61-1.91l1.12-.47c.14.4.58,1.22,1.51,1.22.85,0,1.22-.63,1.22-1.19,0-.7-.5-.94-1.21-1.24-.9-.4-1.48-.68-1.82-1.1-.29-.36-.34-.72-.34-1.1,0-1.31.92-2.09,2.18-2.09.4,0,1.46.07,2.05,1.35l-1.06.56Z"/><path class="cls-1" d="M59.88,32.89c0-2.27,1.67-3.94,3.96-3.94s3.96,1.67,3.96,3.94-1.69,3.92-3.96,3.92-3.96-1.66-3.96-3.92ZM61.22,32.89c0,1.84,1.3,2.77,2.63,2.77s2.63-.95,2.63-2.77-1.26-2.79-2.63-2.79-2.63.97-2.63,2.79Z"/><path class="cls-1" d="M71.08,40.74h-1.3v-11.61h1.3v1.04c.88-1.1,2.02-1.22,2.56-1.22,2.34,0,3.64,1.94,3.64,3.96s-1.31,3.91-3.58,3.91c-1.21,0-2.05-.54-2.61-1.26v5.19ZM75.94,32.91c0-1.84-1.24-2.81-2.45-2.81s-2.48.99-2.48,2.79c0,1.53.97,2.77,2.5,2.77s2.43-1.26,2.43-2.75Z"/><path class="cls-1" d="M79.25,23.48h1.3v6.52c.23-.31.9-1.04,2.14-1.04.88,0,1.69.36,2.14,1.03.38.56.43,1.17.43,2v4.63h-1.3v-4.59c0-.45-.04-.97-.34-1.37-.25-.32-.65-.54-1.22-.54-.45,0-.94.13-1.31.58-.5.59-.54,1.48-.54,2.02v3.91h-1.3v-13.13Z"/><path class="cls-1" d="M90.07,35.9l-3.44-6.77h1.48l2.65,5.35,2.43-5.35h1.44l-5.49,11.61h-1.44l2.38-4.84Z"/><path class="cls-1" d="M105.91,29.13h1.3v7.47h-1.3v-1.04c-.43.56-1.24,1.26-2.56,1.26-1.89,0-3.64-1.33-3.64-3.96s1.73-3.91,3.64-3.91c1.44,0,2.21.79,2.56,1.24v-1.06ZM101.05,32.86c0,1.6.9,2.81,2.45,2.81s2.48-1.31,2.48-2.79c0-1.93-1.33-2.77-2.48-2.77-1.28,0-2.45.94-2.45,2.75Z"/><path class="cls-1" d="M109.65,29.13h1.3v.86c.23-.31.9-1.04,2.14-1.04.88,0,1.69.36,2.14,1.03.38.56.43,1.17.43,2v4.63h-1.3v-4.59c0-.45-.04-.97-.34-1.37-.25-.32-.65-.54-1.22-.54-.45,0-.94.13-1.31.58-.5.59-.54,1.48-.54,2.02v3.91h-1.3v-7.47Z"/><path class="cls-1" d="M123.84,23.48h1.3v13.13h-1.3v-1.04c-.43.56-1.24,1.26-2.56,1.26-1.89,0-3.64-1.33-3.64-3.96s1.73-3.91,3.64-3.91c1.44,0,2.21.79,2.56,1.24v-6.72ZM118.98,32.86c0,1.6.9,2.81,2.45,2.81s2.48-1.31,2.48-2.79c0-1.93-1.33-2.77-2.48-2.77-1.28,0-2.45.94-2.45,2.75Z"/><path class="cls-1" d="M133.07,40.74h-1.3v-11.61h1.3v1.04c.88-1.1,2.02-1.22,2.56-1.22,2.34,0,3.64,1.94,3.64,3.96s-1.31,3.91-3.58,3.91c-1.21,0-2.05-.54-2.61-1.26v5.19ZM137.93,32.91c0-1.84-1.24-2.81-2.45-2.81s-2.48.99-2.48,2.79c0,1.53.97,2.77,2.5,2.77s2.43-1.26,2.43-2.75Z"/><path class="cls-1" d="M141.24,29.13h1.3v.81c.13-.2.68-.99,1.69-.99.4,0,.83.14,1.15.31l-.61,1.17c-.29-.2-.56-.25-.76-.25-.52,0-.85.22-1.04.47-.22.29-.43.79-.43,2.02v3.94h-1.3v-7.47Z"/><path class="cls-1" d="M151.92,29.13h1.3v7.47h-1.3v-1.04c-.43.56-1.24,1.26-2.56,1.26-1.89,0-3.64-1.33-3.64-3.96s1.73-3.91,3.64-3.91c1.44,0,2.21.79,2.56,1.24v-1.06ZM147.06,32.86c0,1.6.9,2.81,2.45,2.81s2.48-1.31,2.48-2.79c0-1.93-1.33-2.77-2.48-2.77-1.28,0-2.45.94-2.45,2.75Z"/><path class="cls-1" d="M161.51,31.22c-.68-.86-1.67-1.12-2.34-1.12-1.39,0-2.65.97-2.65,2.79s1.3,2.77,2.63,2.77c.77,0,1.73-.34,2.41-1.17v1.55c-.81.59-1.67.77-2.38.77-2.32,0-4-1.66-4-3.91s1.69-3.96,4-3.96c1.19,0,1.96.47,2.32.72v1.55Z"/><path class="cls-1" d="M164.88,30.32v6.28h-1.3v-6.28h-.79v-1.19h.79v-2.7h1.3v2.7h1.3v1.19h-1.3Z"/><path class="cls-1" d="M168.04,25.38c.5,0,.92.41.92.92s-.41.92-.92.92-.92-.41-.92-.92.41-.92.92-.92ZM168.69,29.13v7.47h-1.3v-7.47h1.3Z"/><path class="cls-1" d="M176.99,31.22c-.68-.86-1.67-1.12-2.34-1.12-1.39,0-2.65.97-2.65,2.79s1.3,2.77,2.63,2.77c.77,0,1.73-.34,2.41-1.17v1.55c-.81.59-1.67.77-2.38.77-2.32,0-4-1.66-4-3.91s1.69-3.96,4-3.96c1.19,0,1.96.47,2.32.72v1.55Z"/><path class="cls-1" d="M185.65,34.69c-.22.41-.54.86-.92,1.21-.68.61-1.53.92-2.48.92-1.8,0-3.69-1.13-3.69-3.91,0-2.23,1.37-3.96,3.62-3.96,1.46,0,2.38.72,2.83,1.37.47.67.74,1.82.7,2.81h-5.82c.02,1.55,1.08,2.54,2.38,2.54.61,0,1.1-.18,1.53-.54.34-.29.61-.67.77-1.03l1.08.59ZM184.37,32.05c-.22-1.17-1.1-1.94-2.2-1.94s-2,.83-2.2,1.94h4.39Z"/><path class="cls-1" d="M193.21,30.32v6.28h-1.3v-6.28h-.79v-1.19h.79v-2.7h1.3v2.7h1.3v1.19h-1.3Z"/><path class="cls-1" d="M195.73,23.48h1.3v6.52c.23-.31.9-1.04,2.14-1.04.88,0,1.69.36,2.14,1.03.38.56.43,1.17.43,2v4.63h-1.3v-4.59c0-.45-.04-.97-.34-1.37-.25-.32-.65-.54-1.22-.54-.45,0-.94.13-1.31.58-.5.59-.54,1.48-.54,2.02v3.91h-1.3v-13.13Z"/><path class="cls-1" d="M209.91,29.13h1.3v7.47h-1.3v-1.04c-.43.56-1.24,1.26-2.56,1.26-1.89,0-3.64-1.33-3.64-3.96s1.73-3.91,3.64-3.91c1.44,0,2.21.79,2.56,1.24v-1.06ZM205.05,32.86c0,1.6.9,2.81,2.45,2.81s2.48-1.31,2.48-2.79c0-1.93-1.33-2.77-2.48-2.77-1.28,0-2.45.94-2.45,2.75Z"/><path class="cls-1" d="M214.99,30.32v6.28h-1.3v-6.28h-.79v-1.19h.79v-2.7h1.3v2.7h1.3v1.19h-1.3Z"/><path class="cls-1" d="M221.7,29.13h1.3v.81c.13-.2.68-.99,1.69-.99.4,0,.83.14,1.15.31l-.61,1.17c-.29-.2-.56-.25-.76-.25-.52,0-.85.22-1.04.47-.22.29-.43.79-.43,2.02v3.94h-1.3v-7.47Z"/><path class="cls-1" d="M233.22,34.69c-.22.41-.54.86-.92,1.21-.68.61-1.53.92-2.48.92-1.8,0-3.69-1.13-3.69-3.91,0-2.23,1.37-3.96,3.62-3.96,1.46,0,2.38.72,2.83,1.37.47.67.74,1.82.7,2.81h-5.82c.02,1.55,1.08,2.54,2.38,2.54.61,0,1.1-.18,1.53-.54.34-.29.61-.67.77-1.03l1.08.59ZM231.94,32.05c-.22-1.17-1.1-1.94-2.2-1.94s-2,.83-2.2,1.94h4.39Z"/><path class="cls-1" d="M235.25,29.13h1.3v.86c.23-.31.9-1.04,2.14-1.04.88,0,1.69.36,2.14,1.03.38.56.43,1.17.43,2v4.63h-1.3v-4.59c0-.45-.04-.97-.34-1.37-.25-.32-.65-.54-1.22-.54-.45,0-.94.13-1.31.58-.5.59-.54,1.48-.54,2.02v3.91h-1.3v-7.47Z"/><path class="cls-1" d="M250.34,34.69c-.22.41-.54.86-.92,1.21-.68.61-1.53.92-2.48.92-1.8,0-3.69-1.13-3.69-3.91,0-2.23,1.37-3.96,3.62-3.96,1.46,0,2.38.72,2.83,1.37.47.67.74,1.82.7,2.81h-5.82c.02,1.55,1.08,2.54,2.38,2.54.61,0,1.1-.18,1.53-.54.34-.29.61-.67.77-1.03l1.08.59ZM249.06,32.05c-.22-1.17-1.1-1.94-2.2-1.94s-2,.83-2.2,1.94h4.39Z"/><path class="cls-1" d="M252.73,29.13l2.21,5.08,2.34-5.65,2.32,5.65,2.23-5.08h1.44l-3.71,8-2.3-5.58-2.3,5.58-3.67-8h1.44Z"/><path class="cls-1" d="M2.52,58.2h-1.3v-13.13h1.3v6.7c.88-1.1,2.02-1.22,2.56-1.22,2.34,0,3.64,1.94,3.64,3.96s-1.31,3.91-3.58,3.91c-1.21,0-2.05-.54-2.61-1.26v1.04ZM7.38,54.51c0-1.84-1.24-2.81-2.45-2.81s-2.48.99-2.48,2.79c0,1.53.97,2.77,2.5,2.77s2.43-1.26,2.43-2.75Z"/><path class="cls-1" d="M10.22,54.49c0-2.27,1.67-3.94,3.96-3.94s3.96,1.67,3.96,3.94-1.69,3.92-3.96,3.92-3.96-1.66-3.96-3.92ZM11.56,54.49c0,1.84,1.3,2.77,2.63,2.77s2.63-.95,2.63-2.77-1.26-2.79-2.63-2.79-2.63.97-2.63,2.79Z"/><path class="cls-1" d="M21.46,51.92v6.28h-1.3v-6.28h-.79v-1.19h.79v-2.7h1.3v2.7h1.3v1.19h-1.3Z"/><path class="cls-1" d="M23.98,45.08h1.3v6.52c.23-.31.9-1.04,2.14-1.04.88,0,1.69.36,2.14,1.03.38.56.43,1.17.43,2v4.63h-1.3v-4.59c0-.45-.04-.97-.34-1.37-.25-.32-.65-.54-1.22-.54-.45,0-.94.13-1.31.58-.5.59-.54,1.48-.54,2.02v3.91h-1.3v-13.13Z"/><path class="cls-1" d="M37.96,51.92v6.28h-1.3v-6.28h-.79v-1.19h.79v-2.7h1.3v2.7h1.3v1.19h-1.3Z"/><path class="cls-1" d="M40.48,45.08h1.3v6.52c.23-.31.9-1.04,2.14-1.04.88,0,1.69.36,2.14,1.03.38.56.43,1.17.43,2v4.63h-1.3v-4.59c0-.45-.04-.97-.34-1.37-.25-.32-.65-.54-1.22-.54-.45,0-.94.13-1.31.58-.5.59-.54,1.48-.54,2.02v3.91h-1.3v-13.13Z"/><path class="cls-1" d="M55.39,56.29c-.22.41-.54.86-.92,1.21-.68.61-1.53.92-2.48.92-1.8,0-3.69-1.13-3.69-3.91,0-2.23,1.37-3.96,3.62-3.96,1.46,0,2.38.72,2.83,1.37.47.67.74,1.82.7,2.81h-5.82c.02,1.55,1.08,2.54,2.38,2.54.61,0,1.1-.18,1.53-.54.34-.29.61-.67.77-1.03l1.08.59ZM54.11,53.65c-.22-1.17-1.1-1.94-2.2-1.94s-2,.83-2.2,1.94h4.39Z"/><path class="cls-1" d="M64.69,52.46c-.18-.43-.56-.76-1.04-.76s-.9.27-.9.85c0,.54.36.7,1.21,1.06,1.08.45,1.58.79,1.87,1.15.32.4.4.79.4,1.21,0,1.57-1.13,2.45-2.58,2.45-.31,0-1.98-.04-2.61-1.91l1.12-.47c.14.4.58,1.22,1.51,1.22.85,0,1.22-.63,1.22-1.19,0-.7-.5-.94-1.21-1.24-.9-.4-1.48-.68-1.82-1.1-.29-.36-.34-.72-.34-1.1,0-1.31.92-2.09,2.18-2.09.4,0,1.46.07,2.05,1.35l-1.06.56Z"/><path class="cls-1" d="M69.25,62.34h-1.3v-11.61h1.3v1.04c.88-1.1,2.02-1.22,2.56-1.22,2.34,0,3.64,1.94,3.64,3.96s-1.31,3.91-3.58,3.91c-1.21,0-2.05-.54-2.61-1.26v5.19ZM74.11,54.51c0-1.84-1.24-2.81-2.45-2.81s-2.48.99-2.48,2.79c0,1.53.97,2.77,2.5,2.77s2.43-1.26,2.43-2.75Z"/><path class="cls-1" d="M78.07,46.99c.5,0,.92.42.92.92s-.41.92-.92.92-.92-.41-.92-.92.41-.92.92-.92ZM78.71,50.73v7.47h-1.3v-7.47h1.3Z"/><path class="cls-1" d="M81.16,50.73h1.3v.81c.13-.2.68-.99,1.69-.99.4,0,.83.14,1.15.31l-.61,1.17c-.29-.2-.56-.25-.76-.25-.52,0-.85.22-1.04.47-.22.29-.43.79-.43,2.02v3.94h-1.3v-7.47Z"/><path class="cls-1" d="M87.14,46.99c.5,0,.92.42.92.92s-.41.92-.92.92-.92-.41-.92-.92.41-.92.92-.92ZM87.78,50.73v7.47h-1.3v-7.47h1.3Z"/><path class="cls-1" d="M91.56,51.92v6.28h-1.3v-6.28h-.79v-1.19h.79v-2.7h1.3v2.7h1.3v1.19h-1.3Z"/><path class="cls-1" d="M104,50.73h1.3v7.47h-1.3v-1.04c-.43.56-1.24,1.26-2.56,1.26-1.89,0-3.64-1.33-3.64-3.96s1.73-3.91,3.64-3.91c1.44,0,2.21.79,2.56,1.24v-1.06ZM99.14,54.46c0,1.6.9,2.81,2.45,2.81s2.48-1.31,2.48-2.79c0-1.93-1.33-2.77-2.48-2.77-1.28,0-2.45.94-2.45,2.75Z"/><path class="cls-1" d="M107.75,50.73h1.3v.86c.23-.31.9-1.04,2.14-1.04.88,0,1.69.36,2.14,1.03.38.56.43,1.17.43,2v4.63h-1.3v-4.59c0-.45-.04-.97-.34-1.37-.25-.32-.65-.54-1.22-.54-.45,0-.94.13-1.31.58-.5.59-.54,1.48-.54,2.02v3.91h-1.3v-7.47Z"/><path class="cls-1" d="M121.93,45.08h1.3v13.13h-1.3v-1.04c-.43.56-1.24,1.26-2.56,1.26-1.89,0-3.64-1.33-3.64-3.96s1.73-3.91,3.64-3.91c1.44,0,2.21.79,2.56,1.24v-6.72ZM117.07,54.46c0,1.6.9,2.81,2.45,2.81s2.48-1.31,2.48-2.79c0-1.93-1.33-2.77-2.48-2.77-1.28,0-2.45.94-2.45,2.75Z"/><path class="cls-1" d="M129.87,50.73h1.3v.79c.41-.61,1.06-.97,1.85-.97,1.35,0,1.89.95,2.03,1.21.72-1.13,1.75-1.21,2.25-1.21,2.21,0,2.43,1.85,2.43,2.92v4.74h-1.3v-4.54c0-.85-.11-1.96-1.33-1.96-1.49,0-1.66,1.44-1.66,2.34v4.16h-1.3v-4.43c0-.52.02-2.07-1.35-2.07-1.48,0-1.64,1.53-1.64,2.43v4.07h-1.3v-7.47Z"/><path class="cls-1" d="M148.82,56.29c-.22.41-.54.86-.92,1.21-.68.61-1.53.92-2.48.92-1.8,0-3.69-1.13-3.69-3.91,0-2.23,1.37-3.96,3.62-3.96,1.46,0,2.38.72,2.83,1.37.47.67.74,1.82.7,2.81h-5.82c.02,1.55,1.08,2.54,2.38,2.54.61,0,1.1-.18,1.53-.54.34-.29.61-.67.77-1.03l1.08.59ZM147.54,53.65c-.22-1.17-1.1-1.94-2.2-1.94s-2,.83-2.2,1.94h4.39Z"/><path class="cls-1" d="M156.58,50.73h1.3v7.47h-1.3v-1.04c-.43.56-1.24,1.26-2.56,1.26-1.89,0-3.64-1.33-3.64-3.96s1.73-3.91,3.64-3.91c1.44,0,2.21.79,2.56,1.24v-1.06ZM151.72,54.46c0,1.6.9,2.81,2.45,2.81s2.48-1.31,2.48-2.79c0-1.93-1.33-2.77-2.48-2.77-1.28,0-2.45.94-2.45,2.75Z"/><path class="cls-1" d="M160.32,50.73h1.3v.86c.23-.31.9-1.04,2.14-1.04.88,0,1.69.36,2.14,1.03.38.56.43,1.17.43,2v4.63h-1.3v-4.59c0-.45-.04-.97-.34-1.37-.25-.32-.65-.54-1.22-.54-.45,0-.94.13-1.31.58-.5.59-.54,1.48-.54,2.02v3.91h-1.3v-7.47Z"/><path class="cls-1" d="M169.43,46.99c.5,0,.92.42.92.92s-.41.92-.92.92-.92-.41-.92-.92.41-.92.92-.92ZM170.08,50.73v7.47h-1.3v-7.47h1.3Z"/><path class="cls-1" d="M172.53,50.73h1.3v.86c.23-.31.9-1.04,2.14-1.04.88,0,1.69.36,2.14,1.03.38.56.43,1.17.43,2v4.63h-1.3v-4.59c0-.45-.04-.97-.34-1.37-.25-.32-.65-.54-1.22-.54-.45,0-.94.13-1.31.58-.5.59-.54,1.48-.54,2.02v3.91h-1.3v-7.47Z"/><path class="cls-1" d="M186.71,50.73h1.3v7.29c0,.81,0,1.96-.72,2.93-.56.76-1.58,1.39-2.99,1.39-1.28,0-2.16-.5-2.66-1.01s-.97-1.31-.97-2.41h1.28c0,.63.25,1.19.58,1.55.54.59,1.22.72,1.8.72.92,0,1.55-.32,1.98-1.04.38-.61.41-1.28.41-1.91v-1.08c-.43.56-1.24,1.26-2.56,1.26-1.1,0-1.98-.43-2.56-1.01-.5-.5-1.08-1.44-1.08-2.95s.54-2.36,1.08-2.9c.63-.61,1.55-1.01,2.56-1.01,1.1,0,1.96.47,2.56,1.24v-1.06ZM182.61,52.41c-.63.65-.76,1.44-.76,2.05,0,.65.13,1.53.85,2.2.41.38.92.61,1.6.61s1.22-.22,1.64-.63c.5-.49.85-1.28.85-2.16s-.32-1.66-.79-2.11c-.41-.41-1.03-.67-1.69-.67-.79,0-1.33.34-1.69.7Z"/><path class="cls-1" d="M194.18,54.49c0-2.27,1.67-3.94,3.96-3.94s3.96,1.67,3.96,3.94-1.69,3.92-3.96,3.92-3.96-1.66-3.96-3.92ZM195.51,54.49c0,1.84,1.3,2.77,2.63,2.77s2.63-.95,2.63-2.77-1.26-2.79-2.63-2.79-2.63.97-2.63,2.79Z"/><path class="cls-1" d="M205.41,51.92v6.28h-1.3v-6.28h-.72v-1.19h.72v-3.26c0-.68.05-1.55.72-2.11.36-.31.9-.49,1.49-.49.47,0,.77.11.92.16v1.26c-.27-.11-.58-.16-.85-.16-.29,0-.63.07-.83.4-.16.27-.16.68-.16,1.08v3.11h1.84v1.19h-1.84Z"/><path class="cls-1" d="M218.32,50.73h1.3v7.47h-1.3v-1.04c-.43.56-1.24,1.26-2.56,1.26-1.89,0-3.64-1.33-3.64-3.96s1.73-3.91,3.64-3.91c1.44,0,2.21.79,2.56,1.24v-1.06ZM213.46,54.46c0,1.6.9,2.81,2.45,2.81s2.48-1.31,2.48-2.79c0-1.93-1.33-2.77-2.48-2.77-1.28,0-2.45.94-2.45,2.75Z"/><path class="cls-1" d="M222.06,50.73h1.3v.86c.23-.31.9-1.04,2.14-1.04.88,0,1.69.36,2.14,1.03.38.56.43,1.17.43,2v4.63h-1.3v-4.59c0-.45-.04-.97-.34-1.37-.25-.32-.65-.54-1.22-.54-.45,0-.94.13-1.31.58-.5.59-.54,1.48-.54,2.02v3.91h-1.3v-7.47Z"/><path class="cls-1" d="M6.95,72.33h1.3v7.47h-1.3v-1.04c-.43.56-1.24,1.26-2.56,1.26-1.89,0-3.64-1.33-3.64-3.96s1.73-3.91,3.64-3.91c1.44,0,2.21.79,2.56,1.24v-1.06ZM2.09,76.06c0,1.6.9,2.81,2.45,2.81s2.48-1.31,2.48-2.79c0-1.93-1.33-2.77-2.48-2.77-1.28,0-2.45.94-2.45,2.75Z"/><path class="cls-1" d="M10.69,72.33h1.3v.86c.23-.31.9-1.04,2.14-1.04.88,0,1.69.36,2.14,1.03.38.56.43,1.17.43,2v4.63h-1.3v-4.59c0-.45-.04-.97-.34-1.37-.25-.32-.65-.54-1.22-.54-.45,0-.94.13-1.31.58-.5.59-.54,1.48-.54,2.02v3.91h-1.3v-7.47Z"/><path class="cls-1" d="M25,74.42c-.68-.86-1.67-1.12-2.34-1.12-1.39,0-2.65.97-2.65,2.79s1.3,2.77,2.63,2.77c.77,0,1.73-.34,2.41-1.17v1.55c-.81.59-1.67.77-2.38.77-2.32,0-4-1.66-4-3.91s1.69-3.96,4-3.96c1.19,0,1.96.47,2.32.72v1.55Z"/><path class="cls-1" d="M27.68,68.58c.5,0,.92.42.92.92s-.41.92-.92.92-.92-.41-.92-.92.41-.92.92-.92ZM28.33,72.33v7.47h-1.3v-7.47h1.3Z"/><path class="cls-1" d="M37.41,77.89c-.22.41-.54.86-.92,1.21-.68.61-1.53.92-2.48.92-1.8,0-3.69-1.13-3.69-3.91,0-2.23,1.37-3.96,3.62-3.96,1.46,0,2.38.72,2.83,1.37.47.67.74,1.82.7,2.81h-5.82c.02,1.55,1.08,2.54,2.38,2.54.61,0,1.1-.18,1.53-.54.34-.29.61-.67.77-1.03l1.08.59ZM36.13,75.25c-.22-1.17-1.1-1.94-2.2-1.94s-2,.83-2.2,1.94h4.39Z"/><path class="cls-1" d="M39.44,72.33h1.3v.86c.23-.31.9-1.04,2.14-1.04.88,0,1.69.36,2.14,1.03.38.56.43,1.17.43,2v4.63h-1.3v-4.59c0-.45-.04-.97-.34-1.37-.25-.32-.65-.54-1.22-.54-.45,0-.94.13-1.31.58-.5.59-.54,1.48-.54,2.02v3.91h-1.3v-7.47Z"/><path class="cls-1" d="M49.23,73.52v6.28h-1.3v-6.28h-.79v-1.19h.79v-2.7h1.3v2.7h1.3v1.19h-1.3Z"/><path class="cls-1" d="M61.67,72.33h1.3v7.47h-1.3v-1.04c-.43.56-1.24,1.26-2.56,1.26-1.89,0-3.64-1.33-3.64-3.96s1.73-3.91,3.64-3.91c1.44,0,2.21.79,2.56,1.24v-1.06ZM56.81,76.06c0,1.6.9,2.81,2.45,2.81s2.48-1.31,2.48-2.79c0-1.93-1.33-2.77-2.48-2.77-1.28,0-2.45.94-2.45,2.75Z"/><path class="cls-1" d="M65.41,72.33h1.3v.81c.13-.2.68-.99,1.69-.99.4,0,.83.14,1.15.31l-.61,1.17c-.29-.2-.56-.25-.76-.25-.52,0-.85.22-1.04.47-.22.29-.43.79-.43,2.02v3.94h-1.3v-7.47Z"/><path class="cls-1" d="M72.43,73.52v6.28h-1.3v-6.28h-.79v-1.19h.79v-2.7h1.3v2.7h1.3v1.19h-1.3Z"/><path class="cls-1" d="M74.99,75.39h11.88v1.15h-11.88v-1.15Z"/><path class="cls-1" d="M90.68,73.52v6.28h-1.3v-6.28h-.79v-1.19h.79v-2.7h1.3v2.7h1.3v1.19h-1.3Z"/><path class="cls-1" d="M93.2,66.68h1.3v6.52c.23-.31.9-1.04,2.14-1.04.88,0,1.69.36,2.14,1.03.38.56.43,1.17.43,2v4.63h-1.3v-4.59c0-.45-.04-.97-.34-1.37-.25-.32-.65-.54-1.22-.54-.45,0-.94.13-1.31.58-.5.59-.54,1.48-.54,2.02v3.91h-1.3v-13.13Z"/><path class="cls-1" d="M108.11,77.89c-.22.41-.54.86-.92,1.21-.68.61-1.53.92-2.48.92-1.8,0-3.69-1.13-3.69-3.91,0-2.23,1.37-3.96,3.62-3.96,1.46,0,2.38.72,2.83,1.37.47.67.74,1.82.7,2.81h-5.82c.02,1.55,1.08,2.54,2.38,2.54.61,0,1.1-.18,1.53-.54.34-.29.61-.67.77-1.03l1.08.59ZM106.83,75.25c-.22-1.17-1.1-1.94-2.2-1.94s-2,.83-2.2,1.94h4.39Z"/><path class="cls-1" d="M110.14,72.33h1.3v.81c.13-.2.68-.99,1.69-.99.4,0,.83.14,1.15.31l-.61,1.17c-.29-.2-.56-.25-.76-.25-.52,0-.85.22-1.04.47-.22.29-.43.79-.43,2.02v3.94h-1.3v-7.47Z"/><path class="cls-1" d="M121.66,77.89c-.22.41-.54.86-.92,1.21-.68.61-1.53.92-2.48.92-1.8,0-3.69-1.13-3.69-3.91,0-2.23,1.37-3.96,3.62-3.96,1.46,0,2.38.72,2.83,1.37.47.67.74,1.82.7,2.81h-5.82c.02,1.55,1.08,2.54,2.38,2.54.61,0,1.1-.18,1.53-.54.34-.29.61-.67.77-1.03l1.08.59ZM120.38,75.25c-.22-1.17-1.1-1.94-2.2-1.94s-2,.83-2.2,1.94h4.39Z"/><path class="cls-1" d="M128.54,68.58c.5,0,.92.42.92.92s-.41.92-.92.92-.92-.41-.92-.92.41-.92.92-.92ZM129.18,72.33v7.47h-1.3v-7.47h1.3Z"/><path class="cls-1" d="M134.71,74.06c-.18-.43-.56-.76-1.04-.76s-.9.27-.9.85c0,.54.36.7,1.21,1.06,1.08.45,1.58.79,1.87,1.15.32.4.4.79.4,1.21,0,1.57-1.13,2.45-2.57,2.45-.31,0-1.98-.04-2.61-1.91l1.12-.47c.14.4.58,1.22,1.51,1.22.85,0,1.22-.63,1.22-1.19,0-.7-.5-.94-1.21-1.24-.9-.4-1.48-.68-1.82-1.1-.29-.36-.34-.72-.34-1.1,0-1.31.92-2.09,2.18-2.09.4,0,1.46.07,2.05,1.35l-1.06.56Z"/><path class="cls-1" d="M147.89,72.33h1.3v7.47h-1.3v-1.04c-.43.56-1.24,1.26-2.56,1.26-1.89,0-3.64-1.33-3.64-3.96s1.73-3.91,3.64-3.91c1.44,0,2.21.79,2.56,1.24v-1.06ZM143.02,76.06c0,1.6.9,2.81,2.45,2.81s2.48-1.31,2.48-2.79c0-1.93-1.33-2.77-2.48-2.77-1.28,0-2.45.94-2.45,2.75Z"/><path class="cls-1" d="M161.55,72.33h1.3v11.61h-1.3v-5.19c-.43.56-1.24,1.26-2.56,1.26-1.89,0-3.64-1.33-3.64-3.96s1.73-3.91,3.64-3.91c1.44,0,2.21.79,2.56,1.24v-1.06ZM156.69,76.06c0,1.6.9,2.81,2.45,2.81s2.48-1.31,2.48-2.79c0-1.93-1.33-2.77-2.48-2.77-1.28,0-2.45.94-2.45,2.75Z"/><path class="cls-1" d="M166.59,76.69c0,.52,0,1.13.36,1.6.2.25.59.58,1.31.58s1.12-.32,1.31-.58c.36-.47.36-1.08.36-1.6v-4.36h1.3v4.5c0,.92-.09,1.6-.68,2.25-.67.7-1.55.94-2.29.94s-1.62-.23-2.29-.94c-.59-.65-.68-1.33-.68-2.25v-4.5h1.3v4.36Z"/><path class="cls-1" d="M174.33,68.58c.5,0,.92.42.92.92s-.41.92-.92.92-.92-.41-.92-.92.41-.92.92-.92ZM174.97,72.33v7.47h-1.3v-7.47h1.3Z"/><path class="cls-1" d="M184.05,77.89c-.22.41-.54.86-.92,1.21-.68.61-1.53.92-2.48.92-1.8,0-3.69-1.13-3.69-3.91,0-2.23,1.37-3.96,3.62-3.96,1.46,0,2.38.72,2.83,1.37.47.67.74,1.82.7,2.81h-5.82c.02,1.55,1.08,2.54,2.38,2.54.61,0,1.1-.18,1.53-.54.34-.29.61-.67.77-1.03l1.08.59ZM182.77,75.25c-.22-1.17-1.1-1.94-2.2-1.94s-2,.83-2.2,1.94h4.39Z"/><path class="cls-1" d="M187.41,73.52v6.28h-1.3v-6.28h-.79v-1.19h.79v-2.7h1.3v2.7h1.3v1.19h-1.3Z"/><path class="cls-1" d="M190.36,78.04l1.19.43-1.82,4.07-.85-.34,1.48-4.16Z"/><path class="cls-1" d="M199.52,79.8h-1.3v-13.13h1.3v6.7c.88-1.1,2.02-1.22,2.56-1.22,2.34,0,3.64,1.94,3.64,3.96s-1.31,3.91-3.58,3.91c-1.21,0-2.05-.54-2.61-1.26v1.04ZM204.39,76.11c0-1.84-1.24-2.81-2.45-2.81s-2.48.99-2.48,2.79c0,1.53.97,2.77,2.5,2.77s2.43-1.26,2.43-2.75Z"/><path class="cls-1" d="M208.99,76.69c0,.52,0,1.13.36,1.6.2.25.59.58,1.31.58s1.12-.32,1.31-.58c.36-.47.36-1.08.36-1.6v-4.36h1.3v4.5c0,.92-.09,1.6-.68,2.25-.67.7-1.55.94-2.29.94s-1.62-.23-2.29-.94c-.59-.65-.68-1.33-.68-2.25v-4.5h1.3v4.36Z"/><path class="cls-1" d="M217.42,73.52v6.28h-1.3v-6.28h-.79v-1.19h.79v-2.7h1.3v2.7h1.3v1.19h-1.3Z"/><path class="cls-1" d="M6.95,93.93h1.3v7.29c0,.81,0,1.96-.72,2.93-.56.76-1.58,1.39-2.99,1.39-1.28,0-2.16-.5-2.67-1.01s-.97-1.31-.97-2.41h1.28c0,.63.25,1.19.58,1.55.54.59,1.22.72,1.8.72.92,0,1.55-.32,1.98-1.04.38-.61.41-1.28.41-1.91v-1.08c-.43.56-1.24,1.26-2.56,1.26-1.1,0-1.98-.43-2.56-1.01-.5-.5-1.08-1.44-1.08-2.95s.54-2.36,1.08-2.9c.63-.61,1.55-1.01,2.56-1.01,1.1,0,1.96.47,2.56,1.24v-1.06ZM2.84,95.6c-.63.65-.76,1.44-.76,2.05,0,.65.13,1.53.85,2.2.41.38.92.61,1.6.61s1.22-.22,1.64-.63c.5-.49.85-1.28.85-2.16s-.32-1.66-.79-2.11c-.41-.41-1.03-.67-1.69-.67-.79,0-1.33.34-1.69.7Z"/><path class="cls-1" d="M17.32,99.49c-.22.41-.54.86-.92,1.21-.68.61-1.53.92-2.48.92-1.8,0-3.69-1.13-3.69-3.91,0-2.23,1.37-3.96,3.62-3.96,1.46,0,2.38.72,2.83,1.37.47.67.74,1.82.7,2.81h-5.82c.02,1.55,1.08,2.54,2.38,2.54.61,0,1.1-.18,1.53-.54.34-.29.61-.67.77-1.03l1.08.59ZM16.04,96.85c-.22-1.17-1.1-1.94-2.2-1.94s-2,.83-2.2,1.94h4.39Z"/><path class="cls-1" d="M19.35,93.93h1.3v.86c.23-.31.9-1.04,2.14-1.04.88,0,1.69.36,2.14,1.03.38.56.43,1.17.43,2v4.63h-1.3v-4.59c0-.45-.04-.97-.34-1.37-.25-.32-.65-.54-1.22-.54-.45,0-.94.13-1.31.58-.5.59-.54,1.48-.54,2.02v3.91h-1.3v-7.47Z"/><path class="cls-1" d="M29.11,98.29c0,.52,0,1.13.36,1.6.2.25.59.58,1.31.58s1.12-.32,1.31-.58c.36-.47.36-1.08.36-1.6v-4.36h1.3v4.5c0,.92-.09,1.6-.68,2.25-.67.7-1.55.94-2.29.94s-1.62-.23-2.29-.94c-.59-.65-.68-1.33-.68-2.25v-4.5h1.3v4.36Z"/><path class="cls-1" d="M36.85,90.18c.5,0,.92.42.92.92s-.41.92-.92.92-.92-.41-.92-.92.41-.92.92-.92ZM37.49,93.93v7.47h-1.3v-7.47h1.3Z"/><path class="cls-1" d="M39.94,93.93h1.3v.86c.23-.31.9-1.04,2.14-1.04.88,0,1.69.36,2.14,1.03.38.56.43,1.17.43,2v4.63h-1.3v-4.59c0-.45-.04-.97-.34-1.37-.25-.32-.65-.54-1.22-.54-.45,0-.94.13-1.31.58-.5.59-.54,1.48-.54,2.02v3.91h-1.3v-7.47Z"/><path class="cls-1" d="M55.03,99.49c-.22.41-.54.86-.92,1.21-.68.61-1.53.92-2.48.92-1.8,0-3.69-1.13-3.69-3.91,0-2.23,1.37-3.96,3.62-3.96,1.46,0,2.38.72,2.83,1.37.47.67.74,1.82.7,2.81h-5.82c.02,1.55,1.08,2.54,2.38,2.54.61,0,1.1-.18,1.53-.54.34-.29.61-.67.77-1.03l1.08.59ZM53.75,96.85c-.22-1.17-1.1-1.94-2.2-1.94s-2,.83-2.2,1.94h4.39Z"/><path class="cls-1" d="M61.9,90.18c.5,0,.92.42.92.92s-.41.92-.92.92-.92-.41-.92-.92.41-.92.92-.92ZM62.55,93.93v11.61h-1.3v-11.61h1.3Z"/><path class="cls-1" d="M64.53,97.69c0-2.27,1.67-3.94,3.96-3.94s3.96,1.67,3.96,3.94-1.69,3.92-3.96,3.92-3.96-1.66-3.96-3.92ZM65.86,97.69c0,1.84,1.3,2.77,2.63,2.77s2.63-.95,2.63-2.77-1.26-2.79-2.63-2.79-2.63.97-2.63,2.79Z"/><path class="cls-1" d="M76.79,100.7l-3.44-6.77h1.48l2.65,5.35,2.43-5.35h1.44l-5.49,11.61h-1.44l2.38-4.84Z"/><path class="cls-1" d="M88.23,95.12v6.28h-1.3v-6.28h-.79v-1.19h.79v-2.7h1.3v2.7h1.3v1.19h-1.3Z"/><path class="cls-1" d="M90.75,88.28h1.3v6.52c.23-.31.9-1.04,2.14-1.04.88,0,1.69.36,2.14,1.03.38.56.43,1.17.43,2v4.63h-1.3v-4.59c0-.45-.04-.97-.34-1.37-.25-.32-.65-.54-1.22-.54-.45,0-.94.13-1.31.58-.5.59-.54,1.48-.54,2.02v3.91h-1.3v-13.13Z"/><path class="cls-1" d="M104.94,93.93h1.3v7.47h-1.3v-1.04c-.43.56-1.24,1.26-2.56,1.26-1.89,0-3.64-1.33-3.64-3.96s1.73-3.91,3.64-3.91c1.44,0,2.21.79,2.56,1.24v-1.06ZM100.08,97.66c0,1.6.9,2.81,2.45,2.81s2.48-1.31,2.48-2.79c0-1.93-1.33-2.77-2.48-2.77-1.28,0-2.45.94-2.45,2.75Z"/><path class="cls-1" d="M110.01,95.12v6.28h-1.3v-6.28h-.79v-1.19h.79v-2.7h1.3v2.7h1.3v1.19h-1.3Z"/><path class="cls-1" d="M117.37,90.18c.5,0,.92.42.92.92s-.41.92-.92.92-.92-.41-.92-.92.41-.92.92-.92ZM118.02,93.93v7.47h-1.3v-7.47h1.3Z"/><path class="cls-1" d="M123.55,95.66c-.18-.43-.56-.76-1.04-.76s-.9.27-.9.85c0,.54.36.7,1.21,1.06,1.08.45,1.58.79,1.87,1.15.32.4.4.79.4,1.21,0,1.57-1.13,2.45-2.58,2.45-.31,0-1.98-.04-2.61-1.91l1.12-.47c.14.4.58,1.22,1.51,1.22.85,0,1.22-.63,1.22-1.19,0-.7-.5-.94-1.21-1.24-.9-.4-1.48-.68-1.82-1.1-.29-.36-.34-.72-.34-1.1,0-1.31.92-2.09,2.18-2.09.4,0,1.46.07,2.05,1.35l-1.06.56Z"/><path class="cls-1" d="M132.33,95.12v6.28h-1.3v-6.28h-.79v-1.19h.79v-2.7h1.3v2.7h1.3v1.19h-1.3Z"/><path class="cls-1" d="M134.85,88.28h1.3v6.52c.23-.31.9-1.04,2.14-1.04.88,0,1.69.36,2.14,1.03.38.56.43,1.17.43,2v4.63h-1.3v-4.59c0-.45-.04-.97-.34-1.37-.25-.32-.65-.54-1.22-.54-.45,0-.94.13-1.31.58-.5.59-.54,1.48-.54,2.02v3.91h-1.3v-13.13Z"/><path class="cls-1" d="M149.76,99.49c-.22.41-.54.86-.92,1.21-.68.61-1.53.92-2.48.92-1.8,0-3.69-1.13-3.69-3.91,0-2.23,1.37-3.96,3.62-3.96,1.46,0,2.38.72,2.83,1.37.47.67.74,1.82.7,2.81h-5.82c.02,1.55,1.08,2.54,2.38,2.54.61,0,1.1-.18,1.53-.54.34-.29.61-.67.77-1.03l1.08.59ZM148.48,96.85c-.22-1.17-1.1-1.94-2.2-1.94s-2,.83-2.2,1.94h4.39Z"/><path class="cls-1" d="M161.71,93.93h1.3v7.47h-1.3v-1.04c-.43.56-1.24,1.26-2.56,1.26-1.89,0-3.64-1.33-3.64-3.96s1.73-3.91,3.64-3.91c1.44,0,2.21.79,2.56,1.24v-1.06ZM156.85,97.66c0,1.6.9,2.81,2.45,2.81s2.48-1.31,2.48-2.79c0-1.93-1.33-2.77-2.48-2.77-1.28,0-2.45.94-2.45,2.75Z"/><path class="cls-1" d="M165.45,93.93h1.3v.81c.13-.2.68-.99,1.69-.99.4,0,.83.14,1.15.31l-.61,1.17c-.29-.2-.56-.25-.76-.25-.52,0-.85.22-1.04.47-.22.29-.43.79-.43,2.02v3.94h-1.3v-7.47Z"/><path class="cls-1" d="M176.2,96.02c-.68-.86-1.67-1.12-2.34-1.12-1.39,0-2.65.97-2.65,2.79s1.3,2.77,2.63,2.77c.77,0,1.73-.34,2.41-1.17v1.55c-.81.59-1.67.77-2.38.77-2.32,0-4-1.66-4-3.91s1.69-3.96,4-3.96c1.19,0,1.96.47,2.32.72v1.55Z"/><path class="cls-1" d="M178.23,88.28h1.3v6.52c.23-.31.9-1.04,2.14-1.04.88,0,1.69.36,2.14,1.03.38.56.43,1.17.43,2v4.63h-1.3v-4.59c0-.45-.04-.97-.34-1.37-.25-.32-.65-.54-1.22-.54-.45,0-.94.13-1.31.58-.5.59-.54,1.48-.54,2.02v3.91h-1.3v-13.13Z"/><path class="cls-1" d="M187.34,90.18c.5,0,.92.42.92.92s-.41.92-.92.92-.92-.41-.92-.92.41-.92.92-.92ZM187.99,93.93v7.47h-1.3v-7.47h1.3Z"/><path class="cls-1" d="M191.77,95.12v6.28h-1.3v-6.28h-.79v-1.19h.79v-2.7h1.3v2.7h1.3v1.19h-1.3Z"/><path class="cls-1" d="M200.91,99.49c-.22.41-.54.86-.92,1.21-.68.61-1.53.92-2.48.92-1.8,0-3.69-1.13-3.69-3.91,0-2.23,1.37-3.96,3.62-3.96,1.46,0,2.38.72,2.83,1.37.47.67.74,1.82.7,2.81h-5.82c.02,1.55,1.08,2.54,2.38,2.54.61,0,1.1-.18,1.53-.54.34-.29.61-.67.77-1.03l1.08.59ZM199.63,96.85c-.22-1.17-1.1-1.94-2.2-1.94s-2,.83-2.2,1.94h4.39Z"/><path class="cls-1" d="M208.8,96.02c-.68-.86-1.67-1.12-2.34-1.12-1.39,0-2.65.97-2.65,2.79s1.3,2.77,2.63,2.77c.77,0,1.73-.34,2.41-1.17v1.55c-.81.59-1.67.77-2.38.77-2.32,0-4-1.66-4-3.91s1.69-3.96,4-3.96c1.19,0,1.96.47,2.32.72v1.55Z"/><path class="cls-1" d="M212.16,95.12v6.28h-1.3v-6.28h-.79v-1.19h.79v-2.7h1.3v2.7h1.3v1.19h-1.3Z"/><path class="cls-1" d="M215.96,88.96l1.21.43-1.82,4.07-.85-.34,1.46-4.16Z"/><path class="cls-1" d="M221.21,95.66c-.18-.43-.56-.76-1.04-.76s-.9.27-.9.85c0,.54.36.7,1.21,1.06,1.08.45,1.58.79,1.87,1.15.32.4.4.79.4,1.21,0,1.57-1.13,2.45-2.57,2.45-.31,0-1.98-.04-2.61-1.91l1.12-.47c.14.4.58,1.22,1.51,1.22.85,0,1.22-.63,1.22-1.19,0-.7-.5-.94-1.21-1.24-.9-.4-1.48-.68-1.82-1.1-.29-.36-.34-.72-.34-1.1,0-1.31.92-2.09,2.18-2.09.4,0,1.46.07,2.05,1.35l-1.06.56Z"/><path class="cls-1" d="M4.3,117.26c-.18-.43-.56-.76-1.04-.76s-.9.27-.9.85c0,.54.36.7,1.21,1.06,1.08.45,1.58.79,1.87,1.15.32.4.4.79.4,1.21,0,1.57-1.13,2.45-2.57,2.45-.31,0-1.98-.04-2.61-1.91l1.12-.47c.14.4.58,1.22,1.51,1.22.85,0,1.22-.63,1.22-1.19,0-.7-.5-.94-1.21-1.24-.9-.4-1.48-.68-1.82-1.1-.29-.36-.34-.72-.34-1.1,0-1.31.92-2.09,2.18-2.09.4,0,1.46.07,2.05,1.35l-1.06.56Z"/><path class="cls-1" d="M14.19,121.09c-.22.41-.54.86-.92,1.21-.68.61-1.53.92-2.48.92-1.8,0-3.69-1.13-3.69-3.91,0-2.23,1.37-3.96,3.62-3.96,1.46,0,2.38.72,2.83,1.37.47.67.74,1.82.7,2.81h-5.82c.02,1.55,1.08,2.54,2.38,2.54.61,0,1.1-.18,1.53-.54.34-.29.61-.67.77-1.03l1.08.59ZM12.91,118.45c-.22-1.17-1.1-1.94-2.2-1.94s-2,.83-2.2,1.94h4.39Z"/><path class="cls-1" d="M22.07,117.62c-.68-.86-1.67-1.12-2.34-1.12-1.39,0-2.65.97-2.65,2.79s1.3,2.77,2.63,2.77c.77,0,1.73-.34,2.41-1.17v1.55c-.81.59-1.67.77-2.38.77-2.32,0-4-1.66-4-3.91s1.69-3.96,4-3.96c1.19,0,1.96.47,2.32.72v1.55Z"/><path class="cls-1" d="M24.1,115.53h1.3v.81c.13-.2.68-.99,1.69-.99.4,0,.83.14,1.15.31l-.61,1.17c-.29-.2-.56-.25-.76-.25-.52,0-.85.22-1.04.47-.22.29-.43.79-.43,2.02v3.94h-1.3v-7.47Z"/><path class="cls-1" d="M35.62,121.09c-.22.41-.54.86-.92,1.21-.68.61-1.53.92-2.48.92-1.8,0-3.69-1.13-3.69-3.91,0-2.23,1.37-3.96,3.62-3.96,1.46,0,2.38.72,2.83,1.37.47.67.74,1.82.7,2.81h-5.82c.02,1.55,1.08,2.54,2.38,2.54.61,0,1.1-.18,1.53-.54.34-.29.61-.67.77-1.03l1.08.59ZM34.35,118.45c-.22-1.17-1.1-1.94-2.2-1.94s-2,.83-2.2,1.94h4.39Z"/><path class="cls-1" d="M38.99,116.72v6.28h-1.3v-6.28h-.79v-1.19h.79v-2.7h1.3v2.7h1.3v1.19h-1.3Z"/><path class="cls-1" d="M52.33,121.09c-.22.41-.54.86-.92,1.21-.68.61-1.53.92-2.48.92-1.8,0-3.69-1.13-3.69-3.91,0-2.23,1.37-3.96,3.62-3.96,1.46,0,2.38.72,2.83,1.37.47.67.74,1.82.7,2.81h-5.82c.02,1.55,1.08,2.54,2.38,2.54.61,0,1.1-.18,1.53-.54.34-.29.61-.67.77-1.03l1.08.59ZM51.05,118.45c-.22-1.17-1.1-1.94-2.2-1.94s-2,.83-2.2,1.94h4.39Z"/><path class="cls-1" d="M55.65,109.88v13.13h-1.3v-13.13h1.3Z"/><path class="cls-1" d="M58.75,111.79c.5,0,.92.41.92.92s-.41.92-.92.92-.92-.41-.92-.92.41-.92.92-.92ZM59.4,115.53v7.47h-1.3v-7.47h1.3Z"/><path class="cls-1" d="M63.95,119.01l-2.72-3.48h1.58l1.93,2.54,1.96-2.54h1.58l-2.74,3.49,3.1,3.98h-1.58l-2.36-3.04-2.36,3.04h-1.58l3.19-4Z"/><path class="cls-1" d="M70.67,111.79c.5,0,.92.41.92.92s-.41.92-.92.92-.92-.41-.92-.92.41-.92.92-.92ZM71.31,115.53v7.47h-1.3v-7.47h1.3Z"/><path class="cls-1" d="M73.76,115.53h1.3v.81c.13-.2.68-.99,1.69-.99.4,0,.83.14,1.15.31l-.61,1.17c-.29-.2-.56-.25-.76-.25-.52,0-.85.22-1.04.47-.22.29-.43.79-.43,2.02v3.94h-1.3v-7.47Z"/><path class="cls-1" d="M79.05,121.38c.49,0,.9.41.9.9s-.41.9-.9.9-.9-.41-.9-.9.41-.9.9-.9Z"/></g></svg>